{"glyphs":{"0":{"ha":882,"x_min":29,"x_max":851,"o":"m 432 958 q 569 933 503 958 l 604 919 q 715 847 668 893 q 792 742 763 800 q 837 617 822 683 q 851 485 851 551 q 826 301 851 396 q 750 126 801 206 q 622 -4 699 47 q 443 -56 546 -56 q 379 -49 410 -56 q 318 -32 349 -43 l 283 -18 q 169 61 217 10 q 90 176 121 113 q 44 312 58 240 q 29 450 29 383 q 53 631 29 540 q 128 795 78 722 q 253 913 178 868 q 432 958 329 958 m 432 931 q 265 887 336 931 q 148 774 194 843 q 79 619 101 706 q 57 450 57 533 q 78 290 57 372 q 142 140 99 207 q 251 29 185 72 q 408 -14 317 -14 q 577 35 506 -14 q 696 160 649 85 q 766 325 743 235 q 789 499 789 415 q 767 657 789 579 q 700 795 744 735 q 588 893 656 856 q 432 931 521 931 m 394 126 q 296 153 333 126 q 238 222 258 181 q 210 315 217 264 q 203 415 203 367 q 212 534 203 469 q 245 654 221 599 q 313 747 269 710 q 426 785 357 785 q 531 756 489 785 q 597 683 572 728 q 633 583 622 638 q 644 478 644 529 q 631 358 644 421 q 588 244 618 296 q 510 160 558 193 q 394 126 463 126 m 617 478 q 610 560 617 514 q 585 647 603 606 q 537 715 567 688 q 461 743 507 743 q 360 708 399 743 q 301 620 322 672 q 272 508 279 568 q 265 401 265 449 q 269 325 265 368 q 285 244 272 282 q 324 181 299 207 q 394 154 350 154 q 499 185 457 154 q 567 265 542 217 q 605 369 593 313 q 617 478 617 426 z "},"1":{"ha":447,"x_min":-46,"x_max":407,"o":"m 201 938 q 287 944 244 938 q 372 953 329 951 l 407 939 q 401 619 407 779 q 394 300 394 460 q 395 130 394 215 q 400 -40 396 44 l 357 -40 l 271 -42 l 228 -42 l 200 -42 l 165 -28 l 165 6 l 164 74 q 172 372 164 225 q 193 669 181 519 q 122 631 158 646 q 44 603 85 615 l 10 617 q -12 693 -3 657 q -46 765 -22 729 q 40 794 7 782 q 99 822 74 806 q 147 865 124 839 q 201 938 169 892 m 217 910 q 171 847 193 871 q 124 805 149 822 q 68 776 99 788 q -4 750 38 764 q 15 701 10 726 q 28 651 21 676 q 136 701 89 671 q 228 776 183 732 q 219 649 226 713 q 207 521 213 585 q 196 314 200 417 q 192 107 192 211 l 193 0 q 265 1 229 0 q 336 1 300 3 q 332 314 332 157 q 338 619 332 467 q 344 924 344 771 q 281 915 313 921 q 217 910 249 910 z "},"2":{"ha":715,"x_min":11,"x_max":718,"o":"m 371 957 q 434 952 403 957 q 496 935 465 947 q 576 893 543 915 q 631 841 610 871 q 663 772 653 811 q 674 679 674 732 q 653 562 674 614 q 601 466 633 510 q 528 384 569 422 q 446 307 488 346 q 365 226 404 268 q 296 133 325 183 q 490 138 394 133 q 683 154 586 142 l 718 140 q 715 108 717 125 q 714 75 714 92 l 714 46 l 717 -11 l 717 -40 q 601 -45 658 -43 q 485 -47 543 -47 q 408 -47 446 -47 q 329 -46 369 -47 l 225 -43 q 147 -42 186 -42 q 68 -42 108 -42 l 33 -28 q 38 60 33 22 q 61 144 42 97 q 105 226 76 182 q 168 315 133 271 q 238 400 203 360 q 303 471 274 440 q 350 520 326 496 q 394 572 374 544 q 426 624 413 596 q 440 682 440 651 q 424 742 440 722 q 369 761 408 761 q 308 747 333 761 q 261 710 282 732 q 224 660 240 688 q 189 608 207 633 l 11 696 q 81 798 47 750 q 153 881 114 846 q 245 937 193 917 q 371 957 297 957 m 50 706 q 97 680 74 693 q 144 657 119 667 q 181 711 163 685 q 222 758 200 738 q 271 790 243 778 q 335 803 299 803 q 431 773 393 803 q 468 682 468 743 q 438 590 468 638 q 363 491 408 542 q 265 385 317 440 q 167 268 213 329 q 91 140 121 207 q 61 0 61 74 q 256 -3 158 0 q 450 -6 353 -6 q 552 -4 501 -6 q 654 0 603 -3 q 653 44 654 22 q 651 89 651 65 q 651 106 651 97 q 653 122 651 114 q 501 109 576 113 q 347 106 425 106 l 215 106 q 258 192 226 154 q 319 268 289 231 q 415 366 364 324 q 509 453 465 408 q 582 554 553 499 q 611 693 611 610 q 549 869 611 810 q 371 929 488 929 q 263 913 310 929 q 179 866 217 896 q 110 795 142 836 q 50 706 79 754 z "},"3":{"ha":729,"x_min":-24,"x_max":711,"o":"m 385 757 q 285 754 335 756 q 185 753 235 753 l 129 753 l 94 767 q 96 849 94 807 q 92 931 97 890 l 189 931 l 382 926 l 479 926 l 515 926 l 588 928 l 624 928 l 658 914 q 650 847 656 881 q 644 779 644 813 q 575 684 613 731 q 503 590 538 638 q 711 328 711 540 q 683 177 711 247 q 603 56 654 107 q 482 -26 551 4 q 331 -56 413 -56 q 267 -50 299 -56 q 207 -33 236 -44 q 128 3 160 -15 q 74 44 97 22 q 28 95 50 67 q -24 163 6 124 q 39 214 7 189 q 103 263 71 239 l 138 249 q 167 206 153 226 q 198 172 181 186 q 237 148 215 157 q 288 139 258 139 q 365 150 329 139 q 428 183 401 161 q 471 238 456 204 q 486 315 486 271 q 462 389 486 364 q 401 424 438 414 q 324 433 365 433 q 247 433 282 433 l 213 447 q 206 497 213 475 q 194 546 199 519 q 294 647 247 590 q 385 757 340 704 m 122 903 q 124 849 125 875 q 122 794 122 822 l 150 794 q 202 794 176 794 q 254 796 228 794 l 325 799 q 377 800 351 800 q 429 800 403 800 l 457 800 q 344 666 399 733 q 225 536 289 599 q 233 506 228 521 q 239 475 238 492 q 329 471 281 475 q 419 451 378 467 q 487 403 460 435 q 514 315 514 371 q 497 228 514 267 q 449 165 479 190 q 379 125 419 139 q 293 111 339 111 q 229 118 257 111 q 178 139 201 125 q 136 174 156 153 q 96 224 117 194 q 54 191 74 208 q 14 157 35 174 q 69 86 40 118 q 133 32 99 54 q 206 -2 167 10 q 296 -14 246 -14 q 435 13 371 -14 q 547 88 500 40 q 622 201 594 136 q 649 342 649 267 q 635 432 649 390 q 596 504 622 474 q 530 552 569 535 q 439 569 490 569 q 422 569 431 569 q 406 568 414 569 q 494 684 450 626 q 582 801 539 742 q 586 851 582 826 q 593 900 590 875 q 358 899 475 897 q 122 903 240 901 z "},"4":{"ha":767,"x_min":-25,"x_max":767,"o":"m 461 722 q 538 728 499 728 q 615 731 576 728 l 650 717 q 649 565 651 640 q 650 414 647 490 l 732 421 l 767 407 q 763 361 764 383 q 763 315 763 339 l 764 267 l 764 243 q 708 242 736 243 q 651 240 679 242 q 654 101 654 169 q 650 -39 654 32 l 607 -39 l 521 -42 l 478 -42 l 450 -42 l 415 -28 q 417 100 415 36 q 422 228 419 164 q 274 218 347 222 q 125 214 200 214 q 49 213 90 214 q -25 231 7 213 q -19 321 -25 275 q -15 411 -12 367 l -10 418 q 180 680 86 549 q 369 943 274 811 l 382 960 q 478 925 426 950 q 575 882 531 900 q 560 863 568 872 q 546 842 553 853 l 490 763 q 476 742 483 751 q 461 722 468 733 m 461 694 q 460 532 461 613 q 456 369 458 451 q 328 361 392 364 q 201 358 265 358 q 165 359 183 358 q 128 360 147 360 q 308 624 211 497 q 497 882 406 750 q 445 906 469 892 q 393 928 421 919 q 204 665 301 793 q 13 401 107 536 q 6 329 10 365 q 3 257 3 293 q 47 256 25 256 q 90 256 68 256 q 271 261 182 256 q 451 274 360 267 q 447 137 449 204 q 443 0 444 69 l 474 0 l 536 3 l 567 3 l 589 3 q 591 59 590 31 q 592 115 592 88 q 591 198 592 157 q 589 281 590 239 q 645 283 617 282 q 701 285 674 285 q 700 338 701 311 q 701 390 699 364 q 688 390 694 390 q 674 388 681 389 l 615 383 q 601 382 608 382 q 588 381 594 382 q 586 450 586 415 q 586 521 586 485 l 586 565 l 588 657 l 588 701 q 524 699 556 699 q 461 694 493 699 m 433 685 q 325 537 379 610 q 221 386 271 464 q 325 390 274 388 q 429 396 376 392 q 433 685 433 539 z "},"5":{"ha":749,"x_min":-3,"x_max":742,"o":"m 364 -56 q 293 -50 328 -56 q 226 -32 258 -44 q 149 4 179 -14 q 94 44 118 22 q 48 94 69 67 q -3 163 26 122 q 62 222 29 190 q 129 278 94 253 l 164 264 q 196 220 181 240 q 228 185 211 200 q 268 160 246 169 q 321 151 290 151 q 392 163 358 151 q 451 197 425 175 q 491 249 476 218 q 506 321 506 281 q 467 414 506 383 q 375 456 429 444 q 261 467 321 468 q 160 467 201 467 l 125 481 q 130 641 125 561 q 135 801 135 721 q 131 936 135 869 q 361 939 247 936 q 592 942 475 942 l 682 942 l 717 928 l 717 893 l 721 826 l 721 792 l 721 764 q 538 758 629 764 q 356 750 447 753 q 358 684 357 717 q 360 618 360 651 q 501 588 432 608 q 623 528 569 567 q 709 432 676 490 q 742 290 742 374 q 712 144 742 208 q 631 35 682 79 q 510 -33 579 -10 q 364 -56 442 -56 m 329 -14 q 465 7 401 -14 q 576 69 529 28 q 651 169 624 110 q 679 304 679 228 q 645 443 679 389 q 557 529 611 497 q 434 576 503 561 q 296 599 365 592 q 296 695 299 647 q 292 792 293 743 q 475 799 383 792 q 658 806 567 806 l 658 833 l 654 888 l 654 914 l 592 914 q 407 911 499 914 q 222 908 315 908 l 160 908 q 162 855 161 881 q 163 801 163 829 q 158 655 163 728 q 153 508 154 582 q 227 508 186 508 q 310 501 268 507 q 393 485 353 496 q 465 453 433 474 q 515 400 496 432 q 533 321 533 368 q 517 239 533 275 q 471 177 500 203 q 403 138 442 151 q 321 124 364 124 q 208 154 254 124 q 124 238 161 185 q 113 228 118 233 q 101 218 107 224 l 57 176 q 47 167 51 171 q 35 157 42 163 q 158 30 92 74 q 329 -14 225 -14 z "},"6":{"ha":742,"x_min":24,"x_max":717,"o":"m 379 972 q 567 928 481 972 q 706 796 653 883 l 717 778 q 651 715 683 746 q 588 649 618 685 l 553 663 q 533 705 543 685 q 508 741 522 725 q 474 766 493 757 q 426 775 454 775 q 358 753 386 775 q 310 697 329 731 q 281 626 292 664 q 265 556 269 588 q 330 577 297 569 q 397 585 363 585 q 528 558 469 585 q 627 483 586 531 q 690 374 668 436 q 711 243 711 313 q 693 124 711 179 q 640 30 675 69 q 553 -32 604 -10 q 435 -54 501 -54 q 353 -45 389 -54 q 276 -18 318 -36 q 154 72 203 13 q 76 204 106 131 q 35 358 47 278 q 24 510 24 439 q 41 681 24 597 q 99 828 58 764 q 208 933 140 893 q 379 972 276 972 m 647 796 q 535 908 603 872 q 379 944 467 944 q 220 908 283 944 q 119 810 157 871 q 67 670 82 749 q 51 510 51 592 q 68 336 51 428 q 124 167 85 244 q 231 38 164 89 q 400 -12 299 -12 q 508 8 461 -12 q 585 64 554 28 q 633 149 617 100 q 649 257 649 199 q 633 368 649 314 q 585 464 617 422 q 507 531 554 506 q 397 557 460 557 q 289 535 340 557 q 193 481 238 514 q 204 583 194 525 q 235 694 214 642 q 295 781 257 746 q 392 817 333 817 q 491 789 444 817 q 560 713 538 761 q 603 755 579 736 q 647 796 626 774 m 197 349 q 272 410 233 386 q 365 435 311 435 q 474 400 433 435 q 515 294 515 365 q 506 233 515 263 q 478 179 496 203 q 433 141 460 156 q 371 126 406 126 q 296 147 326 126 q 245 201 265 168 q 213 273 225 233 q 197 349 201 313 m 371 154 q 422 166 400 154 q 458 198 443 178 q 480 243 472 218 q 488 294 488 268 q 468 369 488 344 q 400 393 449 393 q 324 374 356 393 q 261 325 292 356 q 272 275 264 304 q 293 219 279 246 q 326 173 307 192 q 371 154 344 154 z "},"7":{"ha":624,"x_min":-26,"x_max":639,"o":"m -26 776 q -18 860 -19 818 q -17 944 -17 901 l 589 944 l 624 931 q 636 862 633 897 q 639 792 639 826 l 639 783 l 635 776 q 519 583 568 669 q 438 408 471 496 q 388 222 406 321 q 364 -4 369 124 l 363 -31 q 299 -33 331 -31 q 236 -36 268 -36 q 181 -28 208 -36 q 128 -10 153 -21 q 200 396 138 206 q 372 771 263 586 q 190 768 281 771 q 8 763 100 765 l -26 776 m 11 917 q 10 861 11 889 q 6 806 8 833 q 161 811 85 810 q 317 813 238 813 l 431 813 q 319 617 365 710 q 240 431 272 525 q 187 234 207 336 q 157 11 167 132 q 201 6 175 6 q 220 6 211 6 q 239 7 229 6 l 264 10 q 283 11 274 11 q 301 11 292 11 q 324 238 306 138 q 376 431 342 339 q 460 612 411 522 q 576 806 510 701 q 567 917 576 864 l 11 917 z "},"8":{"ha":810,"x_min":29,"x_max":779,"o":"m 389 972 q 531 946 464 972 q 613 906 576 928 q 676 853 650 883 q 717 783 703 822 q 731 690 731 743 q 707 577 731 629 q 633 489 683 525 q 740 383 700 453 q 779 239 779 314 q 745 108 779 164 q 658 17 711 53 q 538 -37 604 -19 q 406 -56 471 -56 q 272 -38 339 -56 q 151 15 204 -21 q 63 105 97 50 q 29 236 29 160 q 68 381 29 315 q 172 489 107 446 q 97 583 124 526 q 71 703 71 640 q 98 820 71 769 q 169 904 125 871 q 271 955 214 938 q 389 972 328 972 m 389 944 q 281 930 333 944 q 188 885 229 915 q 123 810 147 856 q 99 703 99 764 q 132 577 99 636 q 226 488 165 518 q 104 386 151 451 q 57 236 57 321 q 84 122 57 169 q 155 44 111 75 q 256 0 199 14 q 371 -14 313 -14 q 491 2 429 -14 q 603 51 553 18 q 685 135 653 85 q 717 253 717 185 q 703 333 717 293 q 665 408 689 374 q 606 466 640 442 q 532 499 572 490 q 633 578 599 524 q 668 704 668 633 q 645 809 668 764 q 584 885 622 854 q 495 930 546 915 q 389 944 444 944 m 385 538 q 281 575 318 538 q 243 679 243 613 q 284 784 243 746 q 392 822 325 822 q 491 792 450 822 q 532 697 532 761 q 522 635 532 664 q 494 585 513 607 q 447 550 475 563 q 385 538 419 538 m 504 697 q 485 759 504 738 q 426 781 467 781 q 338 751 371 781 q 306 665 306 722 q 316 611 306 638 q 351 568 326 585 q 368 566 360 567 q 385 565 376 565 q 474 603 444 565 q 504 697 504 642 m 571 286 q 554 208 571 244 q 510 146 538 172 q 444 105 482 119 q 365 90 407 90 q 301 102 331 90 q 249 135 271 114 q 215 185 228 156 q 203 250 203 214 q 218 327 203 293 q 260 385 233 361 q 322 422 286 408 q 400 435 358 435 q 464 425 433 435 q 518 397 494 415 q 556 350 542 378 q 571 286 571 322 m 543 286 q 513 365 543 336 q 435 393 483 393 q 315 352 364 393 q 265 236 265 311 q 272 192 265 214 q 290 154 278 171 q 322 128 303 138 q 365 118 340 118 q 433 131 400 118 q 490 165 465 143 q 528 219 514 188 q 543 286 543 250 z "},"9":{"ha":743,"x_min":24,"x_max":718,"o":"m 24 142 q 85 200 57 171 q 151 254 114 229 l 186 240 q 206 201 196 219 q 228 169 215 182 q 260 148 242 156 q 304 140 278 140 q 374 163 344 140 q 424 218 404 185 q 456 290 444 251 q 474 363 468 329 q 325 333 403 333 q 249 342 281 333 q 176 367 217 350 q 106 411 135 383 q 61 474 78 439 q 37 549 44 508 q 29 631 29 589 q 49 762 29 700 q 106 871 68 824 q 201 945 144 918 q 331 972 257 972 q 409 963 374 972 q 483 938 444 953 q 597 853 551 908 q 669 728 642 797 q 707 585 696 660 q 718 444 718 511 q 700 268 718 357 q 640 108 682 179 q 527 -9 597 36 q 353 -54 457 -54 q 160 -3 244 -54 q 24 142 76 49 m 58 136 q 318 -12 144 -12 q 481 31 415 -12 q 585 141 546 74 q 640 292 624 208 q 656 458 656 376 q 640 620 656 535 q 588 778 625 706 q 489 897 551 850 q 331 944 426 944 q 211 919 263 944 q 126 850 160 893 q 74 750 92 807 q 57 631 57 693 q 113 445 57 515 q 290 375 169 375 q 408 395 351 375 q 513 451 464 415 q 499 347 510 406 q 465 237 488 289 q 403 149 442 185 q 304 113 364 113 q 208 139 253 113 q 140 213 163 165 q 98 176 117 196 q 58 136 79 156 m 508 583 q 433 522 472 546 q 340 497 394 497 q 231 533 271 497 q 190 639 190 568 q 200 701 190 671 q 228 756 210 732 q 275 793 247 779 q 338 807 303 807 q 411 785 381 807 q 462 731 442 764 q 493 658 482 697 q 508 583 504 618 m 479 593 q 469 642 476 613 q 448 699 461 672 q 416 746 435 726 q 372 765 397 765 q 321 753 343 765 q 283 722 299 742 q 260 676 268 701 q 253 625 253 651 q 263 571 253 601 q 297 529 272 540 q 318 526 303 526 q 340 525 333 525 q 417 544 385 525 q 479 593 449 563 z "}," ":{"ha":514,"x_min":0,"x_max":0,"o":""},"A":{"ha":853,"x_min":-43,"x_max":894,"o":"m -43 -28 q 75 310 13 143 q 196 646 138 476 q 234 754 215 700 q 269 864 253 808 q 276 888 272 874 q 285 918 281 903 q 294 948 289 933 q 304 971 299 963 q 340 999 319 996 q 388 1003 361 1003 l 417 1003 l 476 1000 l 506 1000 l 540 986 q 577 906 557 954 q 616 803 597 857 q 652 699 635 750 q 682 610 669 647 q 789 291 736 450 q 894 -28 842 132 q 820 -31 857 -28 q 746 -35 783 -35 q 695 -25 717 -35 q 647 -7 674 -15 q 605 118 626 56 q 563 244 583 181 q 425 237 493 240 q 288 231 357 233 q 272 174 281 210 q 254 102 264 139 q 235 33 244 65 q 218 -15 225 1 q 201 -32 213 -26 q 156 -42 182 -40 q 111 -43 131 -43 l 81 -43 l 22 -42 l -8 -42 l -43 -28 m 76 -1 q 93 -1 81 -1 q 119 -1 106 -1 q 144 3 133 0 q 158 11 156 6 q 172 51 161 15 q 194 131 182 88 q 217 216 206 175 q 232 271 228 257 q 404 278 319 275 q 576 289 489 282 q 588 256 583 272 q 600 221 593 239 l 646 83 q 658 49 653 67 q 669 14 664 32 q 690 8 679 10 q 711 7 700 7 q 766 10 739 7 q 821 14 793 14 q 738 254 778 133 q 659 495 699 375 q 577 735 619 615 q 488 972 535 854 l 463 972 l 413 975 l 388 975 q 356 974 376 975 q 329 960 336 972 q 311 908 318 936 q 296 854 304 879 q 260 745 278 800 q 222 636 242 690 q 109 318 167 476 q -4 0 51 160 l 76 -1 m 268 390 q 337 610 301 501 q 407 831 372 719 q 468 622 436 725 q 535 414 500 518 q 401 401 468 407 q 268 390 335 396 m 497 439 q 460 555 478 497 q 425 671 442 613 q 386 548 406 608 q 347 425 367 488 q 422 431 385 428 q 497 439 460 435 z "},"l":{"ha":297,"x_min":33,"x_max":268,"o":"m 43 1026 q 138 1037 92 1036 q 233 1040 185 1038 l 268 1026 q 263 667 268 844 q 257 307 257 489 q 259 137 257 221 q 264 -33 261 53 l 71 -42 l 36 -28 q 40 358 33 167 q 46 743 46 549 q 46 885 46 814 q 43 1026 46 956 m 81 1003 q 77 501 86 751 q 64 0 68 251 q 135 1 100 0 q 207 1 171 3 q 212 151 211 76 q 213 300 213 225 q 209 656 213 479 q 206 1011 206 832 q 143 1008 174 1008 q 81 1003 113 1007 z "},"v":{"ha":747,"x_min":-53,"x_max":799,"o":"m 88 736 q 142 733 119 736 q 193 717 164 731 l 200 701 q 284 472 247 589 q 365 240 321 356 l 367 244 q 454 486 413 365 q 549 725 496 607 q 601 721 576 722 q 654 719 626 719 l 728 722 l 764 722 l 799 708 q 679 432 732 571 q 568 153 626 293 q 558 128 563 140 q 547 104 553 117 l 506 7 q 495 -17 500 -6 q 485 -42 490 -29 l 453 -42 l 388 -46 l 356 -46 q 297 -37 326 -46 q 250 -1 268 -28 q 222 49 238 18 q 192 115 207 81 q 165 183 178 150 q 142 240 151 217 q 40 485 89 363 q -53 733 -8 607 l -18 733 l 53 736 l 88 736 m -14 706 q 4 656 -10 692 q 38 569 18 619 q 82 458 58 518 q 131 336 106 397 q 180 217 156 275 q 224 114 204 160 q 259 38 244 68 q 279 4 274 8 q 299 -3 286 -3 q 321 -4 313 -4 l 349 -4 l 404 0 l 432 0 q 506 172 471 85 q 574 347 540 260 q 642 522 607 435 q 719 694 678 610 l 694 694 l 643 692 l 618 692 q 592 692 606 692 q 567 694 579 692 q 459 412 508 554 q 349 131 410 269 q 242 417 290 274 q 139 706 193 561 q 113 708 126 708 q 88 708 100 708 l 63 708 l 11 706 l -14 706 z "},"i":{"ha":303,"x_min":35,"x_max":268,"o":"m 160 1026 q 195 1019 178 1026 q 226 1000 213 1013 q 248 970 240 988 q 256 933 256 953 q 248 894 256 914 q 226 859 240 875 q 195 833 213 843 q 157 822 178 822 q 111 838 133 822 q 58 872 75 842 q 42 935 42 903 q 63 1006 42 972 q 125 1040 83 1040 l 160 1026 m 193 947 q 173 993 193 974 q 125 1013 153 1013 q 83 986 96 1013 q 69 935 69 960 q 82 888 69 911 q 122 864 94 864 q 149 872 136 864 q 172 892 163 879 q 188 919 182 904 q 193 947 193 933 m 38 714 q 131 725 83 722 q 226 731 179 728 l 261 717 q 265 440 261 578 q 268 163 268 301 q 267 61 268 113 q 264 -40 267 10 l 231 -40 l 163 -44 q 128 -44 143 -44 q 98 -42 113 -44 q 69 -35 83 -40 q 36 -22 54 -31 q 40 201 35 90 q 44 425 44 313 q 43 569 44 497 q 38 714 42 642 m 67 690 q 71 558 69 624 q 72 425 72 492 q 69 213 72 318 q 64 0 67 107 q 90 -3 78 -3 q 118 -3 103 -3 l 168 1 l 192 1 l 203 1 q 205 89 204 46 q 206 176 206 132 q 202 439 206 308 q 199 701 199 569 q 133 697 165 699 q 67 690 100 696 z "},"d":{"ha":767,"x_min":24,"x_max":732,"o":"m 501 1040 q 556 1039 526 1039 q 615 1038 586 1039 q 672 1031 644 1036 q 724 1014 700 1025 q 719 877 721 944 q 717 740 717 810 q 724 363 717 550 q 732 -14 732 176 l 732 -42 q 635 -43 683 -42 q 539 -47 588 -44 l 504 -33 l 503 -7 q 434 -43 471 -31 q 357 -56 397 -56 q 267 -39 310 -56 l 232 -25 q 137 44 176 -3 q 72 149 97 92 q 35 269 47 207 q 24 388 24 332 q 40 517 24 454 q 92 628 57 579 q 182 707 128 678 q 311 736 236 736 q 356 732 332 736 q 406 721 381 728 q 453 704 431 714 q 493 683 476 694 q 501 1040 493 861 m 660 1004 q 594 1008 626 1008 q 528 1011 561 1008 q 522 814 522 911 q 521 617 521 717 q 419 683 476 658 q 300 707 363 707 q 188 677 232 707 q 119 601 144 647 q 83 496 93 554 q 74 382 74 438 q 85 254 74 324 q 124 126 96 185 q 200 26 151 67 q 322 -14 249 -14 q 531 94 453 -14 l 531 71 q 530 33 531 51 q 531 -4 529 15 q 600 -1 565 -3 q 669 0 635 0 q 660 377 667 190 q 654 754 654 564 q 655 879 654 817 q 660 1004 656 942 m 524 271 q 492 222 511 247 q 449 177 472 197 q 398 144 425 157 q 342 131 371 131 q 275 150 303 131 q 229 200 247 169 q 202 267 211 231 q 193 335 193 303 q 203 410 193 369 q 233 486 213 451 q 285 544 254 521 q 357 568 315 568 q 406 559 382 568 q 450 535 429 550 q 489 501 471 519 q 521 464 507 482 q 522 440 521 453 q 522 415 522 428 l 522 319 q 523 295 522 307 q 524 271 524 283 m 342 158 q 388 169 365 158 q 431 199 411 181 q 468 238 451 217 q 496 278 485 258 q 495 366 496 322 q 493 454 494 410 q 449 502 476 478 q 392 526 422 526 q 331 505 357 526 q 289 452 306 483 q 264 385 272 421 q 256 321 256 350 q 261 277 256 304 q 278 224 267 250 q 305 178 289 197 q 342 158 321 158 z "},"e":{"ha":715,"x_min":24,"x_max":704,"o":"m 364 736 q 534 702 468 736 q 637 610 600 668 q 687 472 674 551 q 700 303 700 393 l 700 279 q 497 248 599 260 q 294 218 396 236 q 327 165 304 190 q 382 140 350 140 q 474 167 443 140 q 531 244 506 194 q 570 225 542 243 q 628 185 599 207 q 681 142 658 163 q 704 114 704 121 q 697 93 704 103 q 583 -17 654 21 q 429 -56 513 -56 q 294 -31 358 -56 l 260 -17 q 156 51 200 8 q 82 147 111 93 q 38 261 53 200 q 24 385 24 322 q 46 531 24 465 q 111 642 68 596 q 218 712 154 688 q 364 736 282 736 m 638 317 q 628 463 636 392 q 594 588 621 533 q 513 676 567 643 q 364 708 458 708 q 131 622 211 708 q 51 385 51 535 q 74 235 51 307 q 139 108 96 164 q 247 19 182 53 q 394 -14 311 -14 q 513 10 458 -14 q 610 82 568 33 q 615 89 611 83 q 624 101 619 94 q 633 113 629 107 q 638 119 638 118 q 625 139 638 128 q 596 162 613 150 q 563 183 579 174 q 539 200 546 193 q 474 134 517 156 q 382 113 431 113 q 276 151 313 113 q 224 253 240 190 q 431 287 328 274 q 638 317 533 300 m 213 374 q 225 447 217 411 q 251 510 233 482 q 297 556 268 539 q 371 574 326 574 q 476 528 444 574 q 506 415 507 483 q 359 395 432 401 q 213 374 286 389 m 478 439 q 460 502 475 472 q 406 532 444 532 q 322 499 350 532 q 285 414 294 465 q 381 426 333 421 q 478 439 429 431 z "},"n":{"ha":774,"x_min":35,"x_max":744,"o":"m 44 717 q 138 726 90 725 q 232 732 185 728 l 267 718 l 267 689 q 417 735 333 735 q 588 701 524 735 q 685 611 651 668 q 728 476 718 554 q 738 310 738 399 q 741 148 738 228 q 744 -14 744 68 l 744 -42 q 664 -40 704 -42 q 583 -37 624 -37 q 554 -38 568 -37 q 526 -40 540 -39 l 492 -26 q 488 63 489 18 q 486 153 486 108 q 488 202 486 168 q 488 278 489 236 q 485 364 488 319 q 474 445 482 408 q 451 506 465 482 q 413 529 436 529 q 371 515 392 529 q 331 481 350 501 q 297 440 313 461 q 271 404 281 418 q 274 182 274 293 q 267 -40 274 71 l 236 -40 l 174 -43 q 140 -43 154 -43 q 115 -41 126 -43 q 90 -35 103 -39 q 60 -24 78 -31 l 58 -22 q 41 -10 47 -19 q 35 10 35 -1 q 42 267 35 140 q 50 525 50 394 q 49 621 50 574 q 44 717 47 668 m 74 693 q 78 525 78 610 q 70 267 78 394 q 63 10 63 140 q 69 3 63 6 q 83 0 75 1 q 99 -1 92 -1 q 107 -1 106 -1 l 129 -1 l 174 1 l 196 1 l 206 1 q 210 286 210 143 q 210 356 210 321 q 208 426 210 390 q 242 472 224 447 q 281 519 260 497 q 328 556 303 542 q 382 571 353 571 q 456 540 429 571 q 497 465 483 508 q 513 373 510 421 q 517 292 517 325 q 516 147 517 218 q 518 3 515 76 q 601 3 560 6 q 685 0 643 0 q 681 160 685 81 q 678 319 678 239 q 669 452 678 383 q 635 578 661 521 q 559 671 608 635 q 428 707 510 707 q 302 678 351 707 q 206 590 253 649 l 206 618 l 204 674 l 204 701 q 139 697 172 697 q 74 693 106 697 z "},"o":{"ha":778,"x_min":24,"x_max":753,"o":"m 365 736 q 492 713 429 736 l 526 699 q 624 638 582 676 q 695 551 667 600 q 738 446 724 501 q 753 332 753 390 q 728 185 753 256 q 658 62 704 115 q 548 -24 613 8 q 403 -56 483 -56 q 279 -32 336 -56 l 244 -18 q 148 42 189 4 q 79 129 107 81 q 38 234 51 178 q 24 347 24 290 q 47 492 24 422 q 113 617 69 563 q 221 703 157 671 q 365 736 285 736 m 365 708 q 232 678 290 708 q 133 597 174 647 q 72 482 93 547 q 51 347 51 417 q 73 213 51 278 q 135 97 94 147 q 234 17 175 47 q 368 -14 293 -14 q 503 16 443 -14 q 604 96 563 46 q 668 210 646 146 q 690 346 690 275 q 667 482 690 417 q 603 598 644 547 q 501 678 561 649 q 365 708 440 708 m 546 367 q 535 284 546 326 q 501 208 524 242 q 443 152 478 174 q 363 131 408 131 q 290 146 321 131 q 238 187 258 161 q 206 247 217 213 q 196 318 196 281 q 208 402 196 358 q 245 482 221 446 q 305 542 269 518 q 386 565 340 565 q 458 549 428 565 q 508 503 489 532 q 537 440 528 475 q 546 367 546 404 m 518 367 q 514 416 518 389 q 499 467 510 443 q 469 508 488 492 q 421 524 450 524 q 351 502 381 524 q 300 448 321 481 q 269 376 279 415 q 258 304 258 338 q 264 253 258 279 q 281 207 269 228 q 313 172 293 186 q 363 158 333 158 q 432 178 403 158 q 481 228 461 197 q 509 295 500 258 q 518 367 518 332 z "},"u":{"ha":739,"x_min":29,"x_max":710,"o":"m 675 736 l 710 722 q 699 445 703 583 q 696 168 696 307 l 699 40 l 699 -24 q 605 -32 651 -29 q 511 -37 558 -35 l 476 -24 l 476 -1 q 406 -33 443 -24 q 328 -42 368 -42 q 256 -33 286 -42 q 188 -10 225 -25 q 101 59 132 13 q 53 162 69 106 q 34 278 38 218 q 31 390 31 339 l 31 468 l 29 624 l 29 701 l 29 729 l 128 729 q 177 729 153 729 q 225 731 201 729 l 260 717 q 264 606 263 661 q 265 494 265 550 l 261 404 l 261 360 q 260 310 261 343 q 265 244 260 276 q 284 188 271 213 q 325 164 297 164 q 373 178 351 164 q 413 213 394 192 q 447 257 432 233 q 474 300 461 281 q 470 517 471 408 q 476 735 469 626 l 519 735 l 603 736 l 646 736 l 675 736 m 636 15 q 634 131 635 74 q 633 246 633 188 q 637 477 633 363 q 646 708 640 592 q 574 707 610 708 q 503 707 539 706 q 501 599 501 653 q 500 490 500 544 q 500 391 500 440 q 501 292 500 342 q 469 241 486 268 q 430 190 451 214 q 383 151 408 167 q 325 136 357 136 q 256 161 281 136 q 218 222 231 186 q 202 300 206 258 q 199 374 199 342 l 199 418 l 203 508 q 202 605 203 557 q 199 701 201 653 q 128 700 163 699 q 57 701 93 701 l 57 624 l 58 468 l 58 390 q 64 256 58 325 q 92 131 69 188 q 163 37 115 74 q 293 0 210 0 q 414 28 367 0 q 504 114 461 56 l 504 6 q 570 9 538 7 q 636 15 603 11 z "},"m":{"ha":1169,"x_min":35,"x_max":1140,"o":"m 904 172 q 908 310 904 239 q 899 447 913 381 q 892 474 896 461 q 883 495 889 486 q 868 509 878 504 q 842 514 858 514 q 793 501 815 514 q 752 468 771 488 q 717 426 733 449 q 686 385 700 403 q 691 192 686 288 q 696 -1 696 96 l 696 -29 q 603 -28 650 -29 q 511 -31 557 -28 l 476 -17 q 472 106 474 46 q 471 229 471 167 q 472 267 471 240 q 472 327 472 294 q 469 395 472 360 q 461 460 467 431 q 444 509 456 490 q 417 528 433 528 q 370 515 392 528 q 331 482 349 501 q 297 440 313 463 q 271 399 282 417 q 274 180 274 290 q 268 -39 275 69 l 225 -39 l 142 -42 l 99 -42 l 71 -42 l 36 -28 q 40 341 35 158 q 46 710 46 524 q 81 715 64 713 q 117 721 99 718 l 163 725 q 198 731 181 728 q 233 736 215 733 l 268 722 l 268 682 q 446 736 344 736 q 501 731 472 736 q 558 713 531 725 q 609 684 586 701 q 644 642 632 667 q 738 703 689 685 q 849 722 786 722 q 921 714 890 722 q 989 690 951 706 q 1071 628 1042 668 q 1114 538 1100 588 q 1131 433 1128 488 q 1133 331 1133 379 q 1137 160 1133 244 q 1140 -10 1140 76 l 1140 -37 l 1043 -37 q 994 -37 1019 -37 q 944 -39 969 -37 l 910 -25 q 906 74 907 24 q 904 172 904 124 m 74 686 q 70 343 74 513 q 64 0 67 174 l 94 0 l 154 3 l 185 3 l 207 3 q 209 112 208 57 q 210 221 210 167 q 210 321 210 271 q 208 421 210 371 q 240 469 222 443 q 279 518 258 496 q 326 555 300 540 q 382 569 351 569 q 449 545 425 569 q 484 485 474 521 q 497 410 494 450 q 499 339 499 371 q 499 176 499 256 q 503 13 499 96 q 568 14 535 15 q 633 13 601 13 q 628 208 633 111 q 624 404 624 306 l 624 407 q 659 457 640 431 q 700 505 678 483 q 749 541 722 526 q 807 556 775 556 q 878 537 853 556 q 917 488 904 518 q 932 421 929 458 q 935 347 935 383 q 933 176 935 260 q 936 4 932 92 q 1007 6 972 7 q 1078 4 1042 4 q 1074 174 1078 90 q 1071 344 1071 258 q 1065 469 1071 407 q 1038 582 1060 532 q 972 663 1017 632 q 849 694 928 694 q 713 660 765 694 q 613 561 660 626 q 562 673 599 638 q 446 708 525 708 q 311 676 368 708 q 206 586 254 644 l 206 701 q 140 692 174 694 q 74 686 107 690 z "},"r":{"ha":604,"x_min":35,"x_max":650,"o":"m 35 -28 q 42 330 35 153 q 50 688 50 507 q 74 715 50 706 q 128 727 97 724 q 188 731 158 731 q 231 731 218 731 l 265 717 l 265 681 q 432 735 338 735 q 583 684 531 735 q 650 538 635 633 q 569 469 614 500 q 483 406 524 438 l 449 419 q 443 447 446 429 q 436 483 440 464 q 426 517 432 501 q 414 540 421 533 q 371 513 393 535 q 328 464 349 492 q 290 407 307 436 q 263 360 272 378 l 263 342 l 261 304 l 261 285 l 261 181 q 263 70 261 125 q 269 -40 264 15 l 226 -40 l 140 -42 l 97 -42 l 69 -42 l 35 -28 m 78 688 q 70 344 78 514 q 63 0 63 174 q 133 1 99 0 q 204 1 168 3 q 199 103 200 53 q 199 204 199 153 l 199 249 l 200 336 l 200 381 q 231 435 211 401 q 276 503 251 469 q 331 560 301 536 q 389 583 360 583 q 423 572 410 583 q 445 542 436 560 q 460 505 454 525 q 468 469 465 485 q 527 514 497 493 q 585 561 557 535 q 567 626 576 599 q 540 671 557 653 q 497 698 524 689 q 428 707 469 707 q 299 670 353 707 q 203 575 246 633 l 203 701 q 144 700 175 700 q 86 693 113 700 q 81 692 85 693 q 78 688 78 690 z "},"h":{"ha":767,"x_min":35,"x_max":738,"o":"m 35 1028 q 135 1038 85 1038 q 238 1040 186 1038 l 272 1026 q 274 857 272 942 q 276 688 275 772 q 361 726 317 714 q 453 738 406 738 q 524 729 493 738 q 593 706 556 721 q 675 642 646 683 q 718 551 704 601 q 735 445 732 500 q 738 342 738 390 q 734 150 738 246 q 731 -42 731 54 l 633 -42 q 585 -42 610 -42 q 535 -43 560 -42 l 500 -29 q 494 135 496 54 q 493 300 493 217 q 491 353 493 315 q 482 430 489 390 q 462 499 475 469 q 426 529 449 529 q 382 516 403 529 q 342 483 361 503 q 308 442 324 464 q 281 404 293 421 q 279 181 281 292 q 271 -43 278 69 l 222 -43 l 124 -42 l 75 -42 l 40 -28 q 41 206 39 90 q 43 440 43 322 q 44 734 43 588 q 35 1028 44 881 m 64 1004 q 70 723 69 863 q 71 440 71 583 q 71 221 71 331 q 68 0 71 111 q 139 0 104 0 q 210 -1 174 0 q 217 213 215 107 q 218 428 218 319 q 251 472 232 447 q 292 519 269 497 q 339 556 314 540 q 392 571 364 571 q 463 540 438 571 q 502 467 489 510 q 518 378 515 425 q 521 300 521 332 q 522 150 521 225 q 526 0 524 75 q 597 1 563 3 q 668 0 632 0 q 672 178 668 89 q 675 356 675 267 q 670 481 675 418 q 644 595 665 544 q 577 678 622 646 q 453 710 532 710 q 321 681 376 710 q 217 594 265 653 l 213 803 q 210 907 211 856 q 210 1011 210 958 q 137 1009 174 1008 q 64 1004 100 1010 z "},"j":{"ha":318,"x_min":-207,"x_max":283,"o":"m 169 1026 q 205 1019 188 1026 q 236 1000 222 1013 q 258 970 250 988 q 265 933 265 953 q 258 894 265 914 q 236 859 250 875 q 205 833 222 843 q 167 822 188 822 q 121 838 143 822 q 68 872 85 842 q 51 935 51 903 q 72 1006 51 972 q 135 1040 93 1040 l 169 1026 m 203 947 q 183 993 203 974 q 135 1013 163 1013 q 92 986 106 1013 q 79 935 79 960 q 92 888 79 911 q 132 864 104 864 q 159 872 146 864 q 182 892 172 879 q 197 919 192 904 q 203 947 203 933 m 51 717 q 144 727 96 726 q 238 731 192 728 l 272 717 q 283 362 283 539 q 282 7 282 185 q 276 -121 282 -56 q 248 -240 271 -186 q 179 -327 225 -293 q 53 -361 133 -361 q -92 -323 -26 -361 q -207 -225 -158 -285 q -148 -167 -179 -193 q -86 -111 -117 -140 l -51 -125 q -39 -141 -47 -131 q -22 -162 -31 -151 q -4 -180 -12 -172 q 10 -187 4 -187 q 28 -169 22 -187 q 38 -127 35 -151 q 42 -80 42 -103 q 43 -49 43 -57 q 47 302 43 128 q 51 654 51 476 l 51 717 m 69 22 q 71 -35 69 4 q 68 -115 72 -75 q 51 -186 64 -156 q 10 -217 38 -217 q -45 -194 -18 -217 q -89 -151 -72 -172 q -131 -187 -110 -171 q -171 -225 -151 -203 q -87 -294 -132 -269 q 18 -319 -42 -319 q 132 -287 92 -319 q 192 -204 172 -254 q 215 -94 211 -154 q 219 21 219 -35 q 218 361 219 192 q 211 701 217 531 q 145 698 178 699 q 79 693 113 697 q 75 358 81 525 q 69 22 69 190 z "},"f":{"ha":483,"x_min":-24,"x_max":561,"o":"m 444 815 q 408 825 424 815 q 381 846 393 835 q 360 867 369 857 q 343 876 351 876 q 307 856 319 876 q 290 806 294 835 q 284 749 285 778 q 283 704 283 721 l 283 679 l 481 686 l 515 672 q 511 611 511 643 q 513 556 511 583 q 510 501 514 529 l 285 497 q 278 260 282 378 q 274 22 274 142 l 274 -35 q 181 -44 228 -43 q 86 -47 133 -44 l 51 -33 q 49 231 53 100 q 44 494 44 361 l 11 494 l -24 508 q -22 589 -24 549 q -24 669 -21 629 l 44 671 q 45 763 44 717 q 52 852 46 810 q 73 931 58 894 q 115 995 88 968 q 183 1038 142 1022 q 286 1053 225 1053 q 439 1017 374 1053 q 561 917 504 982 q 537 892 553 908 q 503 858 521 875 q 470 828 486 840 q 444 815 454 815 m 221 718 q 222 775 221 740 q 231 841 224 810 q 257 895 239 872 q 308 918 275 918 q 347 908 329 918 q 378 888 364 899 q 400 867 392 876 q 410 857 408 857 q 424 867 413 857 q 448 892 435 878 q 472 917 461 906 q 488 933 483 929 q 286 1025 408 1025 q 153 990 197 1025 q 90 899 108 954 q 72 775 72 843 q 72 643 72 707 l 6 642 q 6 589 7 615 q 4 536 4 563 l 72 538 q 74 267 72 401 q 79 -4 76 132 q 145 -1 113 -1 q 211 3 178 -1 q 215 271 210 138 q 222 539 221 404 l 450 543 q 451 552 451 547 q 451 561 451 557 q 450 594 451 578 q 449 625 449 610 q 449 641 449 633 q 450 657 449 649 l 221 649 l 221 718 z "},"t":{"ha":506,"x_min":-31,"x_max":549,"o":"m 304 136 q 353 157 332 139 q 392 196 375 175 q 476 148 438 181 q 549 83 514 115 q 497 28 522 53 q 442 -12 471 4 q 381 -37 414 -29 q 304 -46 347 -46 q 233 -37 263 -46 q 165 -14 203 -29 q 90 42 117 6 q 52 122 64 78 q 38 215 40 167 q 36 308 36 264 l 36 356 l 38 449 l 38 496 l 6 496 l -29 510 l -29 532 l -31 575 q -29 623 -31 599 q -25 671 -28 647 q 9 671 -8 671 q 43 672 26 671 q 45 835 44 754 q 46 999 46 917 q 100 997 71 997 q 159 996 129 997 q 217 989 189 994 q 268 972 246 983 q 269 824 268 897 q 271 675 269 750 q 367 678 319 676 q 464 683 415 681 l 499 669 q 503 599 499 633 q 507 528 507 564 l 507 500 l 275 497 q 274 415 275 468 q 276 307 274 363 q 284 203 278 251 q 304 136 290 154 m 297 108 q 247 135 264 108 q 222 200 229 163 q 215 276 215 238 q 215 338 215 315 q 215 438 215 388 q 213 539 214 489 l 444 542 q 440 594 444 568 q 436 646 436 619 l 436 654 q 210 646 324 649 q 206 894 206 771 l 206 963 q 140 967 172 967 q 74 969 107 967 q 69 644 74 807 l 51 644 l 18 643 l 0 643 q -2 613 -1 628 q -3 582 -3 597 l -1 553 l -1 538 l 67 538 q 65 423 65 479 q 64 308 64 367 q 68 194 64 250 q 92 94 72 138 q 153 23 113 50 q 269 -4 194 -4 q 384 21 336 -4 q 475 94 432 46 q 438 129 456 113 q 397 160 421 146 q 352 124 379 139 q 297 108 325 108 z "},"c":{"ha":654,"x_min":24,"x_max":696,"o":"m 494 485 q 463 524 476 508 q 417 539 449 539 q 347 517 375 539 q 299 463 318 496 q 272 392 281 431 q 264 319 264 354 q 270 260 264 290 q 290 205 276 229 q 328 165 304 181 q 386 149 351 149 q 448 161 424 149 q 490 188 472 174 q 520 215 507 203 q 547 228 533 228 q 585 215 564 228 q 626 185 606 203 q 664 149 646 167 q 696 119 682 131 q 576 -11 646 33 q 404 -56 506 -56 q 335 -50 369 -56 q 269 -32 301 -44 l 235 -18 q 138 47 178 6 q 72 139 97 88 q 35 248 47 190 q 24 364 24 306 q 46 516 24 447 q 113 634 68 585 q 223 710 157 683 q 376 736 289 736 q 532 706 456 736 q 657 610 608 676 l 674 588 q 598 533 633 560 q 529 471 563 507 l 494 485 m 496 528 q 546 571 519 553 q 600 608 572 589 q 501 687 560 665 q 376 708 443 708 q 235 684 296 708 q 133 615 174 660 q 72 506 93 569 q 51 364 51 443 q 70 220 51 289 q 128 99 89 151 q 226 17 167 47 q 369 -14 286 -14 q 625 128 535 -14 q 608 144 621 132 q 582 169 596 156 q 556 192 568 182 q 540 203 543 203 q 533 197 535 203 q 529 189 532 192 q 493 154 517 171 q 442 129 469 138 q 386 121 414 121 q 304 138 339 121 q 247 183 269 154 q 213 251 224 213 q 201 333 201 290 q 212 417 201 374 q 244 497 222 461 q 301 557 267 533 q 382 581 335 581 q 445 568 417 581 q 496 528 474 556 z "},"q":{"ha":767,"x_min":24,"x_max":731,"o":"m 313 736 q 412 718 361 736 q 504 675 463 700 l 504 701 q 594 715 549 710 q 686 724 640 721 l 721 710 q 726 272 721 490 q 731 -165 731 54 q 731 -262 731 -214 q 728 -358 731 -310 l 685 -358 l 600 -360 l 557 -360 l 528 -360 l 493 -346 l 500 -178 q 504 -8 504 -94 q 363 -56 440 -56 q 269 -37 317 -56 l 235 -24 q 140 43 179 -1 q 74 143 100 88 q 36 260 49 199 q 24 376 24 321 q 41 506 24 442 q 94 622 58 571 q 184 704 129 672 q 313 736 239 736 m 532 604 q 433 678 486 649 q 313 708 379 708 q 195 678 244 708 q 114 601 146 649 q 67 495 82 554 q 51 376 51 436 q 67 247 51 315 q 117 121 83 179 q 203 24 151 63 q 328 -14 256 -14 q 447 23 399 -14 q 533 114 496 60 q 531 -102 532 6 q 522 -318 529 -210 q 594 -317 558 -318 q 667 -317 631 -315 q 668 -234 668 -275 q 668 -151 668 -193 q 663 272 668 61 q 658 694 658 482 q 595 687 626 692 q 532 678 564 682 l 532 604 m 533 289 q 494 237 518 264 q 440 187 469 210 q 378 149 410 164 q 315 133 346 133 q 257 152 279 133 q 221 199 235 171 q 202 261 207 228 q 197 322 197 294 q 206 398 197 356 q 232 478 214 440 q 279 542 250 517 q 350 568 308 568 q 404 556 378 568 q 455 524 431 543 q 499 482 479 506 q 533 438 519 458 l 533 289 m 506 429 q 483 458 497 442 q 453 490 469 475 q 419 516 436 506 q 385 526 401 526 q 326 503 350 526 q 288 444 303 479 q 267 372 274 410 q 260 308 260 335 q 263 274 260 299 q 274 225 267 250 q 291 181 281 200 q 315 161 301 161 q 368 175 340 161 q 422 210 396 189 q 470 254 449 231 q 506 297 492 278 l 506 429 z "},"b":{"ha":775,"x_min":33,"x_max":750,"o":"m 46 1000 q 67 1031 46 1025 q 108 1038 89 1038 l 129 1038 l 169 1035 l 190 1035 l 201 1035 l 222 1036 l 232 1036 l 267 1022 q 272 859 271 940 q 274 696 272 778 q 343 726 306 717 q 419 736 381 736 q 528 717 479 736 l 563 703 q 651 642 615 682 q 709 553 688 603 q 740 449 731 504 q 750 343 750 394 q 735 208 750 278 q 685 79 719 138 q 597 -17 651 21 q 467 -56 543 -56 q 417 -51 443 -56 q 365 -37 390 -46 q 314 -17 339 -28 q 271 7 289 -6 l 268 -46 q 169 -42 219 -43 q 71 -42 119 -42 l 36 -28 q 42 367 33 171 q 51 761 51 563 q 49 881 51 821 q 46 1000 46 940 m 74 1000 q 76 881 74 940 q 79 761 79 821 q 73 381 79 569 q 64 0 67 192 q 135 -1 100 0 q 207 -3 171 -1 q 209 42 208 19 q 210 86 210 64 q 312 15 256 44 q 432 -14 368 -14 q 551 22 503 -14 q 630 114 600 58 q 674 234 660 169 q 688 357 688 299 q 674 483 688 421 q 628 596 660 546 q 544 677 596 646 q 419 708 493 708 q 301 680 351 708 q 213 597 251 651 q 210 802 211 700 q 206 1007 208 904 q 157 1008 182 1006 q 108 1010 132 1010 q 101 1010 107 1010 q 90 1009 96 1010 q 78 1006 83 1008 q 74 1000 74 1004 m 211 232 q 213 331 213 282 q 213 431 213 381 q 249 479 226 456 q 299 522 272 503 q 356 552 326 540 q 415 564 386 564 q 479 548 454 564 q 517 506 504 532 q 535 449 531 481 q 540 383 540 417 q 535 307 540 351 q 513 222 529 263 q 470 153 497 182 q 400 125 443 125 q 350 135 376 125 q 297 161 324 146 q 248 196 271 176 q 211 232 225 215 m 400 153 q 457 179 435 153 q 492 242 479 206 q 508 318 504 279 q 513 383 513 357 q 511 422 513 399 q 503 468 510 446 q 485 506 497 490 q 450 522 472 522 q 399 513 425 522 q 350 486 374 503 q 307 449 326 469 q 275 408 288 429 q 275 318 275 364 q 274 228 275 272 q 300 203 285 217 q 332 179 315 190 q 366 160 349 168 q 400 153 383 153 z "},"p":{"ha":767,"x_min":35,"x_max":742,"o":"m 38 724 q 94 723 65 722 q 151 723 122 724 q 208 718 181 722 q 261 701 236 714 l 263 688 q 417 736 332 736 q 467 732 442 736 q 517 718 493 728 l 551 704 q 642 639 606 682 q 701 543 679 596 q 732 432 722 490 q 742 321 742 374 q 725 188 742 253 q 673 72 708 122 q 582 -10 638 21 q 450 -42 526 -42 q 358 -28 406 -42 q 272 8 311 -14 l 272 -360 q 172 -358 222 -360 q 72 -360 122 -357 l 38 -346 q 35 -262 35 -304 q 35 -179 35 -221 q 38 122 35 -28 q 40 422 40 271 l 40 497 l 38 649 l 38 724 m 200 692 q 175 694 188 694 q 151 694 163 694 q 108 694 129 694 q 65 694 88 693 q 67 559 67 626 q 68 422 68 492 q 65 122 68 271 q 63 -179 63 -28 q 63 -248 63 -214 q 64 -317 63 -282 q 137 -317 100 -315 q 210 -318 174 -318 q 209 -115 208 -217 q 210 88 210 -14 q 304 24 253 47 q 415 0 356 0 q 536 29 486 0 q 618 106 586 58 q 665 213 650 153 q 679 335 679 272 q 666 462 679 396 q 622 583 653 528 q 542 673 592 638 q 417 708 492 708 q 295 676 346 708 q 204 590 244 643 l 200 692 m 210 238 q 210 328 210 283 q 208 419 210 374 q 246 468 226 442 q 288 517 265 494 q 338 554 311 539 q 397 569 365 569 q 465 551 439 569 q 506 504 492 533 q 526 440 521 475 q 532 371 532 404 q 527 298 532 340 q 508 217 522 256 q 467 153 493 179 q 400 126 442 126 q 348 137 375 126 q 295 163 321 147 q 247 199 269 179 q 210 238 225 218 m 400 154 q 453 179 433 154 q 485 238 474 204 q 501 309 497 272 q 504 371 504 346 q 502 415 504 389 q 492 467 500 442 q 471 510 485 492 q 432 528 457 528 q 383 514 407 528 q 340 480 360 500 q 302 437 319 460 q 271 396 285 414 q 272 315 272 356 q 272 235 272 275 q 298 207 283 221 q 329 181 313 193 q 364 162 346 169 q 400 154 382 154 z "},"g":{"ha":653,"x_min":-12,"x_max":703,"o":"m 414 707 q 476 790 453 742 q 515 886 500 838 q 533 880 522 883 q 550 872 543 876 q 592 838 572 858 q 631 799 611 817 q 665 771 647 783 q 703 746 683 758 q 641 665 672 699 q 558 607 610 631 q 606 522 590 569 q 622 426 622 475 q 567 266 622 332 q 422 176 513 200 q 513 157 471 171 q 585 117 554 143 q 634 53 617 92 q 651 -39 651 15 q 620 -173 651 -115 q 538 -270 589 -231 q 420 -330 486 -310 q 285 -350 354 -350 q 219 -345 251 -350 q 156 -328 188 -340 q 81 -291 113 -311 q 29 -244 50 -271 q -2 -181 8 -217 q -12 -97 -12 -146 q 9 6 -12 -37 q 69 93 31 50 q 49 176 49 131 q 56 231 49 207 q 83 278 64 254 q 25 373 46 319 q 4 483 4 426 q 25 589 4 542 q 83 669 46 636 q 169 719 119 701 q 275 736 218 736 q 414 707 349 736 m 275 708 q 181 693 225 708 q 103 649 136 678 q 51 578 69 619 q 32 483 32 536 q 56 372 32 425 q 121 279 79 318 q 87 232 97 256 q 76 176 76 208 q 83 131 76 153 q 106 92 90 110 q 40 6 65 49 q 15 -97 15 -36 q 81 -259 15 -210 q 250 -308 146 -308 q 374 -290 314 -308 q 483 -237 435 -272 q 560 -149 531 -201 q 589 -25 589 -96 q 567 72 589 36 q 510 125 546 107 q 428 148 475 143 q 333 153 382 153 q 294 151 318 153 q 246 153 269 150 q 205 166 222 157 q 188 196 188 175 q 191 213 188 206 q 200 228 194 221 q 252 213 225 217 q 307 208 279 208 q 404 224 358 208 q 485 271 450 240 q 540 344 519 301 q 560 440 560 386 q 538 545 560 494 q 476 632 517 596 q 525 653 504 642 q 563 678 546 664 q 597 710 581 692 q 629 751 613 728 q 578 793 600 771 q 529 838 556 815 q 512 796 524 819 q 484 749 500 772 q 451 705 468 725 q 417 675 433 685 q 275 708 351 708 m 304 588 q 392 554 357 588 q 428 468 428 521 q 415 415 428 440 q 383 369 403 389 q 336 339 363 350 q 283 328 310 328 q 199 363 233 328 q 164 447 164 397 q 176 500 164 475 q 207 544 188 525 q 251 576 226 564 q 304 588 276 588 m 400 468 q 385 521 400 496 q 339 546 371 546 q 297 536 317 546 q 260 511 276 526 q 235 476 244 496 q 226 433 226 456 q 239 381 226 406 q 283 356 251 356 q 325 365 304 356 q 363 390 346 374 q 390 426 379 406 q 400 468 400 446 m 207 51 q 282 47 240 47 q 360 37 324 46 q 421 3 396 28 q 446 -71 446 -21 q 432 -127 446 -104 q 397 -164 418 -150 q 347 -183 375 -178 q 290 -189 319 -189 q 235 -183 261 -189 q 188 -162 208 -176 q 155 -125 167 -147 q 143 -69 143 -103 q 161 -2 143 -32 q 207 51 179 28 m 418 -71 q 401 -19 418 -35 q 360 3 385 -3 q 306 7 335 8 q 251 8 276 6 q 219 -33 232 -11 q 206 -83 206 -56 q 227 -144 206 -128 q 290 -161 249 -161 q 335 -157 313 -161 q 376 -143 358 -153 q 406 -116 394 -133 q 418 -71 418 -99 z "},"a":{"ha":625,"x_min":-18,"x_max":594,"o":"m 371 458 q 368 508 371 479 q 349 551 365 536 q 289 542 314 551 q 244 517 264 533 q 206 481 224 501 q 168 435 188 460 q 128 455 151 439 q 81 491 106 471 q 31 531 56 511 q -11 563 7 550 q 58 629 25 597 q 128 685 92 661 q 208 722 165 708 q 306 736 251 736 q 384 728 351 736 q 458 703 417 719 q 539 642 511 682 q 579 553 567 601 q 593 451 592 504 q 594 351 594 399 q 594 277 594 314 q 593 203 594 240 l 590 104 q 589 30 589 67 q 589 -44 589 -7 q 546 -40 568 -42 q 503 -39 524 -39 q 456 -40 479 -39 q 408 -43 432 -42 l 374 -29 l 374 -28 q 321 -49 349 -43 q 264 -56 293 -56 q 158 -35 208 -56 q 68 22 107 -14 q 6 107 29 58 q -18 213 -18 156 q 21 335 -18 288 q 118 409 60 382 q 244 446 176 436 q 371 458 313 456 m 32 567 q 81 528 58 549 q 129 488 104 507 q 203 561 163 529 q 301 593 244 593 q 353 581 335 593 q 383 550 372 569 q 396 506 393 531 q 399 454 399 481 l 399 431 q 320 428 363 431 q 235 417 278 425 q 151 393 192 408 q 78 353 110 378 q 28 294 47 329 q 10 213 10 260 q 27 126 10 167 q 74 53 44 85 q 143 4 103 22 q 229 -14 183 -14 q 322 8 281 -14 q 397 67 363 31 q 398 33 397 50 q 400 0 399 17 q 526 0 463 4 q 529 183 526 92 q 532 365 532 274 q 528 494 532 432 q 503 603 525 556 q 436 680 482 651 q 306 708 390 708 q 224 698 261 708 q 154 669 188 688 q 91 624 121 650 q 32 567 61 597 m 397 193 q 365 159 382 176 q 330 128 349 142 q 290 105 311 114 q 243 96 268 96 q 169 126 194 96 q 144 203 144 157 q 172 274 144 250 q 238 309 199 299 q 322 320 278 319 q 399 321 365 321 l 399 289 l 397 225 l 397 193 m 371 278 q 319 276 347 278 q 265 265 290 274 q 224 238 240 256 q 207 189 207 219 q 208 169 207 181 q 213 147 210 157 q 224 131 217 138 q 243 124 231 124 q 314 150 283 124 q 369 204 344 176 q 369 241 369 224 q 371 278 369 258 z "},"s":{"ha":606,"x_min":-35,"x_max":640,"o":"m 464 500 q 440 528 450 517 q 417 547 429 540 q 390 556 406 553 q 351 558 374 558 q 328 557 343 558 q 300 551 314 556 q 276 540 286 547 q 265 519 265 532 q 281 496 265 507 q 316 476 296 485 q 356 460 336 467 q 386 449 376 453 l 388 449 q 472 410 432 429 q 544 363 513 390 q 594 297 575 336 q 613 203 613 258 q 589 90 613 139 q 525 8 565 42 q 431 -42 485 -25 q 318 -58 378 -58 q 213 -44 261 -58 q 122 -7 165 -31 q 40 50 79 17 q -35 124 1 83 q 24 195 -4 160 q 85 264 51 231 l 119 250 q 151 213 135 232 q 188 178 168 194 q 228 153 207 163 q 275 143 250 143 q 303 146 286 143 q 338 155 321 149 q 367 171 354 161 q 379 196 379 181 q 353 231 379 215 q 289 265 328 247 q 204 306 250 283 q 119 358 158 328 q 55 427 81 388 q 29 521 29 467 q 58 622 29 581 q 132 689 88 664 q 231 725 176 714 q 336 736 286 736 q 497 708 419 736 q 624 610 574 679 l 640 588 q 569 538 604 563 q 499 486 533 514 l 464 500 m 317 600 q 399 585 356 600 q 468 539 443 571 q 517 575 492 558 q 567 608 542 592 q 467 688 526 667 q 340 708 407 708 q 247 699 296 708 q 155 669 197 690 q 85 611 113 647 q 57 521 57 575 q 83 434 57 471 q 147 371 108 397 q 232 324 186 344 q 317 284 278 303 q 381 244 356 265 q 407 196 407 224 q 393 158 407 174 q 358 133 379 143 q 315 119 338 124 q 275 115 292 115 q 168 148 215 115 q 83 224 121 181 q 42 174 60 200 q 3 124 25 147 q 128 21 63 58 q 283 -17 193 -17 q 385 -1 338 -17 q 470 43 433 14 q 528 116 507 72 q 550 217 550 160 q 524 317 550 278 q 460 381 499 356 q 376 424 421 407 q 293 455 332 440 q 228 487 254 469 q 203 533 203 504 q 215 567 203 554 q 244 587 226 579 q 282 597 263 594 q 317 600 301 600 z "},"k":{"ha":660,"x_min":35,"x_max":717,"o":"m 274 215 q 272 88 272 151 q 268 -40 272 24 l 225 -40 l 140 -42 l 97 -42 l 69 -42 l 35 -28 q 45 436 35 206 q 56 900 56 667 q 56 965 56 932 q 53 1029 56 997 q 142 1038 97 1038 q 232 1042 188 1039 l 267 1028 q 274 787 274 907 q 275 544 274 667 q 360 630 318 586 q 440 721 401 674 q 506 725 471 725 l 547 725 l 632 722 l 674 722 l 708 708 q 554 546 628 629 q 397 386 481 463 q 552 174 467 275 q 717 -29 638 74 q 649 -37 681 -35 q 581 -39 617 -39 l 519 -36 l 489 -36 l 454 -22 q 361 94 406 35 q 274 215 317 153 m 467 6 q 522 4 494 6 q 576 3 549 3 q 603 3 590 3 q 631 6 617 3 q 472 200 554 103 q 328 406 389 297 q 468 549 403 475 q 606 694 533 624 l 581 694 l 531 697 q 492 697 511 697 q 454 694 474 697 q 338 567 397 628 q 213 449 278 507 q 211 731 213 590 q 206 1013 210 871 q 144 1010 174 1010 q 82 1006 114 1010 q 83 953 83 979 q 83 900 83 926 q 73 450 83 674 q 63 0 63 226 q 135 1 99 0 q 207 1 171 3 q 211 350 211 176 q 335 176 275 263 q 467 6 396 89 z "},"w":{"ha":1133,"x_min":-44,"x_max":1178,"o":"m 99 715 q 154 713 131 715 q 206 696 178 710 q 277 497 240 596 q 347 297 314 397 q 358 342 350 311 q 377 411 367 372 q 399 492 388 450 q 420 572 410 535 q 439 635 431 608 q 451 669 447 663 q 462 681 456 676 q 475 688 468 685 q 504 693 485 692 q 546 695 524 694 q 588 696 568 696 q 617 696 607 696 l 638 696 l 672 682 q 727 474 700 578 q 786 265 754 369 q 860 494 826 379 q 931 725 893 610 q 984 721 958 722 q 1038 719 1010 719 l 1108 722 l 1143 722 l 1178 708 q 1036 338 1108 521 q 883 -28 964 154 q 851 -34 867 -31 q 818 -37 836 -37 q 758 -35 788 -37 q 699 -32 729 -32 l 664 -18 q 609 151 633 65 q 561 322 585 236 q 518 140 542 231 q 471 -42 494 50 l 442 -42 l 385 -44 l 356 -44 q 316 -43 336 -44 q 281 -28 296 -42 q 253 -20 267 -26 q 233 -1 240 -14 q 215 41 226 10 q 190 109 203 72 q 165 180 176 146 q 147 231 153 214 q 55 472 103 353 q -44 713 7 592 l -8 713 l 63 715 l 99 715 m -3 685 q 89 463 46 574 q 174 239 132 351 q 192 188 181 219 q 215 122 203 156 q 238 58 226 88 q 258 13 250 28 q 288 -1 265 0 q 321 -3 310 -3 l 344 -3 l 392 0 l 415 0 q 481 258 450 131 q 535 519 511 386 q 607 264 572 392 q 683 10 642 136 q 702 10 693 10 q 721 8 711 10 l 746 6 q 765 4 756 4 q 783 4 774 4 q 829 10 808 4 q 971 350 904 179 q 1103 694 1038 521 l 1078 694 l 1026 692 l 1001 692 q 976 692 989 692 q 950 694 963 692 q 862 415 901 556 q 768 136 822 274 q 688 401 722 268 q 617 668 654 533 q 588 668 610 668 q 542 667 567 668 q 499 665 518 667 q 476 657 479 663 q 463 617 468 640 q 451 574 457 593 q 335 124 385 350 q 301 250 319 188 q 263 375 283 313 q 204 530 235 454 q 150 685 174 606 q 124 688 138 688 q 99 688 111 688 l 74 688 l 22 685 l -3 685 z "},"y":{"ha":751,"x_min":-51,"x_max":801,"o":"m 207 -357 q 135 -344 169 -357 q 71 -310 100 -332 q 18 -260 42 -289 q -22 -199 -6 -231 q -35 -172 -26 -189 q -43 -144 -43 -154 q -24 -117 -43 -129 q 20 -97 -6 -106 q 71 -83 46 -89 q 108 -74 96 -78 l 143 -87 q 154 -123 149 -106 q 169 -156 160 -140 q 199 -131 185 -150 q 225 -87 214 -111 q 245 -40 236 -64 q 258 -1 254 -17 q 96 354 175 176 q -51 715 17 532 l -15 715 l 56 718 l 90 718 q 144 715 122 718 q 196 699 167 713 l 203 683 q 283 472 247 579 q 358 257 318 364 q 463 487 413 371 q 550 725 514 603 q 603 721 578 722 q 657 719 629 719 l 731 722 l 767 722 l 801 708 q 638 344 714 526 q 482 -25 561 161 q 440 -128 463 -71 q 387 -236 418 -185 q 312 -322 356 -287 q 207 -357 268 -357 m 172 -315 q 266 -281 226 -315 q 335 -199 306 -247 q 385 -95 364 -150 q 422 0 406 -40 q 568 349 497 175 q 722 694 639 522 l 697 694 l 646 692 l 621 692 q 595 692 608 692 q 569 694 582 692 q 462 420 522 553 q 342 151 401 288 q 240 419 288 285 q 142 688 192 553 q 116 690 129 690 q 90 690 103 690 l 65 690 l 14 688 l -11 688 q 132 340 54 511 q 289 0 210 169 q 271 -50 282 -19 q 244 -111 260 -81 q 207 -163 228 -142 q 161 -185 186 -185 q 113 -159 129 -185 q 90 -108 97 -133 q 67 -115 83 -111 q 34 -124 51 -118 q 2 -135 17 -129 q -15 -144 -12 -140 q 13 -206 -4 -175 q 53 -260 31 -236 q 106 -300 76 -285 q 172 -315 135 -315 z "},"x":{"ha":672,"x_min":-67,"x_max":738,"o":"m 78 725 l 160 722 l 200 722 l 235 708 q 281 621 256 664 q 332 538 307 578 q 387 624 360 581 q 442 710 414 667 l 665 710 l 700 696 q 583 528 638 613 q 472 356 528 443 q 599 149 532 250 q 738 -51 665 47 q 688 -51 722 -51 q 615 -49 653 -50 q 544 -47 576 -49 q 503 -43 513 -46 q 499 -42 500 -42 q 494 -40 497 -42 l 476 -32 q 472 -31 474 -31 q 468 -29 471 -31 q 452 -3 460 -17 q 436 22 444 10 l 372 125 q 356 151 364 138 q 340 176 349 164 q 272 69 307 122 q 197 -33 236 17 q 181 -41 190 -37 q 164 -44 172 -44 l 115 -44 l 17 -42 l -32 -42 l -67 -28 q 75 168 7 69 q 211 367 143 267 q 186 403 204 376 q 144 465 168 431 q 95 538 121 500 q 48 610 69 576 q 13 666 26 643 q -1 694 -1 689 q 13 716 -1 707 q 38 725 26 725 l 78 725 m 26 694 q 41 672 26 693 q 78 616 56 650 q 127 542 100 582 q 178 467 154 503 q 221 403 203 431 q 244 367 239 375 q 119 182 182 274 q -11 0 57 90 l 19 0 l 82 -3 l 113 -3 q 127 -3 115 -3 q 142 0 139 -3 q 184 53 160 19 q 233 126 208 88 q 281 202 258 165 q 317 263 303 239 q 402 130 361 196 q 485 -3 443 64 q 566 -6 525 -8 q 647 -7 607 -4 q 521 178 582 86 q 406 371 460 271 q 504 528 456 450 q 610 682 553 607 l 457 682 q 440 655 449 668 q 422 628 431 642 l 354 521 q 338 494 346 507 q 319 467 329 481 q 248 578 281 521 q 183 694 215 636 l 151 694 l 86 697 l 54 697 q 35 697 44 697 q 26 694 26 697 z "},"z":{"ha":639,"x_min":-19,"x_max":657,"o":"m 44 731 q 308 722 176 724 q 572 722 440 721 l 607 708 q 610 667 610 688 q 611 625 611 646 l 610 586 l 610 567 q 450 354 526 463 q 293 139 374 246 q 371 138 332 138 q 449 138 410 138 q 531 138 490 138 q 614 140 572 138 l 649 126 q 653 65 649 94 q 657 4 657 35 q 656 -19 657 -7 q 653 -43 654 -32 q 453 -40 553 -43 q 253 -36 353 -36 q 134 -39 193 -36 q 15 -44 75 -42 l -19 -31 q -16 10 -17 -10 q -15 51 -15 31 l -17 89 l -17 107 q 68 215 28 160 q 147 325 108 269 l 225 436 q 265 492 244 464 q 304 547 285 519 q 247 544 283 546 q 172 544 211 543 q 99 550 133 546 q 47 564 65 554 q 44 609 44 588 q 43 654 43 631 l 44 706 l 44 731 m 72 683 l 71 647 l 71 629 q 71 609 71 618 q 72 590 71 600 q 160 588 117 589 q 247 588 203 588 l 331 589 l 372 589 q 280 467 324 529 q 192 343 236 406 q 104 218 149 281 q 11 97 60 156 q 13 48 11 72 q 11 -1 14 24 q 114 3 63 1 q 218 6 165 6 q 406 2 313 6 q 593 -1 499 -1 l 593 4 l 594 13 l 594 18 q 590 65 594 42 q 586 111 586 88 q 389 110 486 108 q 192 111 292 111 q 369 351 285 229 q 547 590 454 472 l 547 607 l 549 642 l 549 658 q 549 676 549 668 q 547 694 549 685 q 310 697 428 697 q 72 701 192 697 l 72 683 z "},"H":{"ha":874,"x_min":51,"x_max":822,"o":"m 71 988 q 165 998 117 997 q 258 1001 213 999 l 293 988 l 293 882 l 289 674 l 289 568 q 442 578 365 571 q 594 589 518 585 q 594 796 594 693 q 588 1001 594 899 q 683 1012 635 1011 q 779 1015 731 1013 l 814 1001 q 818 670 814 835 q 822 339 822 506 q 821 151 822 244 q 814 -37 819 57 l 774 -37 l 692 -42 l 651 -42 l 624 -42 l 589 -28 q 591 181 589 76 q 594 390 593 286 q 441 383 517 388 q 288 376 365 379 q 287 168 288 272 q 288 -40 286 64 l 244 -40 l 158 -42 l 115 -42 l 88 -42 l 53 -28 q 57 220 51 97 q 65 468 63 343 q 69 728 68 599 q 71 988 71 857 m 99 964 q 91 481 97 721 q 81 0 85 242 q 153 1 117 0 q 225 1 189 3 q 226 73 226 38 q 226 144 226 108 l 226 213 l 225 350 l 225 418 q 424 426 325 421 q 622 435 522 431 q 622 381 622 407 q 621 326 621 354 l 618 108 q 617 54 618 81 q 617 0 617 28 l 647 0 l 706 4 l 736 4 l 753 4 q 758 178 756 92 q 760 353 760 265 q 756 669 760 513 q 751 986 751 826 q 684 983 718 983 q 617 978 650 983 q 621 770 619 874 q 622 563 622 667 q 424 549 522 558 q 226 539 326 540 q 231 972 226 756 q 165 969 197 969 q 99 964 132 968 z "},"O":{"ha":993,"x_min":31,"x_max":961,"o":"m 467 1014 q 631 983 553 1014 l 665 969 q 794 886 739 939 q 887 767 850 833 q 942 624 924 700 q 961 471 961 547 q 932 279 961 374 q 847 110 903 185 q 708 -10 790 36 q 518 -56 625 -56 q 367 -28 442 -56 l 332 -14 q 199 75 256 18 q 104 203 142 132 q 49 356 67 275 q 31 514 31 436 q 59 702 31 611 q 143 862 88 793 q 280 972 199 931 q 467 1014 361 1014 m 467 986 q 291 947 367 986 q 163 842 215 907 q 85 691 111 776 q 58 514 58 606 q 85 326 58 421 q 166 156 113 232 q 299 33 219 81 q 483 -14 379 -14 q 661 30 583 -14 q 792 144 739 74 q 872 304 844 215 q 899 485 899 393 q 870 671 899 581 q 786 831 842 761 q 651 944 731 901 q 467 986 571 986 m 494 139 q 373 166 425 139 q 286 238 321 193 q 234 342 251 283 q 217 465 217 401 q 233 589 217 524 q 282 709 249 654 q 366 800 315 764 q 486 836 417 836 q 607 799 558 836 q 685 703 656 761 q 728 579 715 646 q 742 454 742 513 q 729 337 742 393 q 688 236 717 281 q 611 165 658 192 q 494 139 564 139 m 714 454 q 704 556 714 497 q 672 667 694 614 q 613 757 650 719 q 521 794 576 794 q 413 760 458 794 q 337 676 367 726 q 293 565 307 625 q 279 451 279 504 q 291 351 279 401 q 329 259 303 300 q 396 192 356 218 q 494 167 436 167 q 601 191 558 167 q 668 256 643 215 q 703 349 693 297 q 714 454 714 400 z "},"I":{"ha":349,"x_min":51,"x_max":297,"o":"m 61 988 q 156 999 107 999 q 251 1001 204 999 l 286 988 q 288 865 286 925 q 290 742 289 804 l 293 579 q 296 456 294 517 q 297 333 297 396 q 294 147 297 239 q 293 -40 292 54 q 260 -40 276 -40 q 226 -42 243 -40 l 181 -44 q 147 -46 164 -46 q 114 -46 131 -46 l 86 -46 l 51 -32 l 51 -4 q 58 492 54 246 q 61 988 61 738 m 89 964 q 86 480 89 721 q 79 -4 83 239 q 105 -4 92 -4 q 131 -3 118 -4 l 165 0 q 191 1 178 1 q 217 1 204 1 l 231 1 q 235 347 235 174 q 233 465 235 406 q 231 582 232 524 l 228 738 q 225 855 226 796 q 224 972 224 914 q 156 969 190 969 q 89 964 122 968 z "},"J":{"ha":635,"x_min":-51,"x_max":597,"o":"m 239 163 q 340 231 311 163 q 358 308 356 267 q 361 386 361 349 q 369 663 361 525 q 376 940 376 801 l 376 988 q 467 997 421 996 q 560 1001 514 999 l 594 988 l 594 863 l 597 614 l 597 489 l 597 315 q 585 172 597 240 q 542 53 574 104 q 456 -28 511 3 q 313 -58 400 -58 q 199 -42 250 -58 q 103 2 147 -26 q 22 69 60 31 q -51 156 -17 108 q 20 213 -15 185 q 92 271 56 240 l 126 257 q 148 224 138 240 q 171 193 158 207 q 199 171 183 179 q 239 163 215 163 m 239 135 q 151 160 188 135 q 86 228 114 185 q 38 188 63 206 q -12 150 13 169 q 112 28 44 72 q 278 -17 179 -17 q 410 12 360 -17 q 489 88 461 40 q 526 199 517 136 q 535 329 535 261 l 535 503 l 535 621 l 532 854 l 532 972 q 468 969 500 969 q 404 964 436 968 q 397 675 406 818 q 389 386 389 532 q 385 301 389 346 q 366 220 381 257 q 321 159 351 183 q 239 135 290 135 z "},"T":{"ha":561,"x_min":-39,"x_max":621,"o":"m 582 1013 l 617 999 q 620 964 619 982 q 621 929 621 946 l 621 901 l 619 846 l 619 818 q 510 822 565 822 q 400 819 454 822 q 405 544 403 681 q 407 269 407 408 q 405 116 407 192 q 404 -37 403 40 l 361 -37 l 274 -42 l 229 -42 l 200 -42 l 165 -28 q 176 319 174 147 q 179 667 179 492 l 178 763 l 178 810 q 26 806 103 806 l -4 806 l -39 819 q -35 867 -36 843 q -35 915 -35 892 l -36 969 l -36 996 q 228 1008 97 1003 q 493 1013 360 1013 l 582 1013 m -8 969 q -7 908 -8 939 q -8 847 -6 878 q 99 849 44 847 q 206 854 153 851 q 206 735 206 794 q 207 618 207 676 q 204 309 207 463 q 194 0 201 156 l 226 0 l 292 4 l 324 4 l 342 4 q 344 144 344 75 q 344 283 344 213 q 336 860 344 572 q 401 862 368 861 q 465 863 433 863 q 511 863 489 863 q 557 861 533 863 l 557 882 l 558 922 l 558 943 q 558 964 558 954 q 557 985 558 974 l 493 985 q 242 981 367 985 q -8 969 118 976 z "},"E":{"ha":706,"x_min":51,"x_max":725,"o":"m 68 996 q 378 1003 224 1004 q 688 1010 532 1003 l 722 996 q 715 910 718 953 q 713 824 713 868 l 640 824 q 464 825 551 824 q 288 825 376 826 q 287 697 288 761 q 285 569 286 633 q 447 579 367 572 q 608 593 526 586 l 643 579 l 643 551 l 644 493 l 644 465 q 644 429 644 447 q 640 394 643 411 q 462 385 551 388 q 283 379 372 382 l 283 349 l 282 288 l 282 257 l 282 229 l 283 174 l 283 146 q 487 151 386 147 q 690 164 588 156 l 725 150 q 722 99 722 124 q 721 47 721 74 l 722 -7 l 722 -35 q 535 -41 628 -40 q 347 -42 442 -42 l 86 -42 l 51 -28 q 64 322 58 149 q 69 671 69 494 l 68 996 m 313 0 q 486 1 400 0 q 660 6 572 1 q 658 69 660 38 q 660 133 657 101 q 441 121 550 122 q 221 117 332 119 l 221 156 l 219 232 l 219 271 q 219 345 219 308 q 221 419 219 382 q 401 427 311 422 q 581 435 490 432 q 582 457 582 446 q 582 479 582 468 l 582 500 l 581 542 l 581 563 q 401 548 490 553 q 222 540 313 543 q 224 703 224 622 q 225 865 225 783 q 290 867 257 867 q 356 868 324 868 q 503 866 431 868 q 650 865 575 864 q 652 923 650 894 q 657 981 654 951 q 376 976 515 975 q 96 969 238 976 q 97 485 97 726 q 81 0 96 243 l 313 0 z "},"F":{"ha":646,"x_min":51,"x_max":693,"o":"m 286 556 q 447 566 367 558 q 607 581 526 574 l 642 567 l 642 539 l 643 482 l 643 454 q 642 419 643 438 q 639 385 642 401 q 463 374 551 378 q 288 367 375 369 q 290 163 289 264 q 290 -42 290 61 l 88 -42 l 53 -28 q 53 485 51 229 q 69 997 54 740 q 364 1001 218 1000 q 658 1010 510 1003 l 693 996 q 690 948 690 972 q 689 899 689 924 l 690 847 l 690 821 q 490 818 590 821 q 289 813 389 815 q 285 614 285 713 l 286 575 l 286 556 m 228 64 q 227 236 228 151 q 225 407 226 321 q 292 410 258 408 q 358 414 325 411 l 446 418 q 513 422 479 421 q 579 425 546 424 q 581 447 581 436 q 581 468 581 457 l 581 489 l 579 529 l 579 550 q 402 535 490 540 q 224 526 314 529 l 222 647 q 224 750 222 699 q 228 853 225 801 q 428 858 328 856 q 628 863 528 861 q 626 922 628 892 q 628 981 625 951 q 415 972 521 976 q 201 968 308 968 l 96 969 q 85 485 86 725 q 81 0 85 244 l 228 0 l 228 64 z "},"L":{"ha":654,"x_min":51,"x_max":693,"o":"m 265 1001 l 300 988 q 305 849 304 918 q 306 711 306 781 q 300 431 306 569 q 292 150 294 292 q 469 156 381 153 q 646 165 557 160 l 681 151 q 689 72 685 111 q 693 -8 693 32 l 693 -35 q 515 -41 604 -40 q 336 -42 425 -42 l 86 -42 l 51 -28 q 65 339 60 157 q 69 707 69 521 l 68 990 l 265 1001 m 239 972 q 222 972 231 972 q 203 971 213 972 l 132 965 q 114 964 122 964 q 96 964 106 964 q 96 481 97 721 q 81 0 94 242 l 301 0 q 466 1 385 0 q 631 6 547 1 q 628 72 631 39 q 621 136 625 104 l 425 128 q 327 124 376 125 q 229 121 278 122 q 238 423 232 272 q 243 725 243 574 q 239 972 243 849 z "},"Q":{"ha":1001,"x_min":31,"x_max":969,"o":"m 450 1014 q 615 983 538 1014 l 650 969 q 781 886 725 939 q 873 767 836 833 q 928 624 910 700 q 947 471 947 547 q 913 260 947 364 q 806 78 878 157 q 884 -26 843 25 q 969 -125 925 -76 q 926 -122 947 -124 q 882 -119 904 -119 q 814 -125 847 -119 q 746 -131 781 -131 l 733 -131 l 699 -117 q 665 -76 681 -97 q 632 -35 649 -56 q 506 -56 571 -56 q 358 -28 431 -56 l 324 -14 q 192 76 247 18 q 101 208 136 135 q 48 363 65 282 q 31 522 31 444 q 57 707 31 618 q 135 864 83 796 q 266 973 188 932 q 450 1014 344 1014 m 450 986 q 276 948 350 986 q 154 845 203 910 q 82 697 106 781 q 58 522 58 613 q 83 335 58 431 q 158 162 107 239 q 287 35 210 85 q 471 -14 364 -14 q 626 19 553 -14 q 667 -35 646 -8 q 711 -89 689 -62 q 779 -83 746 -89 q 847 -78 813 -78 l 869 -79 q 800 6 833 -37 q 735 94 767 50 q 801 178 772 132 q 848 274 829 224 q 876 378 867 325 q 885 485 885 432 q 856 671 885 581 q 771 831 826 761 q 635 944 715 901 q 450 986 554 986 m 486 135 q 361 165 413 135 q 278 246 310 196 q 231 358 246 296 q 217 485 217 421 q 228 601 217 539 q 265 717 239 664 q 337 804 292 769 q 450 839 382 839 q 576 801 524 839 q 663 704 629 763 q 712 577 696 646 q 728 447 728 508 q 713 322 728 385 q 657 210 697 258 q 609 283 633 246 q 560 357 585 321 q 488 353 524 357 q 417 347 453 350 q 479 243 449 294 q 542 140 510 192 q 514 136 528 138 q 486 135 500 135 m 494 163 q 479 190 488 176 q 464 215 471 203 l 401 319 q 371 371 386 349 q 465 380 418 375 q 560 385 513 385 l 575 385 l 610 371 q 640 325 625 347 q 669 281 654 303 q 694 362 688 319 q 700 447 700 404 q 688 553 700 493 q 651 668 676 614 q 584 760 625 722 q 485 797 543 797 q 384 765 424 797 q 321 683 344 732 q 288 576 297 633 q 279 471 279 519 q 286 388 279 433 q 310 300 293 343 q 353 222 326 257 q 418 172 379 188 q 451 164 433 165 q 486 163 469 163 l 494 163 z "},"D":{"ha":874,"x_min":50,"x_max":842,"o":"m 311 1010 q 535 980 436 1010 q 701 888 633 950 q 806 732 769 826 q 842 507 842 638 q 799 255 842 360 q 676 83 756 150 q 485 -15 597 17 q 233 -46 372 -46 q 190 -46 214 -46 q 141 -44 165 -46 q 94 -39 117 -43 q 53 -25 71 -35 q 58 311 50 143 q 67 649 67 479 l 67 726 l 63 885 l 63 963 l 63 988 q 186 1004 124 999 q 311 1010 249 1010 m 90 964 q 94 649 94 806 q 89 324 94 485 q 81 0 83 164 q 199 -4 139 -4 q 439 24 332 -4 q 622 116 546 53 q 738 279 697 179 q 779 521 779 379 q 662 871 779 760 q 311 982 544 982 q 199 977 254 982 q 90 964 144 972 m 226 122 q 228 487 229 306 q 226 851 228 668 q 281 860 254 857 q 335 863 307 863 q 478 831 422 863 q 565 748 533 800 q 610 627 597 696 q 622 483 622 558 q 606 328 622 396 q 551 215 589 261 q 449 144 513 168 q 293 119 386 119 q 260 120 276 119 q 226 122 243 121 m 594 483 q 590 572 594 522 q 570 667 585 621 q 530 752 556 714 q 461 808 504 790 q 416 818 443 815 q 369 821 389 821 q 329 819 350 821 q 289 814 308 817 q 289 147 293 481 q 435 169 376 147 q 530 233 494 190 q 580 338 565 275 q 594 483 594 400 z "},"C":{"ha":814,"x_min":31,"x_max":857,"o":"m 625 733 q 579 781 599 765 q 531 796 560 796 q 422 763 468 796 q 345 678 376 729 q 299 568 314 628 q 283 456 283 508 q 294 360 283 411 q 329 267 306 310 q 390 197 353 225 q 479 168 426 168 q 596 199 550 168 q 675 290 642 231 l 710 276 q 783 215 746 243 q 857 156 819 186 q 703 4 794 64 q 499 -56 613 -56 q 301 -7 388 -56 q 154 120 214 42 q 63 298 94 199 q 31 499 31 397 q 61 685 31 593 q 149 851 92 778 q 289 969 207 924 q 474 1014 371 1014 q 567 1003 519 1014 q 658 971 614 992 q 739 920 701 950 q 804 853 776 890 l 819 832 q 740 775 781 800 q 660 719 699 750 l 625 733 m 631 771 q 690 810 660 790 q 747 851 719 829 q 627 952 701 918 q 474 986 553 986 q 299 943 376 986 q 169 831 222 900 q 87 675 115 763 q 58 499 58 588 q 85 320 58 411 q 163 155 111 229 q 290 33 214 81 q 464 -14 365 -14 q 645 35 564 -14 q 785 164 726 85 q 731 203 758 185 q 681 246 704 222 q 594 167 650 193 q 479 140 538 140 q 365 170 414 140 q 285 247 317 200 q 237 353 253 294 q 221 469 221 411 q 238 593 221 528 q 290 713 256 658 q 375 802 324 767 q 496 838 426 838 q 572 822 540 838 q 631 771 603 807 z "},"G":{"ha":858,"x_min":31,"x_max":863,"o":"m 458 150 q 531 168 500 150 q 583 215 563 186 q 615 279 604 243 q 629 353 626 315 q 566 351 606 353 q 485 350 526 350 q 408 354 444 350 q 351 369 371 358 q 347 430 350 400 q 344 490 344 460 l 344 538 q 474 526 410 531 q 603 522 538 522 q 715 526 660 522 q 828 532 771 529 l 863 518 q 852 394 860 460 q 828 265 844 329 q 786 143 813 201 q 719 41 760 85 q 623 -29 679 -3 q 492 -56 567 -56 q 363 -31 426 -56 l 328 -17 q 195 76 251 15 q 103 214 139 138 q 49 374 67 290 q 31 536 31 458 q 60 723 31 636 q 145 874 89 810 q 283 976 201 939 q 471 1014 365 1014 q 682 969 588 1014 q 846 832 776 925 q 774 776 810 803 q 696 728 738 750 l 661 742 q 606 787 635 778 q 535 796 578 796 q 420 765 468 796 q 342 685 372 733 q 297 576 311 636 q 282 460 282 517 q 291 369 282 422 q 321 267 300 315 q 376 184 342 218 q 458 150 410 150 m 219 474 q 236 602 219 538 q 287 719 253 667 q 374 804 321 771 q 500 838 426 838 q 543 834 519 838 q 590 824 567 831 q 635 806 614 817 q 668 778 656 794 q 722 812 697 793 q 774 851 747 831 q 714 913 749 888 q 640 955 679 939 q 556 978 600 971 q 471 986 513 986 q 294 951 371 986 q 165 856 218 917 q 85 713 113 794 q 58 536 58 631 q 69 416 58 479 q 101 292 79 353 q 155 175 122 231 q 232 78 188 119 q 333 11 276 36 q 457 -14 389 -14 q 574 10 524 -14 q 662 73 625 33 q 724 165 699 113 q 766 275 750 218 q 790 391 782 332 q 799 503 797 450 q 701 497 750 500 q 603 494 651 494 q 488 498 544 494 q 372 507 431 501 l 372 490 q 374 443 372 467 q 378 396 375 419 q 439 394 408 394 q 500 393 469 393 l 660 394 q 649 299 660 347 q 614 212 638 251 q 552 147 590 172 q 458 122 514 122 q 347 157 393 122 q 273 244 301 192 q 232 358 244 297 q 219 474 219 419 z "},"P":{"ha":815,"x_min":51,"x_max":800,"o":"m 378 1021 q 533 1006 457 1021 q 668 954 608 990 q 764 857 728 918 q 800 703 800 796 q 755 517 800 590 q 636 403 710 444 q 470 345 563 361 q 285 329 378 329 l 289 203 q 291 124 290 163 q 292 46 292 86 l 290 -12 l 290 -42 l 256 -42 l 185 -44 l 150 -44 q 99 -42 124 -44 q 51 -26 75 -39 q 60 251 60 113 q 61 529 61 390 l 61 644 l 63 874 l 63 988 q 219 1012 140 1003 q 378 1021 299 1021 m 222 372 q 403 379 311 367 q 569 431 496 392 q 690 539 643 469 q 738 717 738 608 q 708 853 738 800 q 630 938 679 907 q 515 981 581 969 q 378 993 450 993 q 233 985 306 993 q 90 964 161 976 l 90 921 l 89 838 l 89 794 q 89 397 89 594 q 81 -1 89 199 q 98 -3 89 -3 q 115 -3 107 -3 q 165 -1 140 -3 q 214 0 190 0 l 228 0 l 229 89 q 226 231 229 160 q 222 372 224 301 m 225 865 q 297 871 261 868 q 368 874 332 874 q 450 869 411 874 q 518 847 489 864 q 564 800 547 831 q 581 718 581 769 q 547 600 581 643 q 460 535 513 557 q 345 508 408 514 q 225 500 282 501 l 225 865 m 553 718 q 542 783 553 760 q 512 817 532 806 q 464 830 492 828 q 403 832 436 832 q 345 831 374 832 q 288 826 317 829 l 288 531 q 369 540 328 533 q 449 561 411 546 l 450 561 q 528 622 503 585 q 553 718 553 660 z "},"R":{"ha":813,"x_min":51,"x_max":864,"o":"m 410 1017 q 548 1006 478 1017 q 674 965 618 994 q 765 881 729 935 q 800 744 800 828 q 739 550 800 631 q 578 422 678 469 q 716 187 640 300 q 864 -44 792 74 q 798 -40 831 -42 q 732 -39 765 -39 l 665 -42 l 632 -42 l 597 -28 q 477 165 533 68 q 372 367 421 263 q 283 358 329 361 l 294 -46 q 236 -46 269 -44 q 169 -47 203 -47 q 103 -42 135 -46 q 51 -26 72 -37 q 60 319 60 146 q 56 655 60 488 q 64 989 51 822 q 237 1008 151 1000 q 410 1017 322 1017 m 613 0 q 694 2 653 0 q 776 1 736 4 q 635 222 706 113 q 506 449 564 331 q 673 566 608 488 q 738 758 738 644 q 709 878 738 833 q 635 948 681 924 q 530 981 589 972 q 410 989 471 989 q 249 981 329 989 q 90 964 169 974 q 86 685 86 824 q 88 342 86 511 q 81 -1 89 172 q 108 -3 94 -3 q 135 -3 121 -3 q 183 -2 158 -3 q 231 -3 207 -1 l 219 400 q 300 404 260 400 q 381 415 340 408 q 488 203 431 306 q 613 0 546 100 m 218 851 q 315 867 267 860 q 411 874 363 874 q 480 867 449 874 q 533 845 511 861 q 568 802 556 829 q 581 733 581 775 q 545 620 581 661 q 456 560 510 579 q 339 535 401 540 q 222 528 276 529 l 218 851 m 553 733 q 528 813 553 793 q 446 832 504 832 q 363 826 404 832 q 281 814 321 821 l 285 558 q 376 567 328 560 q 463 592 424 574 q 527 644 501 611 q 553 733 553 678 z "},"B":{"ha":824,"x_min":51,"x_max":842,"o":"m 351 1008 q 499 995 424 1008 q 635 948 574 982 q 734 856 696 914 q 772 711 772 799 q 751 588 772 647 q 678 489 729 529 q 800 400 758 456 q 842 254 842 344 q 817 133 842 183 q 751 49 792 83 q 655 -4 710 15 q 541 -34 600 -24 q 422 -47 482 -44 q 310 -50 363 -50 q 253 -50 289 -50 q 178 -49 217 -50 q 104 -42 139 -47 q 53 -28 69 -37 q 59 314 51 144 q 67 656 67 483 l 67 731 l 63 879 l 63 954 l 63 978 q 206 1000 133 992 q 351 1008 279 1008 m 90 954 q 94 656 94 804 q 89 327 94 490 q 81 -1 83 164 q 178 -6 129 -4 q 275 -8 226 -8 q 380 -6 324 -8 q 492 5 436 -4 q 601 31 549 14 q 692 80 653 49 q 756 157 732 111 q 779 268 779 203 q 765 356 779 319 q 723 419 750 393 q 659 464 696 446 q 576 496 622 482 q 679 588 649 525 q 710 725 710 651 q 678 853 710 803 q 596 931 647 903 q 481 970 544 960 q 351 981 417 981 q 220 973 285 981 q 90 954 156 965 m 226 863 q 299 869 263 867 q 372 872 336 872 q 445 867 411 872 q 505 847 479 863 q 546 805 531 832 q 561 732 561 778 q 538 636 561 674 q 475 577 514 599 q 388 547 436 556 q 292 539 340 539 q 258 540 275 539 q 226 542 242 540 l 226 863 m 533 732 q 524 787 533 767 q 499 817 515 807 q 460 828 483 826 q 407 831 436 831 q 348 828 378 831 q 289 824 318 826 l 289 567 q 375 573 332 567 q 453 597 418 579 q 511 647 489 614 q 533 732 533 679 m 229 114 q 226 271 229 193 q 224 428 224 349 l 256 428 l 319 429 l 351 429 q 441 427 392 429 q 534 411 490 425 q 608 367 578 397 q 638 281 638 336 q 607 190 638 224 q 531 138 576 156 q 432 115 485 119 q 336 110 379 110 q 229 114 283 110 m 336 138 q 419 141 372 138 q 509 159 467 144 q 581 202 551 174 q 610 281 610 231 q 587 347 610 325 q 530 378 564 369 q 457 388 496 388 q 386 388 418 388 l 361 388 l 311 386 l 286 386 q 287 355 286 371 q 288 324 288 339 l 292 138 l 336 138 z "},"M":{"ha":1136,"x_min":51,"x_max":1085,"o":"m 85 1010 q 89 1010 88 1010 q 93 1011 90 1011 l 97 1011 q 166 1007 132 1011 q 233 1000 200 1003 l 251 999 l 286 985 l 293 968 q 430 637 360 800 q 568 306 500 474 q 613 428 590 368 q 661 549 636 488 q 749 760 704 656 q 840 971 794 865 l 846 986 l 863 988 q 933 993 897 990 q 1004 996 969 996 l 1031 996 l 1065 982 l 1067 956 q 1081 589 1076 771 q 1085 222 1085 407 q 1084 106 1085 164 q 1082 -10 1083 49 l 1081 -36 l 1024 -36 l 996 -36 l 938 -37 l 910 -37 l 881 -37 l 846 -24 l 847 6 q 854 140 851 74 q 857 275 857 207 q 856 356 857 315 q 853 438 854 397 q 820 360 836 399 q 789 282 804 321 q 739 151 763 217 q 692 19 715 86 l 685 1 l 488 1 l 453 15 l 446 33 q 369 222 410 129 q 289 410 329 315 q 292 285 292 347 q 292 160 292 222 q 292 74 292 117 q 290 -12 292 32 l 289 -39 l 240 -39 l 210 -39 l 149 -42 l 118 -42 l 89 -42 l 54 -28 l 56 1 q 60 285 60 143 q 56 632 60 460 q 51 979 51 804 q 60 997 51 986 q 85 1010 69 1008 m 79 979 q 82 762 79 882 q 86 513 85 642 q 88 251 88 383 q 83 0 88 119 q 156 2 124 0 q 228 3 188 4 q 230 144 229 64 q 229 311 231 224 q 224 490 228 399 q 214 664 219 581 q 283 494 251 567 q 343 353 314 421 q 403 213 372 286 q 472 43 435 140 l 631 43 q 697 227 669 153 q 751 365 725 301 q 805 493 778 428 q 869 651 832 558 q 874 539 871 588 q 879 448 876 490 q 883 363 882 406 q 885 270 885 321 q 883 156 885 219 q 875 4 881 92 q 947 6 915 4 q 1019 6 979 7 q 1022 222 1022 103 q 1020 469 1022 342 q 1014 724 1018 596 q 1004 968 1010 851 q 984 968 993 968 q 967 967 975 968 l 903 963 q 885 962 894 963 q 865 960 876 961 q 800 806 829 874 q 746 681 771 739 q 699 569 721 622 q 656 458 678 515 q 609 337 633 401 q 556 190 585 272 q 469 401 508 308 q 394 581 431 493 q 318 761 357 668 q 232 972 279 854 q 183 976 210 974 q 135 981 157 979 q 97 983 113 983 q 79 979 81 983 z "},"N":{"ha":890,"x_min":38,"x_max":851,"o":"m 226 1000 l 261 986 l 268 972 q 357 820 310 894 q 451 672 404 746 q 546 522 499 597 q 635 369 593 447 q 626 660 635 515 q 618 950 618 804 l 618 974 q 712 984 664 983 q 807 988 760 985 l 842 974 q 847 633 842 803 q 851 293 851 464 q 851 133 851 214 q 846 -26 851 53 l 654 -28 l 619 -14 q 460 285 550 142 q 276 568 371 428 q 281 264 279 417 q 272 -40 283 111 l 229 -40 l 144 -42 l 101 -42 l 72 -42 l 38 -28 q 53 428 50 201 q 56 883 56 654 l 56 989 q 133 998 94 996 q 210 1000 171 1000 l 226 1000 m 83 965 q 80 483 85 722 q 67 0 75 243 q 139 1 103 0 q 211 1 175 3 q 215 174 214 89 q 217 346 217 260 q 215 533 217 440 q 210 721 213 626 q 323 547 267 632 q 434 375 379 461 q 540 199 489 289 q 638 14 592 110 l 785 15 q 789 307 789 161 q 784 633 789 471 q 779 958 779 794 q 713 955 746 956 q 646 950 679 954 q 656 660 649 804 q 663 369 663 517 q 658 215 663 292 q 552 408 608 314 q 438 597 496 503 q 323 783 381 690 q 210 972 265 876 q 147 972 178 972 q 83 965 115 971 z "},"V":{"ha":811,"x_min":-43,"x_max":867,"o":"m 97 1004 q 153 1001 128 1004 q 207 983 179 997 q 281 722 251 856 q 346 458 310 589 q 369 376 357 417 q 394 294 382 335 q 509 631 456 463 q 621 969 563 800 l 628 989 l 653 989 l 704 989 q 768 989 736 989 q 832 992 800 989 l 867 978 q 783 731 826 854 q 696 485 740 608 q 608 240 651 363 q 528 -8 565 117 l 522 -28 l 489 -28 l 424 -24 l 390 -24 q 358 -25 375 -24 q 325 -28 342 -26 l 290 -14 l 282 6 q 192 267 232 135 q 111 531 151 399 q 42 747 78 640 q -31 963 7 854 l -43 1000 l -8 1000 l 63 1004 l 97 1004 m -4 972 q 76 734 39 854 q 151 494 114 614 q 226 253 188 374 q 308 15 264 133 q 388 16 349 18 q 467 14 426 14 q 628 488 542 253 q 793 961 715 724 q 720 960 757 958 q 647 961 683 961 q 517 565 582 761 q 379 171 453 368 q 313 368 342 268 q 259 569 285 468 q 208 772 233 671 q 151 972 182 872 q 112 976 132 975 q 72 976 92 976 l 21 972 l -4 972 z "},"W":{"ha":1225,"x_min":-32,"x_max":1263,"o":"m -32 1003 q -3 1000 -17 1001 q 26 999 11 999 q 89 1003 58 999 q 151 1008 119 1008 l 175 1008 l 210 994 l 214 971 q 267 658 239 813 q 326 346 294 503 q 409 615 363 483 q 492 885 456 747 l 494 897 q 524 906 507 903 q 560 910 542 910 q 598 911 579 911 q 629 911 617 911 l 701 911 l 736 897 q 810 622 772 758 q 888 349 847 486 q 949 658 918 504 q 1017 968 981 813 l 1022 990 l 1051 990 l 1111 992 l 1140 992 q 1202 990 1169 992 q 1263 974 1235 989 l 1254 942 q 1187 666 1219 803 q 1119 390 1154 529 q 1069 192 1094 290 q 1019 -7 1043 93 l 1015 -28 l 988 -28 l 933 -29 l 906 -29 q 840 -28 874 -29 q 778 -11 807 -26 l 774 8 q 710 226 746 118 q 643 442 675 333 l 614 549 q 522 254 565 401 q 438 -42 478 107 l 406 -42 l 339 -37 l 307 -37 q 273 -39 290 -37 q 238 -42 256 -40 l 203 -28 l 197 -6 q 81 478 135 236 q -25 967 26 721 l -32 1003 m 3 972 q 109 485 58 728 q 224 1 160 243 q 303 2 264 4 q 382 0 342 0 q 437 190 411 96 q 492 379 463 283 q 545 549 517 465 q 606 715 574 632 q 647 538 624 625 q 697 363 671 450 q 749 190 722 276 q 800 15 776 103 q 847 13 824 14 q 893 13 869 13 l 936 14 l 958 14 q 1076 488 1018 251 q 1193 963 1135 724 q 1167 964 1181 964 q 1140 964 1154 964 l 1117 964 l 1068 963 l 1044 963 q 959 564 1000 763 q 882 163 918 365 q 776 522 832 344 q 679 883 721 699 l 629 883 q 605 883 621 883 q 572 883 589 883 q 541 881 556 882 q 518 876 526 879 q 407 515 465 694 q 304 150 349 335 q 222 564 264 358 q 151 981 181 769 q 89 976 119 981 q 26 971 58 971 q 15 972 21 971 q 3 972 10 972 z "},"X":{"ha":828,"x_min":-62,"x_max":896,"o":"m 118 1004 q 172 1002 149 1004 q 224 986 196 1000 q 314 835 271 911 q 401 681 357 758 q 485 828 446 754 q 574 974 525 903 q 662 978 618 974 q 750 982 706 982 l 799 982 l 833 968 q 686 726 760 846 q 533 488 613 607 q 710 211 621 347 q 896 -60 800 75 q 779 -58 838 -60 q 663 -61 721 -56 l 628 -47 l 618 -33 q 511 128 564 47 q 406 292 458 210 q 358 219 385 261 q 303 133 331 178 q 250 47 275 89 q 211 -26 225 4 l 179 -26 l 114 -29 l 82 -29 q 47 -29 67 -29 q 8 -27 28 -29 q -31 -21 -12 -25 q -62 -8 -50 -17 q 118 244 29 118 q 290 501 207 371 q 228 597 260 550 q 164 692 196 643 q 66 845 114 768 q -29 1001 18 922 l 7 1001 l 82 1004 l 118 1004 m 19 974 q 169 736 90 851 q 324 501 249 621 q 158 256 244 375 q -12 15 72 138 q 31 13 10 13 q 75 13 53 13 l 132 15 l 160 15 q 269 197 213 107 q 383 376 325 288 q 415 327 399 351 q 447 278 431 303 l 578 81 q 610 31 594 56 q 642 -18 626 7 q 685 -16 664 -17 q 728 -15 706 -15 l 782 -18 l 808 -18 q 633 240 718 111 q 465 501 547 368 q 610 726 539 614 q 750 954 682 838 q 680 950 714 954 q 610 946 646 946 l 589 946 q 488 775 535 863 q 388 603 440 688 q 281 789 332 696 q 172 974 231 882 q 133 976 153 975 q 93 976 113 976 l 44 974 l 19 974 z "},"Z":{"ha":764,"x_min":-18,"x_max":781,"o":"m 556 999 q 618 999 588 999 q 681 1001 649 999 l 715 988 q 715 910 713 949 q 717 833 717 872 l 717 825 l 713 819 q 495 483 604 650 q 282 144 386 317 q 499 150 390 147 q 717 153 608 153 l 778 118 l 778 90 l 781 28 l 781 0 q 774 -42 781 -21 q 395 -37 583 -42 q 17 -44 207 -33 l -18 -31 q -15 50 -18 10 q -11 131 -11 90 l -7 136 q 215 474 103 308 q 438 811 328 640 q 276 817 357 814 q 115 819 196 819 l 81 833 q 82 924 81 879 q 78 1014 83 968 q 317 1006 199 1014 q 556 999 435 999 m 108 986 q 110 924 111 954 q 108 861 108 893 q 302 856 206 861 q 496 851 399 851 q 256 488 379 665 q 17 122 132 310 q 13 60 17 90 q 10 -1 10 31 q 200 2 106 1 q 390 3 294 3 l 608 0 l 717 0 q 716 25 717 6 q 715 67 715 44 q 715 106 715 89 q 717 125 715 124 q 453 121 583 125 q 189 117 322 117 q 420 483 300 303 q 654 847 540 663 l 654 872 l 650 921 l 650 946 l 651 972 q 380 976 514 967 q 108 986 246 986 m 679 958 q 678 952 679 956 q 678 946 678 949 l 679 958 z "},"K":{"ha":800,"x_min":53,"x_max":854,"o":"m 288 351 q 292 157 290 254 q 288 -37 294 60 l 244 -37 l 161 -42 l 118 -42 l 90 -42 l 56 -28 q 53 257 53 115 q 53 542 53 399 q 53 768 53 654 q 63 994 54 882 q 158 1006 108 1006 q 254 1008 207 1006 l 289 994 q 285 854 286 924 q 283 714 283 785 l 283 656 q 342 727 307 683 q 412 819 376 771 q 479 912 447 867 q 528 988 511 957 q 553 985 540 986 q 578 983 565 983 q 651 988 614 983 q 724 992 688 992 l 785 992 l 819 978 q 614 741 715 860 q 414 499 513 622 q 636 238 529 371 q 854 -25 743 106 q 747 -30 800 -25 q 639 -35 693 -35 q 623 -32 633 -35 q 601 -25 613 -29 q 581 -17 590 -21 q 567 -8 571 -12 q 494 82 528 32 q 425 176 460 132 q 288 351 358 265 m 588 10 q 604 7 593 7 q 682 12 643 7 q 760 17 721 17 q 553 265 656 142 q 343 511 451 389 q 530 740 435 628 q 724 964 625 851 q 651 960 688 964 q 578 956 614 956 q 560 956 569 956 q 542 958 551 957 q 389 747 467 850 q 222 544 311 643 q 221 636 221 590 q 221 728 221 682 q 225 979 221 854 q 156 976 190 976 q 89 971 122 976 q 82 700 83 835 q 81 429 81 565 l 85 206 l 85 93 l 83 0 l 115 0 l 178 4 l 208 4 l 226 4 q 228 69 228 36 q 228 133 228 101 q 226 303 228 218 q 224 474 225 388 q 408 244 319 361 q 588 10 496 126 z "},"Y":{"ha":772,"x_min":-57,"x_max":863,"o":"m -3 1000 l 106 996 l 160 996 l 194 982 q 299 759 242 868 q 411 540 356 650 q 508 767 463 653 q 608 992 553 882 q 717 988 661 985 q 828 990 774 990 l 863 976 q 694 643 776 810 q 524 311 611 476 q 528 214 528 263 q 526 124 528 169 q 524 33 524 79 q 524 -3 524 15 q 526 -40 525 -21 l 483 -40 l 400 -42 l 357 -42 l 329 -42 l 294 -28 q 298 93 293 33 q 303 214 303 153 q 303 235 303 221 q 302 264 303 249 q 300 293 301 279 q 297 314 299 307 q 258 403 282 358 q 214 489 235 447 q 78 745 147 619 q -57 1000 10 871 l -3 1000 m -11 972 q 114 737 50 853 q 239 501 178 621 q 260 460 247 485 q 285 410 272 436 q 310 361 299 385 q 325 321 321 338 q 328 301 326 315 q 330 269 329 286 q 331 237 331 253 q 331 214 331 221 q 327 107 331 161 q 322 0 324 53 q 392 1 358 0 q 463 1 426 3 q 463 115 460 60 q 465 228 465 171 q 461 331 465 278 q 622 647 544 488 q 782 963 699 806 q 703 961 742 963 q 625 963 665 960 q 512 705 563 836 q 399 447 461 574 q 268 706 336 579 q 142 968 200 833 l 103 968 l 28 972 l -11 972 z "},"S":{"ha":744,"x_min":-50,"x_max":767,"o":"m 381 -58 q 256 -42 318 -58 q 138 3 194 -26 q 33 76 81 33 q -50 169 -15 118 q 27 232 -11 201 q 103 294 65 263 l 138 281 q 228 184 174 219 q 357 149 283 149 q 415 160 386 149 q 466 192 443 172 q 503 240 489 213 q 517 297 517 267 q 481 357 517 333 q 393 401 446 381 q 278 446 340 422 q 164 506 217 469 q 76 598 111 543 q 40 738 40 653 q 73 871 40 818 q 158 956 106 924 q 276 1001 210 988 q 411 1014 343 1014 q 599 972 507 1014 q 747 853 690 931 l 767 826 q 682 776 719 806 q 603 719 644 747 l 568 733 q 499 794 536 774 q 410 815 463 815 q 364 808 388 815 q 321 789 340 801 q 289 757 301 776 q 276 713 276 738 q 312 651 276 676 q 400 603 347 626 q 514 555 453 581 q 628 492 575 529 q 716 400 681 454 q 751 267 751 346 q 720 130 751 190 q 637 28 689 69 q 518 -36 585 -14 q 381 -58 451 -58 m 346 -17 q 473 3 411 -17 q 583 62 535 24 q 660 155 631 100 q 689 281 689 210 q 653 406 689 356 q 565 491 618 456 q 451 551 513 526 q 338 599 390 575 q 249 653 285 624 q 214 726 214 682 q 228 781 214 757 q 267 822 243 806 q 319 848 290 839 q 375 857 347 857 q 427 851 399 857 q 483 833 456 844 q 534 806 510 822 q 574 771 558 790 q 630 814 603 792 q 690 851 657 836 q 567 953 643 919 q 411 986 492 986 q 288 975 349 986 q 178 935 226 964 q 99 859 129 907 q 68 738 68 811 q 103 606 68 657 q 192 520 139 554 q 306 464 244 486 q 421 420 368 442 q 509 371 474 399 q 544 297 544 343 q 528 228 544 261 q 486 172 513 196 q 426 135 460 149 q 357 121 392 121 q 285 131 324 121 q 211 158 247 140 q 144 199 175 175 q 97 251 114 222 q 43 207 71 228 q -12 164 15 186 q 145 31 50 79 q 346 -17 240 -17 z "},"U":{"ha":860,"x_min":38,"x_max":822,"o":"m 592 974 q 687 984 638 983 q 783 988 736 985 l 818 974 l 818 860 l 822 633 l 822 519 q 816 387 822 454 q 794 256 810 319 q 751 135 778 192 q 681 35 724 78 q 578 -31 638 -7 q 438 -56 518 -56 q 350 -47 388 -56 q 267 -18 313 -37 q 145 75 190 14 q 76 212 100 136 q 44 369 51 288 q 38 522 38 450 l 38 617 l 40 807 l 40 901 l 40 988 q 134 998 86 997 q 229 1001 182 999 l 264 988 l 264 871 l 263 639 l 263 522 q 271 354 263 438 q 279 293 274 326 q 297 231 285 260 q 331 181 310 201 q 388 161 351 161 q 495 199 456 161 q 555 292 535 236 q 581 410 575 347 q 586 524 586 474 q 586 597 586 560 q 588 669 586 633 l 590 765 q 592 838 592 801 q 592 911 592 875 l 592 974 m 760 640 l 756 853 l 756 958 q 688 956 721 956 q 619 950 654 956 q 617 737 621 843 q 614 524 614 631 q 607 397 614 465 q 576 271 600 329 q 508 173 553 213 q 388 133 463 133 q 303 153 335 133 q 251 206 271 174 q 223 281 232 239 q 208 365 214 322 q 200 536 200 450 l 200 646 l 201 863 l 201 972 q 135 969 168 969 q 68 964 101 968 q 67 743 69 853 q 65 522 65 633 q 69 401 65 464 q 87 279 74 339 q 123 166 100 219 q 183 73 146 113 q 274 10 221 33 q 403 -14 328 -14 q 586 38 517 -14 q 694 169 656 89 q 747 345 733 249 q 760 533 760 442 l 760 640 z "},"":{"ha":767,"x_min":35,"x_max":742,"o":"m 42 1043 q 93 1040 63 1042 q 155 1033 124 1038 q 215 1023 186 1029 q 263 1007 243 1017 q 263 848 263 928 q 265 689 264 768 q 417 736 333 736 q 471 732 444 736 q 524 717 497 728 l 558 703 q 640 649 606 683 q 698 571 675 614 q 731 478 721 528 q 742 381 742 429 q 722 238 742 314 q 663 96 703 161 q 565 -12 624 31 q 428 -56 506 -56 q 347 -41 388 -56 q 271 -8 307 -26 l 271 -96 l 272 -272 l 272 -360 q 213 -363 242 -360 q 153 -367 183 -367 q 93 -358 124 -367 q 36 -337 63 -349 l 36 -304 l 35 -237 l 35 -204 q 40 215 35 7 q 44 635 44 424 l 44 738 l 42 942 l 42 1043 m 200 997 q 135 1007 168 1003 q 69 1014 103 1011 q 72 824 71 918 q 72 635 72 731 q 67 215 72 424 q 63 -204 63 7 q 63 -260 63 -232 q 64 -317 63 -289 q 118 -325 90 -325 q 164 -322 142 -325 q 210 -318 186 -318 l 210 -221 l 208 -25 l 208 74 q 293 12 246 38 q 393 -14 340 -14 q 518 28 464 -14 q 608 131 572 69 q 661 263 643 192 q 679 394 679 335 q 663 511 679 454 q 615 612 647 568 q 533 682 582 656 q 417 708 483 708 q 296 676 347 708 q 204 590 244 643 q 200 997 200 794 m 208 225 q 208 329 208 278 q 206 433 207 381 q 243 481 221 458 q 292 522 265 504 q 349 551 319 540 q 408 563 378 563 q 467 550 443 563 q 505 517 490 538 q 526 468 519 496 q 532 410 532 440 q 522 326 532 375 q 492 234 513 278 q 439 159 471 190 q 363 128 407 128 q 317 137 339 128 q 276 160 296 146 q 238 191 256 174 q 208 225 221 208 m 504 410 q 502 444 504 425 q 494 481 500 464 q 475 509 488 497 q 443 521 463 521 q 392 511 418 521 q 344 486 367 501 q 301 451 321 471 q 268 411 282 432 q 270 316 269 363 q 271 221 271 269 q 317 174 294 193 q 363 156 339 156 q 426 185 399 156 q 470 254 453 214 q 496 338 488 294 q 504 410 504 381 z "},".":{"ha":258,"x_min":28,"x_max":242,"o":"m 147 150 q 213 122 185 147 q 242 56 242 96 q 234 16 242 36 q 213 -19 226 -4 q 182 -44 200 -35 q 143 -54 164 -54 q 97 -40 117 -54 q 44 -6 61 -36 q 28 57 28 25 q 33 94 28 75 q 49 129 39 114 q 76 154 60 144 q 113 164 92 164 l 147 150 m 179 69 q 159 116 179 96 q 113 136 139 136 q 69 109 82 136 q 56 57 56 82 q 68 10 56 33 q 108 -12 81 -12 q 159 15 139 -12 q 179 69 179 42 z "},":":{"ha":172,"x_min":-18,"x_max":196,"o":"m 100 663 q 135 656 118 663 q 167 636 153 649 q 188 606 181 624 q 196 569 196 589 q 188 531 196 550 q 167 495 181 511 q 135 469 153 479 q 97 458 118 458 q 51 474 74 458 q -1 508 15 478 q -18 571 -18 539 q 3 642 -18 608 q 65 676 24 676 l 100 663 m 133 583 q 113 629 133 610 q 65 649 93 649 q 23 622 36 649 q 10 571 10 596 q 22 524 10 547 q 63 500 35 500 q 90 508 76 500 q 113 528 103 515 q 128 555 122 540 q 133 583 133 569 m 100 149 q 135 142 118 149 q 167 122 153 135 q 188 92 181 110 q 196 56 196 75 q 188 17 196 36 q 167 -19 181 -3 q 135 -45 153 -35 q 97 -56 118 -56 q 51 -40 74 -56 q -1 -6 15 -36 q -18 57 -18 25 q 3 128 -18 94 q 65 163 24 163 l 100 149 m 133 69 q 113 115 133 96 q 65 135 93 135 q 23 108 36 135 q 10 57 10 82 q 22 10 10 33 q 63 -14 35 -14 q 90 -6 76 -14 q 113 14 103 1 q 128 41 122 26 q 133 69 133 56 z "},"-":{"ha":636,"x_min":47,"x_max":588,"o":"m 53 551 q 303 552 178 550 q 553 565 428 554 l 588 551 q 584 504 585 528 q 583 457 583 481 l 585 406 l 585 381 l 467 381 l 229 376 l 111 376 l 83 376 l 49 390 l 49 413 l 47 456 q 49 503 47 479 q 53 551 50 528 m 78 524 q 76 493 76 508 q 75 463 75 478 l 76 433 l 76 418 l 188 418 l 411 422 l 522 422 q 521 478 522 450 q 522 535 519 507 q 300 526 410 526 q 78 524 190 526 z "},"":{"ha":706,"x_min":47,"x_max":657,"o":"m 47 456 q 49 503 47 479 q 53 551 50 528 l 622 563 l 657 549 q 653 502 654 525 q 653 456 653 479 l 654 406 l 654 379 q 467 383 560 383 q 289 380 378 383 q 111 376 200 376 l 83 376 l 49 390 l 49 413 l 47 456 m 78 524 q 76 493 76 508 q 75 463 75 478 l 76 433 l 76 418 q 254 422 165 419 q 432 425 343 425 q 512 424 472 425 q 592 422 551 424 q 590 478 592 450 q 592 535 589 507 l 78 524 z "},"":{"ha":775,"x_min":47,"x_max":726,"o":"m 47 456 q 49 503 47 479 q 53 551 50 528 l 692 563 l 726 549 q 723 503 724 525 q 722 457 722 481 l 724 406 l 724 381 q 519 376 621 381 q 314 372 417 372 q 267 372 301 372 q 194 373 232 372 q 124 374 156 374 q 83 378 92 375 q 66 385 75 381 q 49 392 57 389 l 49 414 l 47 456 m 78 524 q 76 493 76 508 q 75 463 75 478 l 76 433 l 76 418 q 279 414 178 414 q 470 417 375 414 q 661 422 565 421 q 660 478 661 450 q 661 535 658 507 l 78 524 z "},"_":{"ha":636,"x_min":47,"x_max":588,"o":"m 47 -172 q 49 -124 47 -149 q 53 -76 50 -100 q 553 -64 303 -76 l 588 -78 q 584 -124 585 -101 q 583 -171 583 -147 l 585 -222 l 585 -247 l 467 -247 l 229 -251 l 111 -251 l 83 -251 l 49 -237 l 49 -215 l 47 -172 m 78 -104 q 76 -135 76 -119 q 75 -165 75 -150 l 76 -194 l 76 -210 l 188 -210 l 411 -206 l 522 -206 q 521 -149 522 -178 q 522 -93 519 -121 q 323 -100 422 -96 q 124 -104 224 -104 l 78 -104 z "},"|":{"ha":272,"x_min":40,"x_max":244,"o":"m 129 935 q 185 932 157 935 q 238 915 213 929 l 238 788 l 233 531 l 233 403 q 235 119 233 260 q 244 -164 238 -21 q 218 -161 232 -162 q 192 -160 204 -160 q 177 -160 185 -160 q 161 -161 169 -160 l 140 -164 q 125 -165 133 -165 q 108 -165 117 -165 l 81 -165 l 46 -151 q 50 391 46 118 q 40 933 54 664 l 63 933 l 107 935 l 129 935 m 175 904 q 144 906 160 906 q 114 907 129 907 l 85 906 l 69 906 q 75 603 74 754 q 76 300 76 451 l 74 17 l 74 -124 q 90 -124 82 -124 q 106 -122 99 -124 l 126 -119 q 142 -118 135 -118 q 157 -118 150 -118 q 169 -118 164 -118 q 181 -119 174 -118 q 174 149 176 15 q 171 417 171 282 q 172 660 171 539 q 175 904 174 782 z "},"/":{"ha":503,"x_min":-43,"x_max":546,"o":"m -43 -24 q 56 217 7 97 q 149 458 104 336 q 233 703 193 581 q 322 944 274 825 l 329 960 q 392 965 357 965 l 422 965 l 481 963 l 511 963 l 546 949 l 532 911 q 462 731 497 819 q 393 550 426 642 q 367 478 379 514 q 340 407 354 443 l 235 119 q 208 47 221 83 q 182 -25 196 11 l 175 -43 l 150 -43 l 99 -46 l 74 -46 q 14 -42 44 -46 q -43 -24 -17 -37 m -4 -1 q 28 -4 13 -4 q 60 -4 43 -4 l 100 -1 l 121 -1 q 293 468 208 235 q 471 935 378 701 l 451 935 l 411 938 q 380 938 396 938 q 349 935 364 938 q 326 874 338 904 q 304 814 315 844 l 218 569 q 196 509 207 539 q 174 449 185 479 q 88 223 132 335 q -4 -1 43 111 z "},"$":{"ha":756,"x_min":-10,"x_max":753,"o":"m 528 739 q 525 712 526 725 q 521 685 524 699 l 508 575 q 505 548 506 561 q 501 521 504 535 q 591 467 547 496 q 668 401 635 438 q 722 318 701 364 q 742 215 742 272 q 717 101 742 150 q 649 18 692 51 q 552 -33 607 -15 q 438 -54 497 -50 q 435 -69 436 -61 q 433 -85 435 -78 l 426 -143 q 424 -158 425 -150 q 422 -174 424 -167 q 374 -162 399 -165 q 324 -156 349 -158 q 275 -148 299 -153 q 233 -133 251 -143 q 242 -76 238 -104 q 251 -18 246 -47 l 249 -18 q 172 16 208 -7 q 103 68 136 39 q 42 130 71 97 q -10 194 14 163 q 67 252 31 224 q 135 318 103 281 l 169 304 q 215 235 192 265 q 278 181 239 204 q 281 209 281 196 q 285 238 282 222 l 299 353 q 302 381 301 368 q 306 410 303 394 q 219 455 263 431 q 140 512 175 479 q 82 587 104 544 q 60 683 60 629 q 88 795 60 747 q 162 876 117 843 q 263 926 207 908 q 375 950 319 944 q 382 1000 378 975 q 390 1050 386 1025 q 482 1038 435 1044 q 571 1013 529 1032 l 557 926 q 578 919 567 925 q 597 911 589 914 q 647 887 625 900 q 685 858 668 874 q 719 822 703 842 q 753 779 735 803 q 685 729 719 751 q 618 678 650 707 l 583 692 q 558 719 568 710 q 528 739 549 728 m 436 519 q 453 656 444 588 q 471 792 461 724 q 531 768 496 785 q 585 732 567 751 q 632 766 607 753 q 681 799 657 779 q 597 876 647 847 q 490 917 547 906 q 497 961 493 939 q 504 1006 500 983 q 459 1014 481 1011 q 414 1019 438 1017 q 406 972 410 996 q 399 924 401 947 q 291 906 346 921 q 191 863 236 892 q 117 789 146 833 q 88 683 88 744 q 111 592 88 631 q 171 522 135 553 q 251 469 207 492 q 335 426 294 446 q 318 282 326 354 q 300 138 310 210 q 203 188 247 153 q 131 271 158 224 q 81 227 107 244 q 29 189 56 210 q 140 74 78 124 q 282 1 203 24 q 274 -54 278 -26 q 265 -110 269 -82 q 315 -115 290 -112 q 364 -124 339 -117 q 365 -110 365 -117 q 367 -96 365 -103 l 375 -40 q 376 -26 376 -33 q 378 -12 376 -19 q 488 1 433 -12 q 584 44 542 15 q 653 119 626 74 q 679 229 679 165 q 658 328 679 285 q 602 407 636 372 q 524 469 568 442 q 436 519 481 496 m 225 697 q 241 745 225 725 q 281 778 257 765 q 331 799 304 792 q 381 806 358 806 q 365 685 372 744 q 351 565 358 626 q 312 588 333 575 q 271 618 290 601 q 238 654 251 635 q 225 697 225 674 m 344 749 q 306 724 325 740 q 288 683 288 707 q 302 648 288 663 q 329 619 317 633 q 331 635 331 628 q 333 651 332 643 l 340 717 q 342 733 342 725 q 344 749 343 740 m 393 132 q 407 258 400 196 q 421 385 414 321 q 458 363 439 375 q 494 336 478 351 q 522 302 511 321 q 532 261 532 283 q 519 213 532 235 q 485 174 506 190 q 441 147 465 157 q 393 132 417 136 m 504 261 q 497 290 504 276 q 478 314 489 303 q 476 299 476 307 q 475 283 476 290 l 467 222 q 465 207 465 215 q 464 192 465 199 q 492 222 481 204 q 504 261 504 240 z "},"":{"ha":847,"x_min":6,"x_max":857,"o":"m 650 696 q 592 749 622 732 q 513 767 561 767 q 426 738 463 767 q 367 668 390 710 q 492 670 429 669 q 617 671 554 671 l 651 657 q 648 611 649 633 q 647 565 647 589 l 649 515 l 649 489 q 553 493 600 492 q 458 494 507 494 q 388 494 422 494 q 317 492 353 493 l 315 446 q 465 450 390 447 q 614 460 539 453 l 649 446 q 645 400 646 422 q 644 354 644 378 l 646 307 l 646 283 q 497 281 571 283 q 347 275 422 278 q 369 230 356 253 q 399 188 382 207 q 438 158 417 169 q 486 146 460 146 q 606 177 556 146 q 689 268 657 208 l 724 254 q 790 198 756 224 q 857 144 825 172 q 791 67 826 103 q 715 3 756 31 q 626 -39 674 -24 q 525 -54 579 -54 q 403 -31 463 -54 q 227 86 293 14 q 119 268 161 158 l 42 268 l 7 282 q 8 362 7 322 q 7 442 10 401 q 42 442 25 442 q 76 443 58 442 q 74 465 75 454 q 74 486 74 475 l 42 486 l 7 500 l 7 522 l 6 565 q 7 613 6 589 q 11 660 8 636 l 31 660 l 71 661 l 90 661 q 229 879 132 800 q 475 958 326 958 q 568 949 521 958 q 659 919 615 939 q 741 871 703 900 q 807 804 779 842 l 822 783 q 753 734 789 756 q 685 682 717 713 l 650 696 m 653 736 q 701 770 676 756 q 750 803 726 785 q 628 900 703 869 q 475 931 554 931 q 238 851 333 931 q 113 633 143 771 l 93 633 l 56 632 l 36 632 q 34 610 35 621 q 33 588 33 599 q 34 558 33 572 q 35 528 35 543 l 51 528 l 83 529 l 100 529 q 108 415 100 471 l 90 415 l 54 414 l 36 414 q 37 362 39 388 q 35 310 35 336 q 84 310 60 310 q 133 311 108 310 q 185 192 153 250 q 262 89 217 135 q 364 15 307 43 q 490 -12 421 -12 q 657 35 582 -12 q 785 154 732 83 q 740 188 763 172 q 696 224 717 204 q 657 178 681 199 q 605 145 633 158 q 545 125 576 132 q 486 118 514 118 q 408 135 443 118 q 347 179 374 151 q 303 242 321 207 q 274 315 285 278 q 428 321 351 318 q 583 325 506 324 q 582 377 583 351 q 583 429 581 403 q 419 420 500 422 q 254 417 338 418 q 253 440 253 428 q 253 463 253 451 q 257 533 253 497 q 340 535 299 535 q 424 536 382 536 q 586 532 504 536 q 585 588 586 560 q 586 643 583 615 q 434 641 510 642 q 282 638 358 640 q 311 701 293 671 q 353 756 329 732 q 409 794 378 781 q 478 808 440 808 q 524 803 499 808 q 573 788 549 797 q 619 766 597 779 q 653 736 640 753 z "},"=":{"ha":628,"x_min":43,"x_max":583,"o":"m 49 549 q 294 551 171 547 q 540 565 418 554 l 575 551 q 572 504 572 528 q 571 457 571 481 l 572 408 l 572 383 q 340 380 454 383 q 107 376 225 376 l 79 376 l 44 390 l 44 413 l 43 454 q 44 501 43 478 q 49 549 46 525 m 74 521 q 72 492 72 506 q 71 463 71 478 l 72 433 l 72 418 q 291 422 182 418 q 510 425 400 425 q 508 480 510 453 q 510 535 507 507 q 292 525 400 526 q 74 521 183 524 m 54 328 q 301 335 179 335 q 549 342 424 335 l 583 328 q 580 281 581 304 q 579 235 579 258 l 581 183 l 581 158 q 333 159 456 158 q 85 153 210 160 l 50 167 l 50 189 l 49 233 q 50 281 49 257 q 54 328 51 304 m 79 301 q 77 271 78 286 q 76 240 76 256 l 78 211 l 78 196 q 281 200 179 200 l 518 200 q 517 256 518 228 q 518 313 515 285 q 299 310 408 310 q 79 301 189 310 z "},"":{"ha":733,"x_min":1,"x_max":747,"o":"m 119 540 q 127 696 119 621 q 165 829 135 771 q 253 923 194 888 q 411 958 311 958 q 593 912 519 958 q 725 778 667 865 q 660 726 693 750 q 596 672 628 701 l 561 686 q 505 749 535 719 q 429 778 475 778 q 381 764 399 778 q 356 729 364 750 q 345 683 347 708 q 343 635 343 658 l 343 613 l 344 567 l 344 543 q 453 549 399 546 q 563 557 508 553 l 597 543 q 594 496 594 519 q 593 449 593 472 l 594 397 l 594 372 q 469 372 532 372 q 344 369 407 371 q 344 253 344 311 q 342 138 343 196 q 527 142 435 139 q 713 149 619 144 l 747 135 q 744 88 744 111 q 743 40 743 64 l 744 -10 l 744 -35 q 601 -40 672 -37 q 457 -43 529 -43 l 376 -43 l 218 -42 l 138 -42 l 103 -28 q 113 168 107 71 q 121 364 118 265 l 38 364 l 3 378 l 3 400 l 1 443 q 3 490 1 467 q 7 538 4 514 q 63 540 35 540 q 119 540 92 540 m 32 511 q 30 481 31 496 q 29 450 29 465 l 31 421 l 31 406 l 60 406 l 119 407 l 149 407 q 143 203 147 304 q 132 0 139 103 l 204 0 l 350 -1 l 422 -1 q 552 0 488 -1 q 682 6 617 1 q 681 63 682 35 q 682 119 679 90 q 481 113 581 115 q 279 108 381 111 q 281 259 281 183 q 282 410 282 335 q 532 414 407 414 q 531 470 532 442 q 532 526 529 499 q 282 514 407 515 l 281 649 q 284 710 281 679 q 299 765 288 740 q 334 804 311 789 q 394 819 357 819 q 490 793 444 819 q 564 728 535 767 q 607 763 585 747 q 653 797 629 779 q 550 898 604 865 q 411 931 496 931 q 258 893 311 931 q 179 796 204 856 q 151 662 154 736 q 147 513 147 588 q 90 513 118 513 q 32 511 61 513 z "},"":{"ha":825,"x_min":51,"x_max":800,"o":"m 293 843 q 408 844 349 846 q 523 833 467 843 q 629 803 579 824 q 717 749 679 783 q 778 663 756 714 q 800 542 800 613 q 755 362 800 433 q 638 246 710 290 q 474 182 565 201 q 293 158 383 163 l 293 -40 l 257 -40 l 182 -44 l 146 -44 q 99 -41 122 -44 q 53 -26 75 -37 q 54 141 51 57 q 61 309 57 225 q 69 477 65 393 q 72 644 72 561 q 71 816 72 731 q 64 988 69 901 q 158 1001 111 996 q 253 1010 204 1007 l 288 996 q 291 919 290 957 q 293 843 292 882 m 231 200 q 407 217 317 201 q 571 273 497 233 q 691 381 644 313 q 738 556 738 450 q 708 689 738 638 q 628 769 678 740 q 515 808 579 797 q 381 818 450 818 q 306 815 343 818 q 232 810 269 813 q 230 895 231 853 q 226 981 229 938 q 93 964 160 976 q 98 803 96 883 q 100 644 100 724 q 92 322 100 482 q 81 -1 83 161 q 96 -3 88 -3 q 111 -3 104 -3 l 139 -3 l 193 1 l 219 1 l 231 1 l 231 200 m 232 410 l 233 592 l 233 682 q 313 694 274 689 q 392 699 351 699 q 532 660 483 699 q 581 526 581 622 q 547 410 581 451 q 463 350 514 369 q 351 326 413 331 q 232 319 289 321 l 232 410 m 294 350 q 388 360 342 354 q 470 383 433 365 q 530 433 507 400 q 553 526 553 467 q 547 591 553 565 q 525 631 540 617 q 485 651 510 646 q 426 657 461 657 q 296 644 360 657 q 296 497 296 569 q 294 350 296 425 z "},"(":{"ha":422,"x_min":14,"x_max":438,"o":"m 397 936 l 432 922 q 433 844 432 882 q 438 767 433 807 l 407 767 q 343 743 371 767 q 294 681 315 719 q 260 595 274 643 q 239 500 247 547 q 227 411 231 453 q 224 343 224 369 q 229 238 224 297 q 253 126 235 179 q 307 38 272 74 q 400 1 342 1 l 435 -12 q 435 -93 435 -53 q 429 -174 435 -133 q 225 -121 306 -174 q 98 16 144 -68 q 33 204 51 100 q 14 413 14 308 q 30 592 14 499 q 85 761 46 685 q 194 887 125 838 q 369 936 263 936 l 397 936 m 372 808 q 370 838 371 824 q 369 868 369 853 l 369 908 q 206 861 269 908 q 106 741 142 814 q 56 581 69 668 q 42 413 42 493 q 47 301 42 361 q 67 180 53 240 q 106 63 82 119 q 167 -36 131 7 q 253 -106 203 -79 q 369 -132 303 -132 q 372 -101 371 -117 q 372 -69 372 -85 l 372 -26 q 266 15 307 -26 q 201 117 225 57 q 169 242 178 176 q 161 357 161 308 q 165 433 161 388 q 178 528 169 478 q 203 628 188 578 q 242 718 218 678 q 297 783 265 758 q 372 808 329 808 z "},")":{"ha":426,"x_min":-15,"x_max":417,"o":"m -15 779 q -7 856 -7 818 l -11 890 l -11 908 l -11 936 q 193 885 111 936 q 325 751 275 833 q 396 564 375 668 q 417 354 417 460 q 399 176 417 268 q 340 6 382 83 q 227 -120 297 -71 q 53 -169 157 -169 l 28 -169 l -7 -156 q -11 -112 -10 -133 q -12 -68 -12 -92 l -10 -22 l -10 1 l 18 1 q 82 25 54 1 q 131 87 110 49 q 165 173 151 125 q 186 268 178 221 q 198 357 194 315 q 201 425 201 399 q 196 531 201 472 q 171 642 190 590 q 115 730 151 694 q 19 765 79 765 l -15 779 m 18 807 q 94 788 61 807 q 150 737 126 768 q 189 665 174 706 q 213 581 204 624 q 226 498 222 539 q 229 425 229 457 q 226 349 229 394 q 213 254 222 304 q 188 153 203 204 q 149 63 172 103 q 93 -1 125 24 q 18 -26 61 -26 l 18 -43 l 15 -75 q 16 -101 15 -89 q 18 -128 17 -114 q 181 -80 115 -128 q 284 41 246 -32 q 338 201 322 114 q 354 368 354 289 q 347 479 354 419 q 325 599 340 539 q 284 715 310 660 q 221 814 258 771 q 133 883 183 857 q 17 908 82 908 l 17 890 l 21 856 q 21 831 21 843 q 18 807 21 819 z "},"[":{"ha":426,"x_min":53,"x_max":457,"o":"m 56 933 q 238 930 147 928 q 421 932 329 932 l 456 918 q 456 888 456 903 q 454 858 456 874 l 451 819 q 450 790 450 804 q 450 760 450 775 q 359 758 404 760 q 268 756 314 757 q 272 614 271 685 q 274 472 274 543 q 272 233 274 351 q 268 -6 269 115 q 313 -3 288 -4 q 363 -4 338 -3 q 413 -10 389 -6 q 454 -24 436 -14 l 454 -49 l 457 -97 q 456 -138 457 -118 q 454 -178 456 -158 q 272 -176 363 -178 q 90 -179 182 -175 l 56 -165 l 56 -93 l 53 49 l 53 121 q 56 397 53 260 q 58 672 58 533 l 58 738 l 56 868 l 56 933 m 393 904 q 238 903 315 904 q 83 904 161 901 q 84 513 88 707 q 81 121 81 318 q 81 -8 81 56 q 83 -136 82 -71 q 238 -135 161 -133 q 393 -136 315 -136 l 393 -129 l 394 -115 l 394 -108 l 394 -90 l 392 -53 l 392 -35 q 360 -32 376 -32 q 328 -32 343 -32 l 297 -32 l 236 -35 l 206 -35 q 206 63 206 14 q 207 161 206 113 l 210 290 q 211 388 211 339 q 211 486 211 438 q 209 642 211 565 q 204 797 207 718 l 250 797 l 342 801 l 388 801 q 390 853 388 828 q 393 904 393 878 z "},"]":{"ha":425,"x_min":-29,"x_max":375,"o":"m 165 936 l 282 932 l 339 932 l 374 918 q 371 580 374 749 q 368 242 368 411 q 368 33 368 138 q 375 -175 368 -71 q 278 -178 326 -178 q 182 -179 231 -179 l 65 -176 l 8 -176 l -26 -162 l -26 -143 l -26 -103 q -26 -53 -26 -78 q -29 -4 -26 -29 q 65 -6 18 -4 q 158 -8 111 -7 q 155 374 158 185 q 151 757 151 564 l 11 757 l -24 771 q -28 815 -26 794 q -29 860 -29 836 l -26 906 l -26 929 q 41 935 7 933 q 108 936 75 936 l 165 936 m 1 888 l -1 853 q -1 826 -1 839 q 1 799 0 813 l 179 799 q 183 381 179 589 q 186 -36 186 174 l 140 -36 l 47 -32 l 1 -32 q 3 -49 3 -40 q 3 -67 3 -57 l 3 -83 l 1 -118 l 1 -135 l 53 -135 l 153 -137 q 232 -137 193 -137 q 311 -135 271 -136 q 307 61 308 -36 q 306 256 306 158 q 308 580 306 419 q 311 904 311 740 l 260 904 l 160 908 q 81 908 119 908 q 1 904 42 907 l 1 888 z "},"\r":{"ha":463,"x_min":0,"x_max":0,"o":""},"":{"ha":808,"x_min":24,"x_max":783,"o":"m 351 1008 q 458 1028 406 1017 q 565 1050 511 1039 l 600 1036 l 621 993 l 713 1031 l 747 1017 q 768 949 757 982 q 783 879 779 915 q 737 858 760 868 q 690 836 714 847 q 752 643 729 739 q 775 443 775 547 q 753 262 775 351 q 684 101 732 172 q 561 -12 636 31 q 381 -56 486 -56 q 247 -32 308 -56 l 213 -18 q 125 38 161 3 q 67 117 89 72 q 34 211 44 161 q 24 314 24 261 q 42 455 24 386 q 100 578 61 524 q 199 665 139 632 q 339 699 258 699 q 435 683 388 699 q 524 644 482 668 q 509 699 517 672 q 492 753 501 725 q 478 747 485 750 q 464 740 471 743 l 407 717 q 393 710 400 714 q 379 704 386 707 l 344 718 q 306 785 328 754 q 263 851 283 817 q 341 878 303 864 q 418 907 379 892 q 387 959 403 935 q 351 1008 371 983 m 550 1018 q 475 1002 513 1010 q 400 988 438 994 q 429 940 415 964 q 457 893 443 917 q 382 864 419 878 q 306 836 344 850 q 333 796 319 815 q 358 754 347 776 q 427 784 393 769 q 497 813 461 799 q 547 669 528 742 q 569 519 565 596 q 533 584 557 556 q 479 632 510 613 q 413 661 449 651 q 339 671 376 671 q 210 640 264 671 q 120 559 156 610 q 68 444 85 508 q 51 314 51 381 q 69 183 51 243 q 124 80 88 124 q 215 11 160 36 q 346 -14 271 -14 q 515 27 446 -14 q 628 135 585 68 q 692 285 672 201 q 713 457 713 369 q 687 665 713 567 q 619 864 661 764 q 669 886 644 875 q 718 910 694 897 q 708 952 715 932 q 694 993 701 972 q 638 970 667 982 q 582 946 610 958 q 578 955 579 950 q 574 964 576 960 l 558 1000 q 554 1009 556 1004 q 550 1018 553 1014 m 358 528 q 431 511 400 528 q 483 467 463 494 q 515 406 504 440 q 525 333 525 371 q 513 256 525 294 q 477 186 500 217 q 421 137 454 156 q 344 118 388 118 q 275 136 303 118 q 231 182 247 154 q 206 245 214 210 q 199 315 199 281 q 207 391 199 353 q 234 460 215 429 q 283 509 253 490 q 358 528 314 528 m 497 333 q 492 383 497 357 q 474 433 486 410 q 441 471 461 456 q 393 486 421 486 q 329 469 354 486 q 289 426 304 453 q 267 366 274 399 q 261 301 261 333 q 265 256 261 282 q 277 205 268 229 q 303 163 286 181 q 344 146 319 146 q 410 163 382 146 q 458 206 439 179 q 488 267 478 233 q 497 333 497 300 z "},"":{"ha":717,"x_min":35,"x_max":726,"o":"m 257 -36 q 224 -42 242 -40 q 189 -43 206 -43 l 160 -43 l 101 -39 l 72 -39 l 38 -25 l 38 43 l 35 179 l 35 247 l 35 389 l 39 672 l 39 814 q 49 851 39 833 q 72 882 58 868 q 138 930 99 908 q 219 967 176 951 q 307 992 263 983 q 389 1000 351 1000 q 458 994 424 1000 q 525 976 493 989 q 594 943 564 961 q 646 901 625 925 q 677 845 667 878 q 688 767 688 813 q 672 683 688 714 q 635 628 656 651 q 599 581 615 604 q 583 519 583 557 q 606 436 583 471 q 655 365 628 401 q 704 285 682 329 q 726 176 726 242 q 707 74 726 118 q 653 2 688 31 q 573 -41 619 -26 q 471 -56 526 -56 q 359 -36 417 -56 q 257 15 301 -17 l 257 -36 m 65 3 q 110 1 89 3 q 154 -1 132 -1 q 175 -1 165 -1 q 194 1 185 0 q 194 85 194 43 q 193 168 194 126 l 190 281 q 189 364 189 322 q 189 447 189 406 q 192 617 189 533 q 203 786 196 701 q 229 820 213 807 q 265 842 246 833 q 307 853 285 850 q 350 856 329 856 q 434 831 403 856 q 465 751 465 807 q 451 687 465 713 q 418 638 436 661 q 385 588 400 615 q 371 519 371 561 q 393 434 371 468 q 442 372 415 400 q 492 313 469 343 q 515 239 515 283 q 484 151 515 188 q 400 115 453 115 q 334 134 364 115 q 276 174 304 153 q 251 124 265 147 q 224 76 238 100 q 321 10 274 33 q 436 -14 368 -14 q 526 -1 485 -14 q 599 36 568 11 q 647 99 629 61 q 664 190 664 138 q 642 294 664 253 q 592 372 619 336 q 543 443 565 407 q 521 533 521 479 q 537 603 521 579 q 573 650 553 628 q 609 700 593 672 q 625 781 625 728 q 606 871 625 835 q 554 930 586 907 q 479 963 522 953 q 389 972 436 972 q 329 967 358 972 q 272 956 300 963 q 218 937 253 950 q 150 905 183 924 q 92 863 117 886 q 67 814 67 839 l 67 672 l 63 389 q 63 196 63 292 q 65 3 63 100 m 385 814 q 317 804 353 814 q 264 764 282 794 q 256 599 261 681 q 251 433 251 517 q 252 313 251 372 q 254 193 253 254 l 264 218 q 333 168 297 193 q 400 143 368 143 q 464 172 440 143 q 488 239 488 200 q 465 304 488 276 q 415 362 442 332 q 365 428 388 392 q 343 519 343 465 q 358 593 343 564 q 390 647 372 622 q 423 694 408 671 q 438 751 438 718 q 427 799 438 783 q 385 814 417 814 z "},"{":{"ha":471,"x_min":-32,"x_max":475,"o":"m 440 958 l 475 944 q 471 865 475 904 q 461 785 467 825 q 433 785 450 785 q 399 785 415 786 q 368 777 382 783 q 349 758 354 771 q 342 725 343 744 q 342 690 342 706 q 342 606 342 653 q 335 512 342 558 q 308 426 328 465 q 249 367 288 388 q 297 306 281 339 q 319 237 313 272 q 328 165 326 201 q 333 98 329 129 q 345 42 336 67 q 375 1 354 17 q 388 0 382 0 q 400 0 393 0 l 425 0 l 460 -14 l 460 -21 l 461 -33 q 458 -99 461 -67 q 451 -165 456 -132 q 392 -165 419 -165 q 340 -160 365 -164 q 290 -150 315 -157 q 233 -131 264 -143 q 176 -90 197 -117 q 145 -32 156 -64 q 132 36 135 0 q 129 107 129 72 q 124 185 129 144 q 104 263 119 226 q 78 301 92 289 q 49 319 65 314 q 13 327 33 325 q -32 335 -7 329 q -24 403 -28 368 q -14 469 -21 438 q 57 494 29 479 q 101 531 85 508 q 122 585 117 554 q 128 661 128 617 q 127 738 128 703 q 143 814 126 774 q 189 882 160 854 q 254 926 218 910 q 331 951 290 943 q 413 958 371 958 l 440 958 m 413 931 q 317 919 364 931 q 235 883 271 908 q 176 819 199 858 q 154 725 154 781 q 153 635 154 681 q 139 551 151 589 q 97 484 126 513 q 10 446 67 456 q 8 435 8 440 q 7 425 8 431 l 3 382 q 1 372 1 376 q 0 361 1 367 q 83 335 51 360 q 131 274 114 311 q 152 192 147 236 q 157 107 157 147 q 168 -10 157 35 q 206 -81 179 -56 q 277 -115 232 -106 q 392 -124 322 -124 q 396 -84 393 -104 q 399 -44 399 -64 l 399 -28 q 331 -12 356 -28 q 292 28 306 3 q 274 88 279 54 q 267 158 269 122 q 259 231 264 194 q 241 299 254 267 q 203 355 228 331 q 136 390 179 379 q 215 415 186 390 q 258 476 244 439 q 276 557 272 514 q 279 638 279 600 q 278 717 279 682 q 285 777 276 753 q 320 814 294 801 q 401 826 346 826 q 408 878 404 853 q 413 931 413 903 z "},",":{"ha":282,"x_min":-8,"x_max":307,"o":"m 61 161 q 165 197 111 185 q 272 225 219 210 l 307 211 q 245 1 276 106 q 178 -207 214 -103 q 131 -199 156 -200 q 82 -195 107 -197 q 34 -190 57 -193 q -8 -175 11 -186 l 1 -142 q 31 3 22 -71 q 57 147 39 76 l 61 161 m 85 142 q 59 -5 69 68 q 28 -150 49 -78 q 77 -153 53 -153 q 125 -160 101 -153 q 181 12 156 -74 q 232 185 207 97 q 158 165 194 174 q 85 142 121 157 z "},"^":{"ha":568,"x_min":-15,"x_max":575,"o":"m 214 517 q 132 513 172 513 q 94 513 111 513 q 63 517 78 514 q 32 524 47 519 q -1 539 17 529 l -15 554 l -4 572 q 19 609 7 592 q 42 646 31 626 l 132 796 q 155 833 143 815 q 178 869 167 850 q 263 889 219 881 q 350 900 306 897 l 385 886 q 423 799 399 846 q 474 705 447 753 q 527 610 500 657 q 575 524 554 564 q 543 522 560 522 q 511 521 526 521 q 451 519 479 521 q 392 513 424 517 l 357 526 q 340 553 350 536 q 319 589 329 571 q 300 624 308 607 q 289 653 292 642 l 214 517 m 163 557 q 217 657 193 606 q 269 760 242 708 q 317 657 294 708 q 371 557 339 606 q 433 563 399 563 q 465 562 449 563 q 496 563 481 561 q 412 715 456 640 q 332 871 368 790 q 263 860 296 868 q 194 844 229 851 q 109 700 150 772 q 19 557 68 628 q 31 555 19 556 q 56 554 43 554 q 82 554 69 554 q 97 554 94 554 q 130 554 114 554 q 163 557 146 554 z "},"&":{"ha":796,"x_min":14,"x_max":806,"o":"m 561 17 q 465 -39 517 -22 q 356 -56 414 -56 q 214 -29 279 -56 q 133 10 169 -11 q 69 61 96 32 q 28 128 43 90 q 14 219 14 167 q 51 359 14 296 q 140 475 89 422 q 108 582 121 528 q 96 692 96 636 q 111 809 96 753 q 159 908 126 865 q 241 975 192 950 q 358 1000 290 1000 q 456 982 410 1000 q 580 900 538 950 q 622 757 622 850 q 603 651 622 699 q 554 563 585 603 q 484 486 524 522 q 404 415 444 450 q 444 354 422 383 q 490 297 465 325 q 524 378 510 336 q 549 461 538 419 q 594 461 567 461 q 651 460 622 461 q 705 456 679 460 q 744 443 731 451 q 703 294 721 368 q 653 150 686 221 q 728 101 689 122 q 806 56 767 79 q 751 3 774 31 q 701 -56 729 -25 q 629 -22 664 -42 q 561 17 594 -3 m 660 -7 q 689 31 675 13 q 722 65 703 50 q 651 108 686 85 q 583 156 617 131 q 635 290 615 221 q 674 431 656 360 l 569 433 q 536 332 556 382 q 489 236 517 282 q 403 330 443 281 q 333 436 364 379 q 413 505 372 469 q 486 581 454 540 q 539 667 518 621 q 560 771 560 714 q 505 917 560 863 q 358 972 450 972 q 253 949 297 972 q 180 888 208 926 q 138 798 151 849 q 124 692 124 747 q 137 577 124 633 q 174 468 150 521 q 124 415 147 443 q 82 357 100 388 q 53 292 64 326 q 42 219 42 257 q 65 117 42 161 q 128 44 89 74 q 217 1 167 15 q 321 -14 268 -14 q 434 6 382 -14 q 528 71 486 26 q 592 31 560 50 q 660 -7 625 11 m 282 563 q 265 693 265 626 q 269 746 265 719 q 283 793 272 772 q 313 827 293 814 q 365 840 333 840 q 433 776 433 840 q 418 714 433 744 q 380 656 403 683 q 331 606 357 629 q 282 563 304 582 m 401 799 q 360 788 375 799 q 338 759 346 776 q 329 721 331 742 q 328 679 328 700 q 328 661 328 669 q 329 643 328 653 q 381 703 356 669 q 406 776 406 736 q 401 799 406 788 m 419 151 q 318 113 376 113 q 269 122 292 113 q 228 147 246 131 q 201 187 211 164 q 190 236 190 210 q 205 297 190 268 q 240 349 219 325 q 419 151 315 239 m 264 269 q 253 222 253 244 q 269 167 253 193 q 318 140 286 140 q 374 154 350 140 q 316 209 343 181 q 264 269 289 238 z "},"?":{"ha":572,"x_min":-21,"x_max":597,"o":"m 336 1013 q 428 996 383 1013 q 556 905 515 961 q 597 753 597 849 q 583 649 597 693 q 544 572 568 606 q 492 511 521 538 q 435 459 463 485 q 383 406 407 433 q 346 344 360 379 q 331 281 333 313 q 329 218 329 250 q 179 214 254 214 l 151 214 l 117 228 q 121 308 117 274 q 143 386 125 343 q 191 476 163 435 q 251 557 219 517 q 288 601 267 576 q 327 652 308 625 q 359 706 346 679 q 372 760 372 733 q 364 795 372 779 q 333 811 356 811 q 267 788 297 811 q 214 733 238 765 q 172 663 190 700 q 139 600 153 626 l 104 614 q 43 663 75 642 q -21 708 11 685 l -14 726 q 40 834 7 782 q 118 926 74 886 q 217 989 163 965 q 336 1013 272 1013 m 13 718 q 55 689 33 703 q 96 658 76 675 q 129 722 110 688 q 174 785 149 756 q 230 833 199 814 q 299 853 261 853 q 371 828 342 853 q 400 760 400 804 q 381 687 400 722 q 334 615 363 651 q 272 539 306 578 q 210 456 239 500 q 163 363 182 413 q 144 256 144 314 q 160 256 151 256 q 175 257 168 257 l 236 257 q 251 258 243 257 q 267 258 260 258 q 287 367 267 322 q 336 445 307 411 q 401 509 365 479 q 465 574 436 539 q 515 655 494 610 q 535 767 535 700 q 522 853 535 813 q 483 922 508 893 q 422 968 458 951 q 336 985 385 985 q 226 963 278 985 q 133 903 175 940 q 60 817 92 865 q 13 718 29 769 m 242 149 q 277 142 260 149 q 308 122 294 135 q 330 92 322 110 q 338 56 338 75 q 330 17 338 36 q 308 -19 322 -3 q 277 -45 294 -35 q 239 -56 260 -56 q 193 -40 215 -56 q 140 -6 157 -36 q 124 57 124 25 q 144 128 124 94 q 207 163 165 163 l 242 149 m 275 69 q 255 115 275 96 q 207 135 235 135 q 165 108 178 135 q 151 57 151 82 q 164 10 151 33 q 204 -14 176 -14 q 231 -6 218 -14 q 254 14 244 1 q 269 41 264 26 q 275 69 275 56 z "},"!":{"ha":251,"x_min":14,"x_max":246,"o":"m 26 414 l 28 521 l 28 574 q 23 783 28 679 q 14 992 18 886 l 211 1008 l 246 994 q 231 604 238 799 q 225 214 225 410 l 169 214 l 143 214 l 90 215 l 64 215 l 29 229 q 26 295 26 263 q 26 361 26 328 l 26 414 m 43 967 q 53 770 50 868 q 56 574 56 672 q 54 415 56 494 q 56 257 53 336 l 75 257 l 115 256 l 163 256 q 168 617 161 438 q 182 978 175 796 l 43 967 m 140 149 q 176 142 158 149 q 207 122 193 135 q 228 92 221 110 q 236 56 236 75 q 228 17 236 36 q 207 -19 221 -3 q 176 -45 193 -35 q 138 -56 158 -56 q 92 -40 114 -56 q 39 -6 56 -36 q 22 57 22 25 q 43 128 22 94 q 106 163 64 163 l 140 149 m 174 69 q 153 115 174 96 q 106 135 133 135 q 63 108 76 135 q 50 57 50 82 q 63 10 50 33 q 103 -14 75 -14 q 130 -6 117 -14 q 153 14 143 1 q 168 41 163 26 q 174 69 174 56 z "},"@":{"ha":1053,"x_min":28,"x_max":1024,"o":"m 239 247 q 278 134 250 181 q 347 58 306 88 q 443 16 389 29 q 561 3 497 3 l 593 3 l 628 -11 q 623 -53 625 -36 q 621 -97 621 -71 l 624 -149 l 624 -174 q 393 -149 501 -174 q 203 -65 285 -124 q 75 88 122 -7 q 28 319 28 182 q 62 526 28 433 q 160 686 96 619 q 317 789 225 753 q 525 825 410 825 q 734 790 642 825 q 891 689 826 754 q 990 531 956 624 q 1024 321 1024 438 q 1013 200 1024 260 q 974 92 1001 140 q 899 15 946 44 q 781 -15 853 -15 q 727 -9 756 -15 q 673 9 699 -3 q 626 39 647 21 q 594 82 606 57 q 540 52 568 63 q 479 42 511 42 q 393 58 432 42 q 324 101 354 74 q 272 167 293 129 q 239 247 250 204 m 589 544 l 592 488 q 535 545 568 528 q 454 563 501 563 q 304 502 356 563 q 253 346 253 442 q 264 258 253 304 q 299 172 275 211 q 358 108 322 133 q 444 83 394 83 q 533 111 496 83 q 599 178 569 139 q 638 66 606 106 q 746 26 671 26 q 853 54 811 26 q 919 126 894 82 q 952 226 943 171 q 961 335 961 281 q 933 524 961 439 q 851 670 906 610 q 715 764 796 731 q 525 797 633 797 q 328 763 415 797 q 181 667 242 729 q 88 516 121 604 q 56 319 56 428 q 93 115 56 200 q 197 -26 131 29 q 357 -106 264 -81 q 561 -132 450 -132 l 561 -121 q 560 -73 561 -97 q 561 -25 558 -49 q 401 -2 474 -25 q 278 66 329 21 q 198 179 226 111 q 169 339 169 247 q 194 483 169 419 q 263 590 218 546 q 373 658 308 635 q 517 682 438 682 q 662 656 600 682 q 765 584 724 631 q 826 472 806 538 q 846 328 846 407 q 843 278 846 313 q 833 210 840 244 q 810 149 825 175 q 772 122 796 122 q 742 142 754 122 q 724 192 731 161 q 714 260 717 224 q 710 332 711 297 q 709 394 708 367 q 710 433 710 421 q 708 494 708 464 q 704 556 707 525 l 589 544 m 454 590 q 509 582 486 590 q 560 565 532 574 l 560 569 l 724 585 q 644 631 685 621 q 551 640 603 640 q 410 616 478 640 q 296 532 343 592 q 369 577 328 564 q 454 590 410 590 m 768 533 q 772 419 772 476 q 772 359 772 392 q 773 292 772 326 q 778 226 774 258 q 790 168 782 193 q 803 203 797 182 q 812 246 808 224 q 817 290 815 268 q 818 328 818 311 q 807 434 818 381 q 768 533 796 488 m 597 261 q 567 238 583 250 q 532 215 550 225 q 494 197 514 204 q 457 190 475 190 q 415 203 432 190 q 389 236 399 217 q 376 278 379 256 q 372 322 372 301 q 376 369 372 344 q 391 413 381 393 q 419 445 401 432 q 465 458 438 458 q 536 441 501 458 q 594 396 571 424 q 597 328 596 363 q 597 261 597 294 m 567 385 q 537 409 551 401 q 500 417 522 417 q 467 406 479 417 q 447 378 454 394 q 438 342 440 361 q 435 308 435 324 q 440 261 435 289 q 460 218 444 233 q 488 224 472 218 q 517 239 503 231 q 546 257 532 247 q 569 275 560 267 q 569 330 569 303 q 567 385 568 357 z "},"":{"ha":501,"x_min":-29,"x_max":460,"o":"m -29 471 q 199 576 89 518 q 421 689 308 635 l 456 675 q 453 635 454 656 q 451 594 451 614 q 454 533 451 564 q 460 471 457 501 l 225 368 q 338 323 282 344 q 451 279 394 301 q 449 244 450 263 q 447 210 447 226 l 447 175 l 450 104 l 450 68 q 331 120 390 89 q 213 186 272 151 q 95 254 154 221 q -22 313 36 288 q -23 392 -22 353 q -29 471 -24 431 m 1 453 q 6 390 6 421 l 6 331 q 196 228 103 282 q 388 126 289 175 q 386 201 388 164 q 388 275 385 238 q 353 288 371 282 q 319 300 336 293 l 185 354 q 151 367 168 361 q 117 379 133 372 l 396 503 q 392 556 394 529 q 389 608 389 582 q 389 626 389 618 q 390 643 389 635 q 197 544 292 594 q 1 453 103 493 z "},"}":{"ha":471,"x_min":-4,"x_max":503,"o":"m -4 -151 q 0 -72 -4 -111 q 10 8 4 -32 q 38 8 21 8 q 72 8 56 7 q 103 16 89 10 q 122 35 117 22 q 128 68 128 49 q 129 103 129 88 q 129 188 129 140 q 136 281 129 235 q 163 367 143 328 q 222 426 182 406 q 160 522 174 468 q 143 628 147 575 q 133 725 139 681 q 96 792 128 769 q 83 793 89 793 q 71 793 78 793 l 46 793 l 11 807 l 11 814 l 10 826 q 13 892 10 860 q 19 958 15 925 q 78 958 51 958 q 131 953 106 957 q 181 943 156 950 q 238 924 207 936 q 294 883 274 908 q 326 824 315 857 q 339 756 336 792 q 342 686 342 721 q 347 608 342 649 q 367 531 351 567 q 384 501 374 515 q 410 476 394 486 q 457 472 435 472 q 503 458 479 472 q 495 391 499 425 q 486 324 492 357 q 414 301 442 315 q 371 263 386 286 q 349 208 356 240 q 343 132 343 175 q 344 55 343 90 q 328 -21 344 19 q 282 -89 311 -61 q 217 -133 253 -117 q 140 -158 181 -150 q 58 -165 100 -165 l 31 -165 l -4 -151 m 24 -124 q 119 -112 72 -124 q 201 -76 165 -101 q 260 -12 238 -51 q 282 82 282 26 q 283 172 282 126 q 297 256 285 218 q 340 323 310 294 q 426 361 369 351 q 428 372 428 367 q 429 382 428 376 l 433 425 q 435 435 435 431 q 436 446 435 440 q 353 472 385 447 q 306 533 322 496 q 284 615 289 571 q 279 700 279 660 q 268 817 279 772 q 231 888 257 863 q 158 922 204 913 q 44 931 113 931 q 40 891 43 911 q 38 851 38 871 l 38 835 q 106 819 81 835 q 144 778 131 804 q 162 719 157 753 q 169 649 167 685 q 177 576 172 613 q 195 508 182 540 q 233 452 208 476 q 300 417 257 428 q 221 392 250 417 q 178 331 192 368 q 160 250 164 293 q 157 169 157 207 q 158 90 157 125 q 151 30 160 54 q 116 -7 142 6 q 35 -19 90 -19 q 28 -71 32 -46 q 24 -124 24 -96 z "},";":{"ha":240,"x_min":-33,"x_max":282,"o":"m 136 663 q 172 656 154 663 q 203 636 189 649 q 224 606 217 624 q 232 569 232 589 q 224 531 232 550 q 203 495 217 511 q 172 469 189 479 q 133 458 154 458 q 88 474 110 458 q 35 508 51 478 q 18 571 18 539 q 39 642 18 608 q 101 676 60 676 l 136 663 m 169 583 q 149 629 169 610 q 101 649 129 649 q 59 622 72 649 q 46 571 46 596 q 58 524 46 547 q 99 500 71 500 q 126 508 113 500 q 149 528 139 515 q 164 555 158 540 q 169 583 169 569 m 36 161 q 140 197 86 185 q 247 225 194 210 l 282 211 q 220 1 251 106 q 153 -207 189 -103 q 106 -199 131 -200 q 57 -195 82 -197 q 9 -190 32 -193 q -33 -175 -14 -186 l -24 -142 q 6 3 -3 -71 q 32 147 14 76 l 36 161 m 60 142 q 34 -5 44 68 q 3 -150 24 -78 q 52 -153 28 -153 q 100 -160 76 -153 q 156 12 131 -74 q 207 185 182 97 q 133 165 169 174 q 60 142 96 157 z "},"'":{"ha":294,"x_min":35,"x_max":274,"o":"m 239 967 l 274 953 l 272 914 q 262 732 269 822 q 247 550 254 642 l 244 517 l 213 525 q 188 528 200 528 q 163 531 175 529 q 135 532 149 532 q 106 533 121 532 l 82 536 l 47 550 l 46 574 q 40 730 42 653 q 35 885 38 807 l 35 904 l 53 913 q 126 935 89 926 q 201 956 164 944 l 239 967 m 63 886 q 65 805 64 840 q 67 735 65 769 q 69 663 68 700 q 74 575 71 625 q 129 572 104 572 q 185 565 154 572 q 192 662 189 618 q 199 747 196 706 q 206 833 203 789 q 210 929 208 876 q 136 910 167 917 q 63 886 106 903 z "},"\"":{"ha":519,"x_min":43,"x_max":476,"o":"m 43 904 q 144 940 90 928 q 247 967 197 951 l 282 953 l 281 921 q 361 944 321 935 q 442 967 401 954 l 476 953 q 465 734 472 843 q 447 517 457 625 q 399 524 425 522 q 347 528 374 526 q 297 534 321 531 q 256 547 274 538 l 253 517 q 203 526 229 524 q 151 529 178 528 q 101 535 125 531 q 56 550 76 539 q 47 717 50 633 q 43 885 43 801 l 43 904 m 71 886 q 76 731 74 807 q 82 575 78 654 q 138 572 110 572 q 193 565 165 572 q 208 747 200 657 q 218 929 215 838 q 144 909 182 918 q 71 886 107 900 m 265 886 q 270 731 268 807 q 276 575 272 654 q 332 572 304 572 q 388 565 360 572 q 402 747 394 657 q 413 929 410 838 q 339 909 376 918 q 265 886 301 900 z "},"":{"ha":282,"x_min":-8,"x_max":307,"o":"m 61 161 q 165 197 111 185 q 272 225 219 210 l 307 211 q 245 1 276 106 q 178 -207 214 -103 q 131 -199 156 -200 q 82 -195 107 -197 q 34 -190 57 -193 q -8 -175 11 -186 l 1 -142 q 31 3 22 -71 q 57 147 39 76 l 61 161 m 85 142 q 59 -5 69 68 q 28 -150 49 -78 q 77 -153 53 -153 q 125 -160 101 -153 q 181 12 156 -74 q 232 185 207 97 q 158 165 194 174 q 85 142 121 157 z "},"":{"ha":513,"x_min":15,"x_max":511,"o":"m 85 161 q 189 197 135 185 q 296 225 243 210 l 331 211 l 322 183 q 361 194 344 190 l 438 214 q 476 225 454 218 l 511 211 q 449 1 481 106 q 382 -207 418 -103 q 341 -200 367 -203 q 289 -195 315 -197 q 241 -190 263 -193 q 211 -181 219 -186 q 206 -193 208 -186 q 201 -207 204 -200 q 155 -199 179 -200 q 106 -195 131 -197 q 57 -190 81 -193 q 15 -175 33 -186 l 25 -142 q 42 -70 35 -107 q 54 3 49 -33 q 65 75 60 39 q 81 147 71 111 l 85 161 m 108 142 q 83 -5 93 68 q 51 -150 72 -78 q 101 -153 76 -153 q 149 -160 125 -153 q 205 12 179 -74 q 256 185 231 97 q 181 165 218 174 q 108 142 144 157 m 289 142 q 263 -5 274 68 q 232 -150 253 -78 q 281 -153 257 -153 q 329 -160 306 -153 q 385 12 360 -74 q 436 185 411 97 q 362 165 399 174 q 289 142 325 157 z "},"":{"ha":513,"x_min":15,"x_max":511,"o":"m 85 890 q 189 926 135 914 q 296 954 243 939 l 331 940 l 322 913 q 361 924 344 919 l 438 943 q 476 954 454 947 l 511 940 q 449 731 481 835 q 382 522 418 626 q 341 529 367 526 q 289 534 315 532 q 241 540 263 536 q 211 549 219 543 q 206 536 208 543 q 201 522 204 529 q 155 531 179 529 q 106 534 131 532 q 57 540 81 536 q 15 554 33 543 l 25 588 q 42 659 35 622 q 54 732 49 696 q 65 804 60 768 q 81 876 71 840 l 85 890 m 108 871 q 83 724 93 797 q 51 579 72 651 q 101 576 76 576 q 149 569 125 576 q 205 741 179 656 q 256 914 231 826 q 181 894 218 903 q 108 871 144 886 m 289 871 q 263 724 274 797 q 232 579 253 651 q 281 576 257 576 q 329 569 306 576 q 385 741 360 656 q 436 914 411 826 q 362 894 399 903 q 289 871 325 886 z "},"":{"ha":513,"x_min":8,"x_max":504,"o":"m 318 947 q 365 939 340 940 q 414 935 389 938 q 462 930 439 933 q 504 915 485 926 l 494 882 q 465 738 474 811 q 439 593 457 664 l 435 579 q 331 543 385 556 q 224 515 276 531 l 189 529 l 197 557 q 158 546 175 550 l 82 526 q 43 515 65 522 l 8 529 q 70 739 39 635 q 138 947 101 843 q 178 940 153 943 q 230 935 204 938 q 278 930 256 933 q 308 921 300 926 q 313 933 311 926 q 318 947 315 940 m 376 613 q 402 759 392 686 q 433 904 413 832 q 384 907 408 907 q 336 914 360 907 q 280 742 306 828 q 229 569 254 657 q 303 589 267 581 q 376 613 340 597 m 196 613 q 222 759 211 686 q 253 904 232 832 q 203 907 228 907 q 156 914 179 907 q 99 742 125 828 q 49 569 74 657 q 123 589 86 581 q 196 613 160 597 z "},"":{"ha":282,"x_min":-8,"x_max":307,"o":"m 61 890 q 165 926 111 914 q 272 954 219 939 l 307 940 q 245 731 276 835 q 178 522 214 626 q 131 531 156 529 q 82 534 107 532 q 34 540 57 536 q -8 554 11 543 l 1 588 q 31 732 22 658 q 57 876 39 806 l 61 890 m 85 871 q 59 724 69 797 q 28 579 49 651 q 77 576 53 576 q 125 569 101 576 q 181 741 156 656 q 232 914 207 826 q 158 894 194 903 q 85 871 121 886 z "},"":{"ha":282,"x_min":-22,"x_max":293,"o":"m 107 947 q 153 939 129 940 q 203 935 178 938 q 251 930 228 933 q 293 915 274 926 l 283 882 q 254 738 263 811 q 228 593 246 664 l 224 579 q 119 543 174 556 q 13 515 65 531 l -22 529 q 40 739 8 635 q 107 947 71 843 m 165 613 q 191 759 181 686 q 222 904 201 832 q 173 907 197 907 q 125 914 149 907 q 69 742 94 828 q 18 569 43 657 q 92 589 56 581 q 165 613 129 597 z "},"*":{"ha":610,"x_min":-4,"x_max":613,"o":"m 0 671 q 36 743 18 707 q 78 813 54 779 q 140 785 110 801 q 201 753 171 768 q 200 825 200 789 q 200 897 200 861 l 222 897 l 265 899 l 288 899 q 344 895 315 899 q 396 879 372 892 l 396 850 l 397 792 l 397 763 l 496 813 l 531 799 q 572 729 554 765 q 608 657 590 693 l 501 603 q 541 584 521 593 q 582 567 561 575 l 547 581 l 613 554 q 570 480 589 518 q 531 404 551 442 q 464 433 497 415 q 400 468 431 451 q 404 396 401 432 q 410 324 407 360 q 363 327 386 326 q 315 328 339 328 l 264 326 l 239 326 l 204 340 l 204 451 q 158 428 181 440 q 113 404 136 417 l 78 418 q 38 494 57 456 q -4 568 19 532 q 52 592 24 579 q 108 617 81 604 l 0 671 m 88 776 q 61 731 72 754 q 38 683 50 707 l 71 667 l 139 632 l 172 615 q 106 585 139 600 q 38 556 72 569 q 64 506 53 532 q 89 456 75 481 q 160 492 125 475 q 232 528 196 510 l 232 368 q 288 369 260 368 q 344 368 317 371 q 336 532 339 449 l 485 456 q 510 506 499 481 q 536 556 521 532 q 404 617 472 582 l 536 683 q 513 731 524 707 q 486 776 501 754 q 410 738 449 757 q 335 700 372 719 q 335 784 335 742 q 333 868 335 826 q 303 870 318 869 q 272 871 288 871 l 243 869 l 228 869 l 228 828 l 229 744 l 229 703 q 158 740 193 722 q 88 776 124 758 z "},"":{"ha":572,"x_min":-24,"x_max":594,"o":"m 369 713 q 430 681 410 710 q 450 614 450 651 q 429 542 450 576 q 367 508 408 508 q 315 524 339 508 q 259 556 282 529 q 236 615 236 582 q 244 654 236 635 q 265 690 251 674 q 297 716 279 706 q 335 726 314 726 l 369 713 m 264 615 q 284 569 264 589 q 332 550 304 550 q 374 576 361 550 q 388 628 388 603 q 375 675 388 651 q 335 699 363 699 q 307 691 319 699 q 285 671 294 683 q 269 644 275 658 q 264 615 264 629 m 240 -140 q 306 -117 276 -140 q 359 -62 335 -94 q 402 7 383 -29 q 435 71 421 43 l 469 57 q 531 8 499 29 q 594 -37 563 -14 l 588 -56 q 533 -164 567 -112 q 456 -255 500 -215 q 356 -318 411 -294 q 238 -342 301 -342 q 146 -325 189 -342 q 17 -234 58 -290 q -24 -82 -24 -178 q -9 22 -24 -22 q 29 99 6 65 q 82 160 53 133 q 139 212 111 186 q 190 265 167 238 q 228 326 214 292 q 242 390 240 358 q 244 453 244 421 q 394 457 319 457 l 422 457 l 457 443 q 453 363 457 397 q 431 285 449 328 q 383 195 411 236 q 322 114 354 154 q 286 70 307 94 q 247 19 265 46 q 215 -35 228 -8 q 201 -89 201 -62 q 213 -131 201 -122 q 240 -140 225 -140 m 526 -33 q 484 -4 506 -18 q 443 26 463 10 q 408 -37 428 -3 q 364 -100 389 -71 q 308 -149 339 -129 q 240 -168 278 -168 q 168 -144 197 -168 q 139 -75 139 -119 q 158 -2 139 -37 q 205 70 176 33 q 267 146 233 107 q 328 228 300 185 q 376 322 357 272 q 394 429 394 371 q 379 428 388 429 q 364 428 371 428 l 303 428 q 288 427 296 428 q 272 426 279 426 q 252 318 272 363 q 203 240 232 274 q 138 176 174 206 q 74 110 103 146 q 24 29 44 75 q 4 -82 4 -17 q 17 -168 4 -128 q 56 -237 31 -208 q 117 -283 81 -267 q 203 -300 154 -300 q 313 -278 261 -300 q 406 -218 364 -256 q 478 -133 447 -181 q 526 -33 510 -85 z "},"":{"ha":250,"x_min":8,"x_max":240,"o":"m 151 711 q 212 679 192 708 q 232 613 232 650 q 211 541 232 575 q 149 507 190 507 q 97 522 121 507 q 41 554 64 528 q 18 614 18 581 q 26 653 18 633 q 47 688 33 672 q 78 715 61 704 q 117 725 96 725 l 151 711 m 46 614 q 66 568 46 588 q 114 549 86 549 q 156 575 143 549 q 169 626 169 601 q 157 674 169 650 q 117 697 144 697 q 89 690 101 697 q 67 669 76 682 q 51 642 57 657 q 46 614 46 628 m 111 456 l 164 454 l 190 454 l 225 440 q 228 374 228 407 q 228 308 228 342 l 228 256 l 226 149 l 226 96 q 231 -113 226 -10 q 240 -322 236 -217 l 43 -339 l 8 -325 q 23 65 17 -129 q 29 456 29 260 l 85 456 l 111 456 m 176 -283 q 167 -87 169 -185 q 164 110 164 11 q 165 268 164 189 q 164 426 167 347 l 144 426 l 104 428 l 85 428 l 57 428 q 51 67 58 246 q 38 -294 44 -112 l 176 -283 z "},"":{"ha":501,"x_min":43,"x_max":532,"o":"m 47 689 q 86 673 67 682 q 125 654 106 664 q 327 552 228 604 q 532 457 426 500 q 526 378 526 417 q 525 299 525 339 q 414 244 468 274 q 306 185 360 215 q 197 125 251 156 q 88 68 143 94 l 53 82 q 54 188 53 135 q 51 293 56 240 q 163 338 106 318 q 278 381 221 358 l 43 485 q 49 550 46 517 q 51 615 51 583 q 50 651 51 633 q 47 689 49 669 m 467 453 q 271 544 365 493 q 78 643 176 594 q 78 573 81 607 q 72 503 75 539 l 351 379 q 317 367 335 372 q 283 354 300 361 l 149 300 q 115 288 132 293 q 81 275 97 282 q 82 201 83 238 q 81 126 81 164 q 272 228 179 175 q 463 331 365 282 l 463 353 q 463 403 463 378 q 467 453 464 428 z "},"":{"ha":842,"x_min":0,"x_max":794,"o":"m 0 471 q 219 576 114 517 q 436 689 325 636 l 471 675 q 468 635 469 656 q 467 594 467 614 q 467 567 467 581 q 469 539 468 553 q 612 614 542 575 q 756 689 682 653 l 790 675 q 788 635 789 656 q 786 594 786 614 q 789 533 786 564 q 794 472 792 503 l 571 367 l 625 346 l 732 300 l 786 279 q 783 244 785 263 q 782 210 782 226 l 782 175 l 785 104 l 785 68 q 621 147 700 99 q 464 240 542 196 l 464 233 l 463 217 l 463 210 l 463 175 l 465 104 l 465 68 q 347 122 404 90 q 235 187 290 153 q 123 254 179 221 q 7 313 67 288 q 6 392 7 353 q 0 471 6 431 m 31 453 q 35 390 35 421 l 35 331 q 219 228 131 283 q 403 126 307 172 q 401 201 403 164 q 403 275 400 238 q 371 288 388 282 q 339 300 354 293 l 210 354 q 178 367 194 361 q 146 379 163 372 l 411 503 q 407 556 410 529 q 404 608 404 582 q 404 626 404 618 q 406 643 404 635 q 220 544 310 597 q 31 453 131 492 m 350 453 q 354 390 354 421 l 354 331 q 538 228 450 283 q 722 126 626 172 q 721 201 722 164 q 722 275 719 238 q 690 288 707 282 q 658 300 674 293 l 529 354 q 498 367 514 361 q 465 379 482 372 l 731 503 q 726 556 729 529 q 724 608 724 582 q 724 626 724 618 q 725 643 724 635 q 540 544 629 597 q 350 453 450 492 m 326 403 l 251 367 q 289 352 271 360 q 326 336 307 344 l 326 403 z "},"":{"ha":842,"x_min":49,"x_max":843,"o":"m 372 689 q 411 673 392 682 q 450 654 431 664 q 644 552 550 606 q 843 457 739 499 q 837 378 838 417 q 836 299 836 339 q 644 195 736 254 q 453 88 551 136 l 413 68 l 378 82 l 378 118 l 381 190 l 381 226 q 238 144 308 185 q 93 68 168 104 l 58 82 q 60 188 58 135 q 57 293 61 240 q 165 338 110 317 q 272 381 219 358 l 49 486 q 54 551 51 518 q 57 615 57 583 q 56 651 57 633 q 53 689 54 669 q 214 613 136 660 q 371 526 292 567 q 375 570 374 549 q 376 614 376 592 q 375 651 376 633 q 372 689 374 669 m 778 453 q 588 544 678 492 q 403 643 499 597 q 403 573 406 607 q 397 503 400 539 l 663 379 q 631 367 647 372 q 599 354 614 361 l 469 300 q 438 288 454 293 q 406 275 422 282 q 407 201 408 238 q 406 126 406 164 q 590 228 501 172 q 774 331 678 283 l 774 353 q 774 403 774 378 q 778 453 775 428 m 458 453 q 269 544 358 492 q 83 643 179 597 q 83 573 86 607 q 78 503 81 539 l 343 379 q 311 367 328 372 q 279 354 294 361 l 150 300 q 119 288 135 293 q 86 275 103 282 q 88 201 89 238 q 86 126 86 164 q 270 228 182 172 q 454 331 358 283 l 454 353 q 455 403 454 378 q 458 453 456 428 m 518 415 q 517 383 517 399 q 517 350 517 367 q 554 366 536 358 q 592 381 572 374 l 518 415 z "},"#":{"ha":822,"x_min":15,"x_max":806,"o":"m 311 263 q 289 137 300 200 q 267 11 278 74 l 240 11 l 188 8 l 161 8 q 104 12 133 8 q 50 29 75 15 l 96 258 q 76 258 86 258 q 57 257 67 258 l 22 271 l 22 293 l 21 338 q 22 385 21 361 q 26 432 24 408 q 78 435 53 435 q 129 438 103 436 l 154 565 q 103 564 128 564 q 51 564 78 564 l 17 578 l 17 600 l 15 642 q 17 688 15 665 q 21 735 18 711 q 104 738 63 738 q 188 738 146 738 q 207 853 199 796 q 228 969 215 911 q 275 974 251 972 q 322 975 299 975 l 381 972 l 408 972 l 443 958 l 397 739 q 411 740 404 739 q 425 740 418 740 l 479 740 q 493 741 486 740 q 507 742 500 742 q 527 856 518 799 q 547 969 536 913 q 594 974 571 972 q 642 975 618 975 l 700 972 l 728 972 l 763 958 q 740 853 751 906 q 718 749 728 801 l 763 754 l 797 740 q 794 692 794 717 q 793 644 793 668 l 794 596 l 794 571 q 740 571 767 571 q 685 569 713 571 l 663 443 q 717 444 690 443 q 771 446 743 444 l 806 432 q 802 385 803 408 q 801 339 801 363 l 803 288 l 803 263 l 631 263 q 608 137 619 200 q 586 11 597 74 l 560 11 l 507 8 l 481 8 q 424 12 453 8 q 369 29 394 15 l 415 263 l 311 263 m 403 53 q 435 50 419 50 q 467 50 450 50 l 507 53 l 528 53 q 550 178 539 115 q 572 304 561 242 q 656 303 614 303 q 740 304 699 304 q 739 360 740 332 q 740 417 738 389 q 666 415 703 415 q 592 415 629 415 q 608 513 600 464 q 626 611 617 563 q 679 613 653 613 q 732 613 706 613 q 731 667 732 640 q 732 722 729 694 q 689 719 710 719 q 646 717 668 718 q 669 831 657 775 q 693 944 681 888 l 674 944 l 633 947 q 602 947 618 947 q 571 944 586 947 q 551 829 561 886 q 531 714 542 772 q 428 712 479 713 q 325 711 376 711 q 349 828 336 769 q 374 944 361 886 l 354 944 l 314 947 q 283 947 299 947 q 251 944 267 947 q 232 827 242 886 q 211 710 222 768 q 128 710 169 710 q 46 708 88 710 q 44 679 44 693 q 43 650 43 665 l 44 621 l 44 606 l 81 606 l 154 607 l 190 607 l 153 411 q 140 410 146 411 q 128 410 135 410 l 76 407 q 64 406 69 407 q 51 406 58 406 q 49 375 50 390 q 49 344 49 360 l 50 315 l 50 300 q 91 302 71 301 q 132 303 111 303 l 119 240 l 96 115 l 83 53 q 115 50 100 50 q 147 50 131 50 l 188 53 l 208 53 q 231 178 219 115 q 253 304 242 242 l 453 304 q 426 178 439 242 q 403 53 414 115 m 513 611 q 508 587 510 599 q 503 563 506 575 l 483 464 q 478 440 481 451 q 474 415 476 428 q 372 415 422 415 q 271 414 322 415 q 288 511 279 463 q 306 608 296 560 l 513 611 m 364 567 l 342 443 l 451 443 l 476 568 l 364 567 z "},"+":{"ha":483,"x_min":-25,"x_max":507,"o":"m 138 594 l 136 678 l 136 721 l 158 721 l 200 722 l 222 722 q 278 719 250 722 q 329 703 306 715 q 330 629 329 667 q 332 556 331 592 q 402 560 368 557 q 472 565 436 563 l 507 551 q 503 504 504 528 q 503 457 503 481 l 504 408 l 504 383 l 461 383 l 378 382 l 335 382 q 337 340 336 361 q 339 297 338 319 l 346 211 q 299 215 322 214 q 251 215 275 215 l 203 214 l 178 214 l 143 228 q 143 303 143 265 q 142 378 143 340 q 76 376 110 376 q 11 376 43 376 l -24 390 l -24 413 l -25 454 q -24 501 -25 478 q -19 549 -22 525 l 19 549 l 99 551 l 138 551 l 138 594 m 6 521 q 3 492 4 506 q 3 463 3 478 l 4 433 l 4 418 q 86 419 44 418 q 168 421 128 419 q 170 338 169 379 q 171 256 171 297 q 226 257 199 256 q 281 256 253 258 q 275 339 278 297 q 271 422 272 381 q 356 424 314 424 q 442 425 399 425 q 440 480 442 453 q 442 535 439 507 q 356 529 399 532 q 269 525 313 526 q 269 608 269 567 q 267 692 268 650 q 238 694 251 693 q 208 694 224 694 l 179 693 l 164 693 q 165 608 164 650 q 167 524 165 567 q 86 523 126 524 q 6 521 46 522 z "},"%":{"ha":1142,"x_min":4,"x_max":1136,"o":"m 433 399 q 276 340 364 340 q 189 357 231 340 l 154 371 q 42 469 79 401 q 4 617 4 538 q 22 721 4 672 q 72 806 39 769 q 151 863 104 842 q 254 885 197 885 q 350 869 304 885 q 433 826 396 854 q 497 756 471 797 q 529 665 522 715 q 553 737 540 697 q 579 816 565 776 q 607 893 593 856 q 636 960 621 931 q 699 965 664 965 l 729 965 l 788 963 l 818 963 l 853 949 q 778 754 817 850 q 704 561 740 658 q 776 601 736 589 q 858 614 817 614 q 965 595 914 614 q 1053 542 1015 576 q 1114 460 1092 507 q 1136 354 1136 413 q 1118 247 1136 299 q 1067 156 1100 196 q 986 93 1033 117 q 881 69 939 69 q 793 86 835 69 q 722 122 753 103 q 667 168 690 142 q 631 229 644 194 q 611 308 617 264 q 548 133 579 221 q 482 -43 517 44 l 457 -43 l 406 -46 l 381 -46 q 321 -42 351 -46 q 264 -24 290 -37 q 351 187 308 82 q 433 399 393 292 m 303 -1 q 335 -4 319 -4 q 367 -4 350 -4 l 407 -1 l 428 -1 q 600 468 515 235 q 778 935 685 701 l 758 935 l 718 938 q 687 938 703 938 q 656 935 671 938 q 633 874 644 904 q 611 814 622 844 l 525 569 q 503 509 514 539 q 481 449 492 479 q 394 223 439 335 q 303 -1 350 111 m 254 857 q 162 838 203 857 q 92 785 121 818 q 47 709 63 753 q 32 617 32 665 q 46 528 32 571 q 87 453 60 485 q 153 401 114 421 q 242 382 192 382 q 335 403 293 382 q 408 461 378 425 q 453 544 438 497 q 469 639 469 590 q 453 726 469 686 q 409 796 438 767 q 341 841 381 825 q 254 857 301 857 m 236 494 q 166 526 185 494 q 147 603 147 557 q 153 653 147 628 q 171 698 158 678 q 204 730 183 718 q 254 742 225 742 q 330 707 306 742 q 354 625 354 672 q 324 533 354 571 q 236 494 294 494 m 326 625 q 326 648 326 635 q 320 672 325 661 q 306 692 315 683 q 278 700 296 700 q 226 668 242 700 q 210 589 210 636 q 219 538 210 554 q 253 522 229 522 q 308 552 289 522 q 326 625 326 582 m 858 586 q 766 567 807 586 q 696 515 725 547 q 651 438 667 482 q 636 346 636 394 q 650 257 636 300 q 691 182 664 214 q 757 131 718 150 q 846 111 796 111 q 940 133 897 111 q 1012 190 982 154 q 1058 273 1042 226 q 1074 368 1074 319 q 1058 456 1074 415 q 1013 525 1042 496 q 945 570 985 554 q 858 586 906 586 m 840 224 q 770 255 789 224 q 751 332 751 286 q 757 382 751 357 q 775 427 763 407 q 808 459 788 447 q 858 471 829 471 q 934 436 910 471 q 958 354 958 401 q 928 262 958 300 q 840 224 899 224 m 931 354 q 930 377 931 364 q 924 401 929 390 q 910 421 919 413 q 882 429 900 429 q 830 397 846 429 q 814 318 814 365 q 822 266 814 281 q 853 251 831 251 q 910 281 889 251 q 931 354 931 311 z "},"~":{"ha":843,"x_min":38,"x_max":804,"o":"m 590 253 q 501 270 544 253 q 419 308 457 288 q 353 345 382 328 q 307 363 324 363 q 278 349 286 363 q 267 315 269 335 q 265 276 264 296 q 267 242 267 256 l 72 242 l 38 256 q 48 369 38 313 q 84 470 58 425 q 154 543 110 515 q 268 571 199 571 q 339 560 307 571 q 399 533 371 550 q 455 496 428 517 q 511 454 482 475 q 531 453 518 453 q 558 465 550 453 q 569 494 567 476 q 569 530 571 511 q 568 561 568 549 l 769 564 l 804 550 q 796 442 804 496 q 764 347 788 389 q 699 279 740 306 q 590 253 657 253 m 204 283 q 205 324 204 303 q 212 363 206 346 q 232 392 218 381 q 272 404 246 404 q 337 387 307 404 q 399 349 367 369 q 469 312 432 329 q 556 294 507 294 q 644 315 608 294 q 701 370 679 336 q 733 447 724 404 q 742 536 742 490 l 596 533 q 595 494 596 514 q 589 460 594 475 q 569 435 583 444 q 531 425 556 425 q 464 444 490 425 q 410 484 438 463 q 351 524 383 506 q 268 543 318 543 q 174 520 213 543 q 112 461 136 497 q 76 378 88 425 q 65 283 65 331 l 204 283 z "},"<":{"ha":558,"x_min":-29,"x_max":515,"o":"m -29 471 q 225 576 100 524 q 476 689 350 628 l 511 675 q 508 635 510 656 q 507 594 507 614 q 510 532 507 563 q 515 469 513 501 l 239 368 q 374 327 308 349 q 507 279 440 306 q 504 244 506 263 q 503 210 503 226 l 503 175 l 506 104 l 506 68 q 468 83 486 75 q 431 101 450 92 q 213 204 322 154 q -7 306 103 254 l -22 313 q -23 392 -22 353 q -29 471 -24 431 m 1 453 q 6 390 6 421 l 6 331 q 224 228 114 278 q 443 126 335 179 q 442 201 443 164 q 443 275 440 238 q 383 296 413 286 q 321 315 353 306 l 239 339 q 177 358 207 349 q 117 379 147 368 l 451 503 q 447 556 450 529 q 444 608 444 582 q 444 626 444 618 q 446 643 444 635 q 225 544 336 590 q 1 453 114 497 z "},">":{"ha":560,"x_min":46,"x_max":590,"o":"m 50 689 q 89 673 69 682 q 128 654 108 664 q 357 551 242 599 q 590 457 472 504 q 584 378 585 417 q 583 299 583 339 q 335 185 458 244 q 90 68 213 126 l 56 82 q 57 188 56 135 q 54 293 58 240 q 188 340 118 322 q 325 379 258 358 q 184 430 254 406 q 46 483 114 454 q 51 549 49 515 q 54 615 54 582 q 53 651 54 633 q 50 689 51 669 m 525 453 q 301 544 413 497 q 81 643 190 590 q 81 573 83 607 q 75 503 78 539 l 410 379 q 349 358 379 368 q 288 339 319 349 l 206 315 q 144 296 174 306 q 83 275 114 286 q 85 201 86 238 q 83 126 83 164 q 302 228 192 179 q 521 331 413 278 l 521 353 q 522 403 521 378 q 525 453 522 428 z "},"":{"ha":258,"x_min":28,"x_max":242,"o":"m 146 858 q 181 851 164 858 q 213 832 199 844 q 234 802 226 819 q 242 765 242 785 q 234 726 242 746 q 213 691 226 707 q 181 665 199 675 q 143 654 164 654 q 97 669 119 654 q 44 704 61 674 q 28 767 28 735 q 49 838 28 804 q 111 872 69 872 l 146 858 m 179 779 q 159 825 179 806 q 111 844 139 844 q 69 818 82 844 q 56 767 56 792 q 68 719 56 743 q 108 696 81 696 q 135 703 122 696 q 158 724 149 711 q 174 751 168 736 q 179 779 179 765 z "},"":{"ha":508,"x_min":43,"x_max":465,"o":"m 161 858 q 219 840 193 860 q 253 789 244 819 q 278 847 257 821 q 335 872 300 872 l 369 858 q 405 851 388 858 q 436 832 422 844 q 458 802 450 819 q 465 765 465 785 q 458 726 465 746 q 436 691 450 707 q 405 665 422 675 q 367 654 388 654 q 321 669 343 654 q 276 694 293 674 q 253 742 260 715 q 219 681 244 708 q 158 654 194 654 q 113 669 135 654 q 60 704 76 674 q 43 767 43 735 q 64 838 43 804 q 126 872 85 872 l 161 858 m 194 779 q 174 825 194 806 q 126 844 154 844 q 84 818 97 844 q 71 767 71 792 q 83 719 71 743 q 124 696 96 696 q 151 703 138 696 q 174 724 164 711 q 189 751 183 736 q 194 779 194 765 m 403 779 q 383 825 403 806 q 335 844 363 844 q 292 818 306 844 q 279 767 279 792 q 292 719 279 743 q 332 696 304 696 q 359 703 346 696 q 382 724 372 711 q 397 751 392 736 q 403 779 403 765 z "},"":{"ha":561,"x_min":46,"x_max":515,"o":"m 50 815 q 266 816 158 815 q 481 831 374 817 l 515 817 q 512 772 513 793 q 511 726 511 750 l 513 681 l 513 658 l 421 658 l 239 654 l 147 654 l 81 654 l 46 668 l 46 744 q 50 815 46 779 m 75 788 q 74 766 74 776 q 74 744 74 756 l 74 696 l 113 696 l 197 696 l 365 700 l 450 700 q 449 749 450 725 q 450 799 447 774 q 263 788 357 788 q 75 788 169 789 z "},"":{"ha":236,"x_min":-32,"x_max":267,"o":"m 36 847 q 135 874 85 856 q 232 908 185 893 l 267 894 q 207 772 236 832 q 146 651 178 713 q 119 654 132 653 q 90 656 106 656 l 68 656 l 25 654 l 3 654 l -32 668 q 5 757 -15 713 q 36 847 25 801 m 58 824 q 34 759 47 790 q 8 696 21 728 q 52 697 31 696 q 96 694 74 697 q 138 777 119 735 q 178 861 157 819 q 118 841 147 851 q 58 824 89 831 z "},"`":{"ha":233,"x_min":-33,"x_max":265,"o":"m -33 908 q 57 876 11 893 q 147 850 103 860 q 173 844 161 847 q 197 833 185 840 q 228 743 208 788 q 265 654 249 699 l 225 654 q 174 654 199 654 q 122 651 149 654 l 88 665 q 26 786 56 726 q -33 908 -3 846 m 140 824 q 81 841 110 831 q 21 861 51 851 q 60 777 42 819 q 103 694 79 735 q 147 697 125 697 q 190 696 168 696 q 165 759 178 728 q 140 824 151 790 z "},"":{"ha":513,"x_min":36,"x_max":475,"o":"m 356 657 q 315 665 333 657 q 278 682 296 672 q 245 699 261 692 q 213 707 229 707 q 201 701 204 707 q 197 688 197 696 q 197 671 196 679 q 197 657 197 663 l 71 657 l 36 671 l 36 699 q 44 758 36 728 q 67 813 51 788 q 108 853 83 838 q 167 868 133 868 q 201 860 182 868 q 239 842 219 851 q 275 824 258 832 q 303 815 292 815 q 313 838 313 815 q 312 854 313 846 q 311 868 311 863 l 440 868 l 475 854 l 475 826 q 470 767 475 797 q 451 713 465 738 q 415 672 438 688 q 356 657 392 657 m 135 699 q 144 735 135 722 q 178 749 153 749 q 215 741 199 749 q 248 724 232 733 q 281 706 264 714 q 321 699 299 699 q 367 712 350 699 q 395 746 385 725 q 409 792 406 767 q 413 840 413 817 l 339 840 q 333 803 339 818 q 301 788 328 788 q 267 796 282 788 q 236 814 251 804 q 204 832 221 824 q 167 840 188 840 q 119 826 139 840 q 88 792 100 813 q 69 746 75 771 q 64 699 64 721 l 135 699 z "},"":{"ha":460,"x_min":25,"x_max":433,"o":"m 111 904 q 159 901 136 904 q 206 886 182 897 q 204 866 206 879 q 204 840 203 853 q 229 811 206 811 q 251 819 244 811 q 261 841 258 828 q 264 870 264 854 q 264 901 264 886 q 292 899 278 900 q 319 897 306 897 l 339 897 l 379 899 l 399 899 l 433 885 l 433 857 q 385 713 433 769 q 244 657 336 657 q 167 671 203 657 q 58 746 90 701 q 25 875 25 790 l 25 903 l 47 903 l 89 904 l 111 904 m 53 875 q 90 749 53 799 q 210 699 128 699 q 330 747 289 699 q 371 871 371 794 q 331 869 351 871 q 292 871 311 868 q 274 807 292 831 q 214 783 256 783 q 156 809 169 783 q 143 875 143 835 q 127 876 135 876 q 111 876 119 876 l 97 876 l 68 875 l 53 875 z "},"":{"ha":408,"x_min":25,"x_max":382,"o":"m 188 985 q 254 972 222 985 q 304 949 281 961 q 345 919 328 936 q 372 878 363 901 q 382 822 382 856 q 369 757 382 788 q 333 703 356 726 q 281 667 311 681 q 215 654 250 654 q 156 665 186 654 q 102 690 126 676 q 61 722 78 704 q 35 765 44 740 q 25 825 25 790 q 72 940 25 896 q 188 985 118 985 m 188 957 q 91 920 129 957 q 53 825 53 883 q 89 733 53 769 q 181 696 125 696 q 235 707 210 696 q 278 737 260 718 q 308 781 297 756 q 319 836 319 807 q 309 886 319 864 q 281 924 299 908 q 238 949 263 940 q 188 957 214 957 m 176 761 q 139 777 149 761 q 129 817 129 793 q 142 867 129 844 q 188 890 156 890 q 228 872 214 890 q 243 829 243 854 q 225 780 243 799 q 176 761 207 761 m 215 829 q 213 847 215 836 q 196 828 200 842 q 192 803 192 815 l 192 792 q 210 806 204 796 q 215 829 215 817 z "},"":{"ha":389,"x_min":-15,"x_max":404,"o":"m -15 667 q 53 788 17 729 q 119 910 89 847 q 152 906 136 907 q 185 906 168 906 l 222 907 l 242 907 l 276 893 q 338 772 303 831 q 404 651 374 713 q 369 655 386 653 q 333 657 351 657 l 313 657 l 272 654 l 251 654 l 217 668 q 208 690 213 679 q 197 711 203 700 q 194 704 194 708 q 190 697 193 700 l 178 669 q 174 663 175 667 q 171 656 174 658 q 147 652 160 653 q 122 651 133 651 l 96 651 l 46 653 l 19 653 l -15 667 m 44 694 l 74 693 l 88 693 q 102 693 94 693 q 117 694 110 693 q 147 754 129 726 q 179 813 164 782 q 208 754 194 783 q 235 696 221 725 q 278 698 257 696 q 322 697 300 700 q 272 788 299 744 q 224 879 244 831 q 179 878 201 879 q 135 879 157 876 q 82 788 108 833 q 31 694 56 742 l 44 694 z "},"":{"ha":383,"x_min":-18,"x_max":401,"o":"m 290 904 l 340 903 l 367 903 l 401 889 q 333 767 369 826 q 267 646 297 708 q 234 649 250 649 q 201 650 218 650 l 164 649 l 144 649 l 110 663 q 48 784 83 725 q -18 904 13 843 q 17 901 0 903 q 53 899 35 899 l 74 899 l 114 901 l 135 901 l 169 888 q 178 866 174 876 q 189 844 183 856 q 192 851 192 847 q 196 858 193 856 l 208 886 q 212 893 211 889 q 215 900 213 897 q 264 904 240 904 l 290 904 m 307 875 l 278 876 l 264 876 q 249 876 257 876 q 235 875 242 876 q 205 815 222 843 q 172 757 188 788 q 144 815 157 786 q 117 874 131 844 q 73 872 94 874 q 29 872 51 869 q 80 782 53 825 q 128 690 107 739 q 172 692 150 690 q 217 690 194 693 q 269 782 243 736 q 321 875 296 828 l 307 875 z "},"":{"ha":433,"x_min":4,"x_max":428,"o":"m 4 -208 q 31 -112 4 -156 q 95 -31 57 -68 q 178 38 133 7 q 261 97 224 69 q 292 83 274 94 q 331 58 311 72 q 369 28 351 43 q 397 6 388 14 q 347 -37 378 -12 q 288 -88 317 -61 q 238 -144 258 -115 q 217 -201 217 -174 q 224 -226 217 -217 q 242 -236 231 -236 q 259 -227 253 -236 q 269 -204 265 -218 q 273 -174 272 -190 q 274 -143 274 -157 q 353 -158 308 -150 q 428 -183 397 -167 q 378 -333 428 -278 q 231 -389 329 -389 q 140 -372 183 -389 q 85 -347 110 -360 q 42 -315 60 -333 q 14 -270 24 -296 q 4 -208 4 -244 m 261 63 q 188 10 228 38 q 114 -51 149 -18 q 56 -122 79 -83 q 32 -208 32 -161 q 45 -271 32 -244 q 81 -314 58 -297 q 134 -339 104 -331 q 196 -347 164 -347 q 316 -307 267 -347 q 365 -192 365 -267 l 301 -178 q 280 -239 301 -214 q 222 -264 258 -264 q 170 -239 186 -264 q 154 -182 154 -214 q 172 -123 154 -151 q 216 -69 190 -94 q 270 -23 242 -44 q 319 18 299 -1 l 261 63 z "},"":{"ha":447,"x_min":-3,"x_max":449,"o":"m 118 76 q 153 72 131 75 q 201 63 176 68 q 248 53 226 58 q 281 40 269 47 l 269 -32 q 340 -53 307 -39 q 397 -88 372 -67 q 435 -140 421 -110 q 449 -211 449 -169 q 433 -287 449 -254 q 392 -342 418 -319 q 331 -377 367 -365 q 256 -389 296 -389 q 167 -372 208 -389 q 107 -345 131 -358 q 66 -317 83 -332 q 33 -280 49 -301 q -3 -225 17 -258 l 85 -156 l 119 -169 q 161 -211 144 -197 q 197 -225 178 -225 q 213 -224 204 -225 q 231 -219 222 -222 q 245 -210 239 -215 q 251 -194 251 -204 q 233 -167 251 -176 q 192 -155 215 -158 q 144 -151 168 -151 q 108 -151 121 -151 l 74 -137 l 118 76 m 140 44 l 108 -110 q 156 -113 126 -110 q 213 -126 185 -117 q 260 -151 240 -135 q 279 -194 279 -168 q 252 -240 279 -226 q 197 -253 225 -253 q 133 -237 160 -253 q 82 -193 106 -221 l 33 -232 q 111 -316 64 -285 q 221 -347 158 -347 q 338 -309 290 -347 q 386 -197 386 -271 q 371 -129 386 -157 q 329 -85 356 -101 q 269 -60 303 -68 q 201 -53 236 -53 l 214 32 l 140 44 z "},"":{"ha":428,"x_min":-7,"x_max":433,"o":"m 61 847 q 160 874 110 856 q 257 908 210 893 l 292 894 l 279 868 q 338 888 308 879 q 399 908 368 897 l 433 894 q 374 772 403 832 q 313 651 344 713 q 285 654 299 653 q 257 656 272 656 l 115 656 l 93 656 l 50 654 l 28 654 l -7 668 q 30 757 10 713 q 61 847 50 801 m 83 824 q 59 759 72 790 q 33 696 46 728 q 77 697 56 696 q 121 694 99 697 q 163 777 144 735 q 203 861 182 819 q 143 841 172 851 q 83 824 114 831 m 225 824 q 201 759 214 790 q 175 696 188 728 q 219 697 197 696 q 263 694 240 697 q 305 777 286 735 q 344 861 324 819 q 285 841 314 851 q 225 824 256 831 z "},"":{"ha":258,"x_min":28,"x_max":242,"o":"m 146 543 q 181 536 164 543 q 213 517 199 529 q 234 487 226 504 q 242 450 242 469 q 234 411 242 431 q 213 376 226 392 q 181 349 199 360 q 143 339 164 339 q 97 354 119 339 q 44 389 61 358 q 28 451 28 419 q 49 523 28 489 q 111 557 69 557 l 146 543 m 179 464 q 159 510 179 490 q 111 529 139 529 q 69 503 82 529 q 56 451 56 476 q 68 404 56 428 q 108 381 81 381 q 135 388 122 381 q 158 408 149 396 q 174 435 168 421 q 179 464 179 450 z "},"":{"ha":633,"x_min":-18,"x_max":594,"o":"m 133 1026 q 224 994 178 1011 q 314 968 269 978 q 340 962 328 965 q 364 951 351 958 q 395 861 375 906 q 432 772 415 817 l 392 772 q 340 772 365 772 q 289 769 315 772 l 254 783 q 193 904 222 844 q 133 1026 164 964 m 307 942 q 247 959 276 949 q 188 979 218 969 q 227 895 208 938 q 269 813 246 853 q 313 815 292 815 q 357 814 335 814 q 331 877 344 846 q 307 942 318 908 m 371 458 q 368 508 371 479 q 349 551 365 536 q 289 542 314 551 q 244 517 264 533 q 206 481 224 501 q 168 435 188 460 q 128 455 151 439 q 81 491 106 471 q 31 531 56 511 q -11 563 7 550 q 58 629 25 597 q 128 685 92 661 q 208 722 165 708 q 306 736 251 736 q 384 728 351 736 q 458 703 417 719 q 539 642 511 682 q 579 553 567 601 q 593 451 592 504 q 594 351 594 399 q 594 277 594 314 q 593 203 594 240 l 590 104 q 589 30 589 67 q 589 -44 589 -7 q 546 -40 568 -42 q 503 -39 524 -39 q 456 -40 479 -39 q 408 -43 432 -42 l 374 -29 l 374 -28 q 321 -49 349 -43 q 264 -56 293 -56 q 158 -35 208 -56 q 68 22 107 -14 q 6 107 29 58 q -18 213 -18 156 q 21 335 -18 288 q 118 409 60 382 q 244 446 176 436 q 371 458 313 456 m 32 567 q 81 528 58 549 q 129 488 104 507 q 203 561 163 529 q 301 593 244 593 q 353 581 335 593 q 383 550 372 569 q 396 506 393 531 q 399 454 399 481 l 399 431 q 320 428 363 431 q 235 417 278 425 q 151 393 192 408 q 78 353 110 378 q 28 294 47 329 q 10 213 10 260 q 27 126 10 167 q 74 53 44 85 q 143 4 103 22 q 229 -14 183 -14 q 322 8 281 -14 q 397 67 363 31 q 398 33 397 50 q 400 0 399 17 q 526 0 463 4 q 529 183 526 92 q 532 365 532 274 q 528 494 532 432 q 503 603 525 556 q 436 680 482 651 q 306 708 390 708 q 224 698 261 708 q 154 669 188 688 q 91 624 121 650 q 32 567 61 597 m 397 193 q 365 159 382 176 q 330 128 349 142 q 290 105 311 114 q 243 96 268 96 q 169 126 194 96 q 144 203 144 157 q 172 274 144 250 q 238 309 199 299 q 322 320 278 319 q 399 321 365 321 l 399 289 l 397 225 l 397 193 m 371 278 q 319 276 347 278 q 265 265 290 274 q 224 238 240 256 q 207 189 207 219 q 217 139 207 154 q 243 124 228 124 q 315 150 285 124 q 369 204 344 176 q 369 241 369 224 q 371 278 369 258 z "},"":{"ha":633,"x_min":-18,"x_max":594,"o":"m 296 965 q 394 992 344 974 q 492 1026 444 1011 l 526 1013 q 467 890 496 950 q 406 769 438 831 q 378 772 392 771 q 350 774 365 774 l 328 774 l 285 772 l 263 772 l 228 786 q 265 875 244 831 q 296 965 285 919 m 318 942 q 294 877 307 908 q 268 814 281 846 q 312 815 290 814 q 356 813 333 815 q 398 895 379 853 q 438 979 417 938 q 378 959 407 969 q 318 942 349 949 m 371 458 q 368 508 371 479 q 349 551 365 536 q 289 542 314 551 q 244 517 264 533 q 206 481 224 501 q 168 435 188 460 q 128 455 151 439 q 81 491 106 471 q 31 531 56 511 q -11 563 7 550 q 58 629 25 597 q 128 685 92 661 q 208 722 165 708 q 306 736 251 736 q 384 728 351 736 q 458 703 417 719 q 539 642 511 682 q 579 553 567 601 q 593 451 592 504 q 594 351 594 399 q 594 277 594 314 q 593 203 594 240 l 590 104 q 589 30 589 67 q 589 -44 589 -7 q 546 -40 568 -42 q 503 -39 524 -39 q 456 -40 479 -39 q 408 -43 432 -42 l 374 -29 l 374 -28 q 321 -49 349 -43 q 264 -56 293 -56 q 158 -35 208 -56 q 68 22 107 -14 q 6 107 29 58 q -18 213 -18 156 q 21 335 -18 288 q 118 409 60 382 q 244 446 176 436 q 371 458 313 456 m 32 567 q 81 528 58 549 q 129 488 104 507 q 203 561 163 529 q 301 593 244 593 q 353 581 335 593 q 383 550 372 569 q 396 506 393 531 q 399 454 399 481 l 399 431 q 320 428 363 431 q 235 417 278 425 q 151 393 192 408 q 78 353 110 378 q 28 294 47 329 q 10 213 10 260 q 27 126 10 167 q 74 53 44 85 q 143 4 103 22 q 229 -14 183 -14 q 322 8 281 -14 q 397 67 363 31 q 398 33 397 50 q 400 0 399 17 q 526 0 463 4 q 529 183 526 92 q 532 365 532 274 q 528 494 532 432 q 503 603 525 556 q 436 680 482 651 q 306 708 390 708 q 224 698 261 708 q 154 669 188 688 q 91 624 121 650 q 32 567 61 597 m 397 193 q 365 159 382 176 q 330 128 349 142 q 290 105 311 114 q 243 96 268 96 q 169 126 194 96 q 144 203 144 157 q 172 274 144 250 q 238 309 199 299 q 322 320 278 319 q 399 321 365 321 l 399 289 l 397 225 l 397 193 m 371 278 q 319 276 347 278 q 265 265 290 274 q 224 238 240 256 q 207 189 207 219 q 217 139 207 154 q 243 124 228 124 q 315 150 285 124 q 369 204 344 176 q 369 241 369 224 q 371 278 369 258 z "},"":{"ha":633,"x_min":-18,"x_max":594,"o":"m 118 785 q 186 906 150 847 q 253 1028 222 965 q 285 1024 269 1025 q 318 1024 301 1024 l 356 1025 l 375 1025 l 410 1011 q 472 890 436 949 q 538 769 507 831 q 502 773 519 771 q 467 775 485 775 l 446 775 l 406 772 l 385 772 l 350 786 q 341 808 346 797 q 331 829 336 818 q 327 822 328 826 q 324 815 326 818 l 311 788 q 308 781 308 785 q 304 774 307 776 q 280 770 293 771 q 256 769 267 769 l 229 769 l 179 771 l 153 771 l 118 785 m 178 813 l 207 811 l 221 811 q 235 811 228 811 q 250 813 243 811 q 280 872 263 844 q 313 931 297 900 q 341 872 328 901 q 368 814 354 843 q 412 816 390 814 q 456 815 433 818 q 405 906 432 863 q 357 997 378 949 q 313 996 335 997 q 268 997 290 994 q 215 906 242 951 q 164 813 189 860 l 178 813 m 371 458 q 368 508 371 479 q 349 551 365 536 q 289 542 314 551 q 244 517 264 533 q 206 481 224 501 q 168 435 188 460 q 128 455 151 439 q 81 491 106 471 q 31 531 56 511 q -11 563 7 550 q 58 629 25 597 q 128 685 92 661 q 208 722 165 708 q 306 736 251 736 q 384 728 351 736 q 458 703 417 719 q 539 642 511 682 q 579 553 567 601 q 593 451 592 504 q 594 351 594 399 q 594 277 594 314 q 593 203 594 240 l 590 104 q 589 30 589 67 q 589 -44 589 -7 q 546 -40 568 -42 q 503 -39 524 -39 q 456 -40 479 -39 q 408 -43 432 -42 l 374 -29 l 374 -28 q 321 -49 349 -43 q 264 -56 293 -56 q 158 -35 208 -56 q 68 22 107 -14 q 6 107 29 58 q -18 213 -18 156 q 21 335 -18 288 q 118 409 60 382 q 244 446 176 436 q 371 458 313 456 m 32 567 q 81 528 58 549 q 129 488 104 507 q 203 561 163 529 q 301 593 244 593 q 353 581 335 593 q 383 550 372 569 q 396 506 393 531 q 399 454 399 481 l 399 431 q 320 428 363 431 q 235 417 278 425 q 151 393 192 408 q 78 353 110 378 q 28 294 47 329 q 10 213 10 260 q 27 126 10 167 q 74 53 44 85 q 143 4 103 22 q 229 -14 183 -14 q 322 8 281 -14 q 397 67 363 31 q 398 33 397 50 q 400 0 399 17 q 526 0 463 4 q 529 183 526 92 q 532 365 532 274 q 528 494 532 432 q 503 603 525 556 q 436 680 482 651 q 306 708 390 708 q 224 698 261 708 q 154 669 188 688 q 91 624 121 650 q 32 567 61 597 m 397 193 q 365 159 382 176 q 330 128 349 142 q 290 105 311 114 q 243 96 268 96 q 169 126 194 96 q 144 203 144 157 q 172 274 144 250 q 238 309 199 299 q 322 320 278 319 q 399 321 365 321 l 399 289 l 397 225 l 397 193 m 371 278 q 319 276 347 278 q 265 265 290 274 q 224 238 240 256 q 207 189 207 219 q 217 139 207 154 q 243 124 228 124 q 315 150 285 124 q 369 204 344 176 q 369 241 369 224 q 371 278 369 258 z "},"":{"ha":633,"x_min":-18,"x_max":594,"o":"m 239 975 q 297 956 271 976 q 331 906 322 936 q 356 963 335 938 q 413 989 378 989 l 447 975 q 483 968 465 975 q 514 949 500 961 q 535 919 528 936 q 543 882 543 901 q 535 843 543 863 q 514 808 528 824 q 483 781 500 792 q 444 771 465 771 q 399 786 421 771 q 354 811 371 790 q 331 858 338 832 q 297 798 322 825 q 236 771 272 771 q 190 786 213 771 q 138 821 154 790 q 121 883 121 851 q 142 955 121 921 q 204 989 163 989 l 239 975 m 272 896 q 252 942 272 922 q 204 961 232 961 q 162 935 175 961 q 149 883 149 908 q 161 836 149 860 q 201 813 174 813 q 228 820 215 813 q 251 840 242 828 q 267 867 261 853 q 272 896 272 882 m 481 896 q 460 942 481 922 q 413 961 440 961 q 370 935 383 961 q 357 883 357 908 q 369 836 357 860 q 410 813 382 813 q 437 820 424 813 q 460 840 450 828 q 475 867 469 853 q 481 896 481 882 m 371 458 q 368 508 371 479 q 349 551 365 536 q 289 542 314 551 q 244 517 264 533 q 206 481 224 501 q 168 435 188 460 q 128 455 151 439 q 81 491 106 471 q 31 531 56 511 q -11 563 7 550 q 58 629 25 597 q 128 685 92 661 q 208 722 165 708 q 306 736 251 736 q 384 728 351 736 q 458 703 417 719 q 539 642 511 682 q 579 553 567 601 q 593 451 592 504 q 594 351 594 399 q 594 277 594 314 q 593 203 594 240 l 590 104 q 589 30 589 67 q 589 -44 589 -7 q 546 -40 568 -42 q 503 -39 524 -39 q 456 -40 479 -39 q 408 -43 432 -42 l 374 -29 l 374 -28 q 321 -49 349 -43 q 264 -56 293 -56 q 158 -35 208 -56 q 68 22 107 -14 q 6 107 29 58 q -18 213 -18 156 q 21 335 -18 288 q 118 409 60 382 q 244 446 176 436 q 371 458 313 456 m 32 567 q 81 528 58 549 q 129 488 104 507 q 203 561 163 529 q 301 593 244 593 q 353 581 335 593 q 383 550 372 569 q 396 506 393 531 q 399 454 399 481 l 399 431 q 320 428 363 431 q 235 417 278 425 q 151 393 192 408 q 78 353 110 378 q 28 294 47 329 q 10 213 10 260 q 27 126 10 167 q 74 53 44 85 q 143 4 103 22 q 229 -14 183 -14 q 322 8 281 -14 q 397 67 363 31 q 398 33 397 50 q 400 0 399 17 q 526 0 463 4 q 529 183 526 92 q 532 365 532 274 q 528 494 532 432 q 503 603 525 556 q 436 680 482 651 q 306 708 390 708 q 224 698 261 708 q 154 669 188 688 q 91 624 121 650 q 32 567 61 597 m 397 193 q 365 159 382 176 q 330 128 349 142 q 290 105 311 114 q 243 96 268 96 q 169 126 194 96 q 144 203 144 157 q 172 274 144 250 q 238 309 199 299 q 322 320 278 319 q 399 321 365 321 l 399 289 l 397 225 l 397 193 m 371 278 q 319 276 347 278 q 265 265 290 274 q 224 238 240 256 q 207 189 207 219 q 217 139 207 154 q 243 124 228 124 q 315 150 285 124 q 369 204 344 176 q 369 241 369 224 q 371 278 369 258 z "},"":{"ha":633,"x_min":-18,"x_max":594,"o":"m 99 933 q 315 934 207 933 q 529 949 422 935 l 564 935 q 560 890 561 911 q 560 844 560 868 l 561 799 l 561 776 l 469 776 l 288 772 l 196 772 l 129 772 l 94 786 l 94 863 q 99 933 94 897 m 124 906 q 122 884 122 894 q 122 863 122 874 l 122 814 l 161 814 l 246 814 l 414 818 l 499 818 q 497 867 499 843 q 499 917 496 892 q 312 906 406 906 q 124 906 218 907 m 371 458 q 368 508 371 479 q 349 551 365 536 q 289 542 314 551 q 244 517 264 533 q 206 481 224 501 q 168 435 188 460 q 128 455 151 439 q 81 491 106 471 q 31 531 56 511 q -11 563 7 550 q 58 629 25 597 q 128 685 92 661 q 208 722 165 708 q 306 736 251 736 q 384 728 351 736 q 458 703 417 719 q 539 642 511 682 q 579 553 567 601 q 593 451 592 504 q 594 351 594 399 q 594 277 594 314 q 593 203 594 240 l 590 104 q 589 30 589 67 q 589 -44 589 -7 q 546 -40 568 -42 q 503 -39 524 -39 q 456 -40 479 -39 q 408 -43 432 -42 l 374 -29 l 374 -28 q 321 -49 349 -43 q 264 -56 293 -56 q 158 -35 208 -56 q 68 22 107 -14 q 6 107 29 58 q -18 213 -18 156 q 21 335 -18 288 q 118 409 60 382 q 244 446 176 436 q 371 458 313 456 m 32 567 q 81 528 58 549 q 129 488 104 507 q 203 561 163 529 q 301 593 244 593 q 353 581 335 593 q 383 550 372 569 q 396 506 393 531 q 399 454 399 481 l 399 431 q 320 428 363 431 q 235 417 278 425 q 151 393 192 408 q 78 353 110 378 q 28 294 47 329 q 10 213 10 260 q 27 126 10 167 q 74 53 44 85 q 143 4 103 22 q 229 -14 183 -14 q 322 8 281 -14 q 397 67 363 31 q 398 33 397 50 q 400 0 399 17 q 526 0 463 4 q 529 183 526 92 q 532 365 532 274 q 528 494 532 432 q 503 603 525 556 q 436 680 482 651 q 306 708 390 708 q 224 698 261 708 q 154 669 188 688 q 91 624 121 650 q 32 567 61 597 m 397 193 q 365 159 382 176 q 330 128 349 142 q 290 105 311 114 q 243 96 268 96 q 169 126 194 96 q 144 203 144 157 q 172 274 144 250 q 238 309 199 299 q 322 320 278 319 q 399 321 365 321 l 399 289 l 397 225 l 397 193 m 371 278 q 319 276 347 278 q 265 265 290 274 q 224 238 240 256 q 207 189 207 219 q 217 139 207 154 q 243 124 228 124 q 315 150 285 124 q 369 204 344 176 q 369 241 369 224 q 371 278 369 258 z "},"":{"ha":633,"x_min":-18,"x_max":594,"o":"m 428 775 q 387 783 406 775 q 351 800 368 790 q 317 817 333 810 q 285 825 301 825 q 273 819 276 825 q 269 806 269 814 q 269 789 268 797 q 269 775 269 781 l 143 775 l 108 789 l 108 817 q 116 876 108 846 q 140 931 124 906 q 181 971 156 956 q 239 986 206 986 q 270 978 253 986 q 306 960 288 969 q 342 942 325 950 q 374 933 360 933 q 382 940 379 933 q 385 954 385 946 q 384 972 385 963 q 383 986 383 981 l 513 986 l 547 972 l 547 944 q 542 885 547 915 q 524 831 538 856 q 487 790 510 806 q 428 775 464 775 m 207 817 q 216 853 207 840 q 250 867 225 867 q 288 859 271 867 q 320 842 304 851 q 353 824 336 832 q 393 817 371 817 q 440 830 422 817 q 467 864 457 843 q 481 910 478 885 q 485 958 485 935 l 411 958 q 406 921 411 936 q 374 906 400 906 q 339 914 354 906 q 308 932 324 922 q 276 950 293 942 q 239 958 260 958 q 192 944 211 958 q 160 910 172 931 q 142 864 147 889 q 136 817 136 839 l 207 817 m 371 458 q 368 508 371 479 q 349 551 365 536 q 289 542 314 551 q 244 517 264 533 q 206 481 224 501 q 168 435 188 460 q 128 455 151 439 q 81 491 106 471 q 31 531 56 511 q -11 563 7 550 q 58 629 25 597 q 128 685 92 661 q 208 722 165 708 q 306 736 251 736 q 384 728 351 736 q 458 703 417 719 q 539 642 511 682 q 579 553 567 601 q 593 451 592 504 q 594 351 594 399 q 594 277 594 314 q 593 203 594 240 l 590 104 q 589 30 589 67 q 589 -44 589 -7 q 546 -40 568 -42 q 503 -39 524 -39 q 456 -40 479 -39 q 408 -43 432 -42 l 374 -29 l 374 -28 q 321 -49 349 -43 q 264 -56 293 -56 q 158 -35 208 -56 q 68 22 107 -14 q 6 107 29 58 q -18 213 -18 156 q 21 335 -18 288 q 118 409 60 382 q 244 446 176 436 q 371 458 313 456 m 32 567 q 81 528 58 549 q 129 488 104 507 q 203 561 163 529 q 301 593 244 593 q 353 581 335 593 q 383 550 372 569 q 396 506 393 531 q 399 454 399 481 l 399 431 q 320 428 363 431 q 235 417 278 425 q 151 393 192 408 q 78 353 110 378 q 28 294 47 329 q 10 213 10 260 q 27 126 10 167 q 74 53 44 85 q 143 4 103 22 q 229 -14 183 -14 q 322 8 281 -14 q 397 67 363 31 q 398 33 397 50 q 400 0 399 17 q 526 0 463 4 q 529 183 526 92 q 532 365 532 274 q 528 494 532 432 q 503 603 525 556 q 436 680 482 651 q 306 708 390 708 q 224 698 261 708 q 154 669 188 688 q 91 624 121 650 q 32 567 61 597 m 397 193 q 365 159 382 176 q 330 128 349 142 q 290 105 311 114 q 243 96 268 96 q 169 126 194 96 q 144 203 144 157 q 172 274 144 250 q 238 309 199 299 q 322 320 278 319 q 399 321 365 321 l 399 289 l 397 225 l 397 193 m 371 278 q 319 276 347 278 q 265 265 290 274 q 224 238 240 256 q 207 189 207 219 q 217 139 207 154 q 243 124 228 124 q 315 150 285 124 q 369 204 344 176 q 369 241 369 224 q 371 278 369 258 z "},"":{"ha":633,"x_min":-18,"x_max":594,"o":"m 213 1018 q 260 1015 238 1018 q 307 1000 283 1011 q 306 960 307 981 q 317 925 306 939 q 348 933 338 925 q 362 954 358 942 q 365 983 365 967 q 365 1015 365 999 q 393 1013 379 1014 q 421 1011 407 1011 l 440 1011 l 481 1013 l 500 1013 l 535 999 l 535 971 q 486 827 535 883 q 346 771 438 771 q 268 785 304 771 q 159 860 192 815 q 126 989 126 904 l 126 1017 l 149 1017 l 190 1018 l 213 1018 m 154 989 q 192 863 154 913 q 311 813 229 813 q 431 860 390 813 q 472 985 472 908 q 433 983 453 985 q 393 985 413 982 q 375 921 393 944 q 315 897 357 897 q 258 923 271 897 q 244 989 244 949 q 228 990 236 990 q 213 990 221 990 l 199 990 l 169 989 l 154 989 m 371 458 q 368 508 371 479 q 349 551 365 536 q 289 542 314 551 q 244 517 264 533 q 206 481 224 501 q 168 435 188 460 q 128 455 151 439 q 81 491 106 471 q 31 531 56 511 q -11 563 7 550 q 58 629 25 597 q 128 685 92 661 q 208 722 165 708 q 306 736 251 736 q 384 728 351 736 q 458 703 417 719 q 539 642 511 682 q 579 553 567 601 q 593 451 592 504 q 594 351 594 399 q 594 277 594 314 q 593 203 594 240 l 590 104 q 589 30 589 67 q 589 -44 589 -7 q 546 -40 568 -42 q 503 -39 524 -39 q 456 -40 479 -39 q 408 -43 432 -42 l 374 -29 l 374 -28 q 321 -49 349 -43 q 264 -56 293 -56 q 158 -35 208 -56 q 68 22 107 -14 q 6 107 29 58 q -18 213 -18 156 q 21 335 -18 288 q 118 409 60 382 q 244 446 176 436 q 371 458 313 456 m 32 567 q 81 528 58 549 q 129 488 104 507 q 203 561 163 529 q 301 593 244 593 q 353 581 335 593 q 383 550 372 569 q 396 506 393 531 q 399 454 399 481 l 399 431 q 320 428 363 431 q 235 417 278 425 q 151 393 192 408 q 78 353 110 378 q 28 294 47 329 q 10 213 10 260 q 27 126 10 167 q 74 53 44 85 q 143 4 103 22 q 229 -14 183 -14 q 322 8 281 -14 q 397 67 363 31 q 398 33 397 50 q 400 0 399 17 q 526 0 463 4 q 529 183 526 92 q 532 365 532 274 q 528 494 532 432 q 503 603 525 556 q 436 680 482 651 q 306 708 390 708 q 224 698 261 708 q 154 669 188 688 q 91 624 121 650 q 32 567 61 597 m 397 193 q 365 159 382 176 q 330 128 349 142 q 290 105 311 114 q 243 96 268 96 q 169 126 194 96 q 144 203 144 157 q 172 274 144 250 q 238 309 199 299 q 322 320 278 319 q 399 321 365 321 l 399 289 l 397 225 l 397 193 m 371 278 q 319 276 347 278 q 265 265 290 274 q 224 238 240 256 q 207 189 207 219 q 217 139 207 154 q 243 124 228 124 q 315 150 285 124 q 369 204 344 176 q 369 241 369 224 q 371 278 369 258 z "},"":{"ha":633,"x_min":-18,"x_max":594,"o":"m 322 1103 q 389 1090 357 1103 q 439 1067 415 1079 q 480 1037 463 1054 q 507 997 497 1019 q 517 940 517 974 q 503 875 517 906 q 468 822 490 844 q 415 785 446 799 q 350 772 385 772 q 290 783 321 772 q 237 808 261 794 q 196 840 213 822 q 169 883 179 858 q 160 943 160 908 q 206 1058 160 1014 q 322 1103 253 1103 m 322 1075 q 226 1038 264 1075 q 188 943 188 1001 q 224 851 188 888 q 315 814 260 814 q 369 825 344 814 q 413 855 394 836 q 443 899 432 874 q 454 954 454 925 q 444 1004 454 982 q 415 1042 433 1026 q 373 1067 397 1058 q 322 1075 349 1075 m 311 879 q 274 895 283 879 q 264 935 264 911 q 277 985 264 963 q 322 1008 290 1008 q 363 990 349 1008 q 378 947 378 972 q 360 898 378 917 q 311 879 342 879 m 350 947 q 347 965 350 954 q 331 947 335 960 q 326 921 326 933 l 326 910 q 344 924 339 914 q 350 947 350 935 m 371 458 q 368 508 371 479 q 349 551 365 536 q 289 542 314 551 q 244 517 264 533 q 206 481 224 501 q 168 435 188 460 q 128 455 151 439 q 81 491 106 471 q 31 531 56 511 q -11 563 7 550 q 58 629 25 597 q 128 685 92 661 q 208 722 165 708 q 306 736 251 736 q 384 728 351 736 q 458 703 417 719 q 539 642 511 682 q 579 553 567 601 q 593 451 592 504 q 594 351 594 399 q 594 277 594 314 q 593 203 594 240 l 590 104 q 589 30 589 67 q 589 -44 589 -7 q 546 -40 568 -42 q 503 -39 524 -39 q 456 -40 479 -39 q 408 -43 432 -42 l 374 -29 l 374 -28 q 321 -49 349 -43 q 264 -56 293 -56 q 158 -35 208 -56 q 68 22 107 -14 q 6 107 29 58 q -18 213 -18 156 q 21 335 -18 288 q 118 409 60 382 q 244 446 176 436 q 371 458 313 456 m 32 567 q 81 528 58 549 q 129 488 104 507 q 203 561 163 529 q 301 593 244 593 q 353 581 335 593 q 383 550 372 569 q 396 506 393 531 q 399 454 399 481 l 399 431 q 320 428 363 431 q 235 417 278 425 q 151 393 192 408 q 78 353 110 378 q 28 294 47 329 q 10 213 10 260 q 27 126 10 167 q 74 53 44 85 q 143 4 103 22 q 229 -14 183 -14 q 322 8 281 -14 q 397 67 363 31 q 398 33 397 50 q 400 0 399 17 q 526 0 463 4 q 529 183 526 92 q 532 365 532 274 q 528 494 532 432 q 503 603 525 556 q 436 680 482 651 q 306 708 390 708 q 224 698 261 708 q 154 669 188 688 q 91 624 121 650 q 32 567 61 597 m 397 193 q 365 159 382 176 q 330 128 349 142 q 290 105 311 114 q 243 96 268 96 q 169 126 194 96 q 144 203 144 157 q 172 274 144 250 q 238 309 199 299 q 322 320 278 319 q 399 321 365 321 l 399 289 l 397 225 l 397 193 m 371 278 q 319 276 347 278 q 265 265 290 274 q 224 238 240 256 q 207 189 207 219 q 217 139 207 154 q 243 124 228 124 q 315 150 285 124 q 369 204 344 176 q 369 241 369 224 q 371 278 369 258 z "},"":{"ha":633,"x_min":-18,"x_max":594,"o":"m 371 458 q 368 508 371 479 q 349 551 365 536 q 289 542 314 551 q 244 517 264 533 q 206 481 224 501 q 168 435 188 460 q 128 455 151 439 q 81 490 106 471 q 31 530 56 510 q -11 563 7 550 q 58 629 25 597 q 128 685 92 661 q 208 722 165 708 q 306 736 251 736 q 384 728 351 736 q 458 703 417 719 q 539 642 511 682 q 579 553 567 601 q 593 451 592 504 q 594 351 594 399 q 592 154 594 251 q 589 -43 589 57 l 513 -39 q 474 -69 496 -51 q 431 -108 451 -87 q 397 -149 411 -128 q 383 -193 383 -171 q 384 -204 383 -197 q 388 -219 385 -211 q 396 -231 390 -226 q 411 -236 401 -236 q 430 -226 424 -236 q 438 -203 436 -217 q 440 -172 440 -189 q 440 -143 440 -156 q 519 -158 475 -150 q 594 -183 564 -167 q 545 -334 594 -279 q 397 -389 496 -389 q 307 -372 350 -389 q 251 -347 276 -360 q 208 -315 226 -333 q 181 -270 190 -296 q 171 -208 171 -244 q 190 -125 171 -164 q 239 -54 208 -86 q 140 -26 186 -47 q 58 31 93 -4 q 3 111 24 65 q -18 213 -18 157 q 21 335 -18 288 q 118 409 60 382 q 244 446 176 436 q 371 458 313 456 m 32 567 q 81 528 58 549 q 129 488 104 507 q 203 561 163 529 q 301 593 244 593 q 353 581 335 593 q 383 550 372 569 q 396 506 393 531 q 399 454 399 481 l 399 431 q 320 428 363 431 q 235 417 278 425 q 151 393 192 408 q 78 353 110 378 q 28 294 47 329 q 10 213 10 260 q 27 126 10 167 q 74 53 44 85 q 143 4 103 22 q 229 -14 183 -14 q 322 8 281 -14 q 397 67 363 31 l 399 40 q 333 -8 368 17 q 267 -64 297 -33 q 218 -130 238 -94 q 199 -208 199 -165 q 212 -271 199 -244 q 248 -314 225 -297 q 301 -339 271 -331 q 363 -347 331 -347 q 483 -307 433 -347 q 532 -192 532 -267 l 468 -178 q 447 -239 468 -214 q 389 -264 425 -264 q 337 -239 353 -264 q 321 -182 321 -214 q 336 -126 321 -151 q 374 -77 351 -100 q 422 -35 397 -54 q 468 3 447 -15 l 526 0 q 529 183 526 92 q 532 365 532 274 q 528 494 532 432 q 503 603 525 556 q 436 680 482 651 q 306 708 390 708 q 224 698 261 708 q 154 669 188 688 q 91 624 121 650 q 32 567 61 597 m 397 193 q 365 159 382 176 q 330 128 349 142 q 290 105 311 114 q 243 96 268 96 q 169 126 194 96 q 144 203 144 157 q 172 274 144 250 q 238 309 199 299 q 322 320 278 319 q 399 321 365 321 l 399 289 l 397 225 l 397 193 m 371 278 q 319 276 347 278 q 265 265 290 274 q 224 238 240 256 q 207 189 207 219 q 217 139 207 154 q 243 124 228 124 q 315 150 285 124 q 369 204 344 176 q 369 241 369 224 q 371 278 369 258 z "},"":{"ha":650,"x_min":19,"x_max":692,"o":"m 343 964 q 442 991 392 972 q 539 1025 492 1010 l 574 1011 q 514 889 543 949 q 453 768 485 829 q 426 771 439 769 q 397 772 413 772 l 375 772 l 332 771 l 310 771 l 275 785 q 312 874 292 829 q 343 964 332 918 m 365 940 q 341 876 354 907 q 315 813 328 844 q 359 813 338 813 q 403 811 381 814 q 445 894 426 851 q 485 978 464 936 q 425 958 454 968 q 365 940 396 947 m 490 485 q 474 507 481 497 q 458 524 467 517 q 440 535 450 531 q 413 539 429 539 q 342 517 371 539 q 295 463 314 496 q 268 392 276 431 q 260 319 260 354 q 266 260 260 290 q 286 205 272 229 q 324 165 300 181 q 382 149 347 149 q 442 160 418 149 q 484 187 467 172 q 514 213 501 201 q 542 225 526 225 q 583 213 563 225 q 622 185 603 201 q 659 150 642 168 q 692 119 676 132 q 572 -11 642 33 q 400 -56 501 -56 q 331 -50 365 -56 q 265 -32 297 -44 l 231 -18 q 133 47 174 6 q 68 139 93 88 q 31 248 43 190 q 19 364 19 306 q 42 516 19 447 q 108 633 64 585 q 219 709 153 682 q 372 736 285 736 q 528 706 451 736 q 653 610 604 676 l 669 588 q 594 533 629 560 q 525 471 558 507 l 490 485 m 492 528 q 542 571 515 553 q 596 608 568 589 q 497 687 556 665 q 372 708 439 708 q 231 684 292 708 q 129 615 169 660 q 68 506 89 569 q 47 364 47 443 q 66 220 47 289 q 124 99 85 151 q 222 17 163 47 q 365 -14 282 -14 q 621 128 531 -14 q 604 144 617 132 q 578 169 592 156 q 551 192 564 182 q 536 203 539 203 q 529 197 531 203 q 525 189 528 192 q 489 154 513 171 q 438 129 465 138 q 382 121 410 121 q 300 138 335 121 q 242 183 265 154 q 208 251 219 213 q 197 333 197 290 q 208 417 197 374 q 240 497 218 461 q 297 557 263 533 q 378 581 331 581 q 441 568 413 581 q 492 528 469 556 z "},"":{"ha":650,"x_min":19,"x_max":692,"o":"m 165 783 q 233 905 197 846 q 300 1026 269 964 q 333 1023 317 1024 q 365 1022 349 1022 l 403 1024 l 422 1024 l 457 1010 q 519 888 483 947 q 585 768 554 829 q 549 772 567 769 q 514 774 532 774 l 493 774 l 453 771 l 432 771 l 397 785 q 388 806 393 796 q 378 828 383 817 q 374 821 375 825 q 371 814 374 817 l 358 786 q 355 779 356 783 q 351 772 354 775 q 327 769 340 769 q 303 768 314 768 l 276 768 l 226 769 l 200 769 l 165 783 m 225 811 l 254 810 l 268 810 q 283 810 275 810 q 297 811 290 810 q 327 871 310 843 q 360 929 344 899 q 388 871 375 900 q 415 813 401 842 q 459 815 438 813 q 503 814 481 817 q 452 904 479 861 q 404 996 425 947 q 360 994 382 996 q 315 996 338 993 q 263 904 289 950 q 211 811 236 858 l 225 811 m 490 485 q 474 507 481 497 q 458 524 467 517 q 440 535 450 531 q 413 539 429 539 q 342 517 371 539 q 295 463 314 496 q 268 392 276 431 q 260 319 260 354 q 266 260 260 290 q 286 205 272 229 q 324 165 300 181 q 382 149 347 149 q 442 160 418 149 q 484 187 467 172 q 514 213 501 201 q 542 225 526 225 q 583 213 563 225 q 622 185 603 201 q 659 150 642 168 q 692 119 676 132 q 572 -11 642 33 q 400 -56 501 -56 q 331 -50 365 -56 q 265 -32 297 -44 l 231 -18 q 133 47 174 6 q 68 139 93 88 q 31 248 43 190 q 19 364 19 306 q 42 516 19 447 q 108 633 64 585 q 219 709 153 682 q 372 736 285 736 q 528 706 451 736 q 653 610 604 676 l 669 588 q 594 533 629 560 q 525 471 558 507 l 490 485 m 492 528 q 542 571 515 553 q 596 608 568 589 q 497 687 556 665 q 372 708 439 708 q 231 684 292 708 q 129 615 169 660 q 68 506 89 569 q 47 364 47 443 q 66 220 47 289 q 124 99 85 151 q 222 17 163 47 q 365 -14 282 -14 q 621 128 531 -14 q 604 144 617 132 q 578 169 592 156 q 551 192 564 182 q 536 203 539 203 q 529 197 531 203 q 525 189 528 192 q 489 154 513 171 q 438 129 465 138 q 382 121 410 121 q 300 138 335 121 q 242 183 265 154 q 208 251 219 213 q 197 333 197 290 q 208 417 197 374 q 240 497 218 461 q 297 557 263 533 q 378 581 331 581 q 441 568 413 581 q 492 528 469 556 z "},"":{"ha":650,"x_min":19,"x_max":692,"o":"m 476 1025 l 526 1024 l 553 1024 l 588 1010 q 519 888 556 947 q 453 767 483 829 q 420 770 436 769 q 388 771 404 771 l 350 769 l 331 769 l 296 783 q 234 905 269 846 q 168 1025 199 964 q 203 1022 186 1024 q 239 1019 221 1019 l 260 1019 l 300 1022 l 321 1022 l 356 1008 q 365 987 360 997 q 375 965 369 976 q 378 972 378 968 q 382 979 379 976 l 394 1007 q 398 1014 397 1010 q 401 1021 399 1018 q 450 1025 426 1025 l 476 1025 m 493 996 l 464 997 l 450 997 q 435 997 443 997 q 421 996 428 997 q 391 936 408 964 q 358 878 374 908 q 330 936 343 907 q 303 994 317 965 q 259 992 281 994 q 215 993 238 990 q 266 903 239 946 q 314 811 293 860 q 358 813 336 811 q 403 811 381 814 q 456 903 429 857 q 507 996 482 949 l 493 996 m 490 485 q 474 507 481 497 q 458 524 467 517 q 440 535 450 531 q 413 539 429 539 q 342 517 371 539 q 295 463 314 496 q 268 392 276 431 q 260 319 260 354 q 266 260 260 290 q 286 205 272 229 q 324 165 300 181 q 382 149 347 149 q 442 160 418 149 q 484 187 467 172 q 514 213 501 201 q 542 225 526 225 q 583 213 563 225 q 622 185 603 201 q 659 150 642 168 q 692 119 676 132 q 572 -11 642 33 q 400 -56 501 -56 q 331 -50 365 -56 q 265 -32 297 -44 l 231 -18 q 133 47 174 6 q 68 139 93 88 q 31 248 43 190 q 19 364 19 306 q 42 516 19 447 q 108 633 64 585 q 219 709 153 682 q 372 736 285 736 q 528 706 451 736 q 653 610 604 676 l 669 588 q 594 533 629 560 q 525 471 558 507 l 490 485 m 492 528 q 542 571 515 553 q 596 608 568 589 q 497 687 556 665 q 372 708 439 708 q 231 684 292 708 q 129 615 169 660 q 68 506 89 569 q 47 364 47 443 q 66 220 47 289 q 124 99 85 151 q 222 17 163 47 q 365 -14 282 -14 q 621 128 531 -14 q 604 144 617 132 q 578 169 592 156 q 551 192 564 182 q 536 203 539 203 q 529 197 531 203 q 525 189 528 192 q 489 154 513 171 q 438 129 465 138 q 382 121 410 121 q 300 138 335 121 q 242 183 265 154 q 208 251 219 213 q 197 333 197 290 q 208 417 197 374 q 240 497 218 461 q 297 557 263 533 q 378 581 331 581 q 441 568 413 581 q 492 528 469 556 z "},"":{"ha":650,"x_min":19,"x_max":692,"o":"m 393 975 q 428 968 411 975 q 460 949 446 961 q 481 919 474 936 q 489 882 489 901 q 481 843 489 863 q 460 808 474 824 q 428 781 446 792 q 390 771 411 771 q 344 786 367 771 q 292 821 308 790 q 275 883 275 851 q 296 955 275 921 q 358 989 317 989 l 393 975 m 426 896 q 406 942 426 922 q 358 961 386 961 q 316 935 329 961 q 303 883 303 908 q 315 836 303 860 q 356 813 328 813 q 383 820 369 813 q 406 840 396 828 q 421 867 415 853 q 426 896 426 882 m 490 485 q 474 507 481 497 q 458 524 467 517 q 440 535 450 531 q 413 539 429 539 q 342 517 371 539 q 295 463 314 496 q 268 392 276 431 q 260 319 260 354 q 266 260 260 290 q 286 205 272 229 q 324 165 300 181 q 382 149 347 149 q 442 160 418 149 q 484 187 467 172 q 514 213 501 201 q 542 225 526 225 q 583 213 563 225 q 622 185 603 201 q 659 150 642 168 q 692 119 676 132 q 572 -11 642 33 q 400 -56 501 -56 q 331 -50 365 -56 q 265 -32 297 -44 l 231 -18 q 133 47 174 6 q 68 139 93 88 q 31 248 43 190 q 19 364 19 306 q 42 516 19 447 q 108 633 64 585 q 219 709 153 682 q 372 736 285 736 q 528 706 451 736 q 653 610 604 676 l 669 588 q 594 533 629 560 q 525 471 558 507 l 490 485 m 492 528 q 542 571 515 553 q 596 608 568 589 q 497 687 556 665 q 372 708 439 708 q 231 684 292 708 q 129 615 169 660 q 68 506 89 569 q 47 364 47 443 q 66 220 47 289 q 124 99 85 151 q 222 17 163 47 q 365 -14 282 -14 q 621 128 531 -14 q 604 144 617 132 q 578 169 592 156 q 551 192 564 182 q 536 203 539 203 q 529 197 531 203 q 525 189 528 192 q 489 154 513 171 q 438 129 465 138 q 382 121 410 121 q 300 138 335 121 q 242 183 265 154 q 208 251 219 213 q 197 333 197 290 q 208 417 197 374 q 240 497 218 461 q 297 557 263 533 q 378 581 331 581 q 441 568 413 581 q 492 528 469 556 z "},"":{"ha":713,"x_min":24,"x_max":701,"o":"m 179 1026 q 269 994 224 1011 q 360 968 315 978 q 385 962 374 965 q 410 951 397 958 q 441 861 421 906 q 478 772 461 817 l 438 772 q 386 772 411 772 q 335 769 361 772 l 300 783 q 239 904 268 844 q 179 1026 210 964 m 353 942 q 293 959 322 949 q 233 979 264 969 q 273 895 254 938 q 315 813 292 853 q 359 815 338 815 q 403 814 381 814 q 377 877 390 846 q 353 942 364 908 m 364 736 q 451 728 414 736 q 532 700 488 719 q 624 632 590 676 q 675 533 658 588 q 696 417 692 478 q 700 303 700 357 l 700 279 q 497 248 599 260 q 294 218 396 236 q 325 161 308 182 q 382 140 342 140 q 435 147 413 140 q 474 167 457 154 q 504 200 490 181 q 531 244 518 219 l 565 231 q 589 210 576 219 q 614 190 601 200 q 638 175 622 183 q 667 156 653 167 q 691 134 681 146 q 701 108 701 122 l 697 93 q 683 69 694 85 q 664 46 671 53 q 558 -30 619 -4 q 429 -56 496 -56 q 360 -50 393 -56 q 294 -31 328 -44 l 260 -17 q 156 51 200 8 q 82 147 111 93 q 38 261 53 200 q 24 385 24 322 q 46 531 24 465 q 111 642 68 596 q 218 712 154 688 q 364 736 282 736 m 638 317 q 628 463 636 392 q 594 588 621 533 q 513 676 567 643 q 364 708 458 708 q 131 622 211 708 q 51 385 51 535 q 74 235 51 307 q 139 108 96 164 q 247 19 182 53 q 394 -14 311 -14 q 513 10 458 -14 q 610 82 568 33 q 615 89 611 83 q 624 101 619 94 q 633 113 629 107 q 638 119 638 118 q 625 139 638 128 q 596 162 613 150 q 563 183 579 174 q 539 200 546 193 q 474 134 517 156 q 382 113 431 113 q 276 151 313 113 q 224 253 240 190 q 431 287 328 274 q 638 317 533 300 m 213 374 q 225 447 217 411 q 251 510 233 482 q 297 556 268 539 q 371 574 326 574 q 476 528 444 574 q 506 415 507 483 q 359 395 432 401 q 213 374 286 389 m 478 439 q 472 474 476 457 q 460 503 468 490 q 438 524 451 517 q 406 532 425 532 q 322 499 350 532 q 285 414 294 465 q 381 426 333 421 q 478 439 429 431 z "},"":{"ha":713,"x_min":24,"x_max":701,"o":"m 342 965 q 440 992 390 974 q 538 1026 490 1011 l 572 1013 q 513 890 542 950 q 451 769 483 831 q 424 772 438 771 q 396 774 411 774 l 374 774 l 331 772 l 308 772 l 274 786 q 310 875 290 831 q 342 965 331 919 m 364 942 q 340 877 353 908 q 314 814 326 846 q 358 815 336 814 q 401 813 379 815 q 444 895 425 853 q 483 979 463 938 q 424 959 453 969 q 364 942 394 949 m 364 736 q 451 728 414 736 q 532 700 488 719 q 624 632 590 676 q 675 533 658 588 q 696 417 692 478 q 700 303 700 357 l 700 279 q 497 248 599 260 q 294 218 396 236 q 325 161 308 182 q 382 140 342 140 q 435 147 413 140 q 474 167 457 154 q 504 200 490 181 q 531 244 518 219 l 565 231 q 589 210 576 219 q 614 190 601 200 q 638 175 622 183 q 667 156 653 167 q 691 134 681 146 q 701 108 701 122 l 697 93 q 683 69 694 85 q 664 46 671 53 q 558 -30 619 -4 q 429 -56 496 -56 q 360 -50 393 -56 q 294 -31 328 -44 l 260 -17 q 156 51 200 8 q 82 147 111 93 q 38 261 53 200 q 24 385 24 322 q 46 531 24 465 q 111 642 68 596 q 218 712 154 688 q 364 736 282 736 m 638 317 q 628 463 636 392 q 594 588 621 533 q 513 676 567 643 q 364 708 458 708 q 131 622 211 708 q 51 385 51 535 q 74 235 51 307 q 139 108 96 164 q 247 19 182 53 q 394 -14 311 -14 q 513 10 458 -14 q 610 82 568 33 q 615 89 611 83 q 624 101 619 94 q 633 113 629 107 q 638 119 638 118 q 625 139 638 128 q 596 162 613 150 q 563 183 579 174 q 539 200 546 193 q 474 134 517 156 q 382 113 431 113 q 276 151 313 113 q 224 253 240 190 q 431 287 328 274 q 638 317 533 300 m 213 374 q 225 447 217 411 q 251 510 233 482 q 297 556 268 539 q 371 574 326 574 q 476 528 444 574 q 506 415 507 483 q 359 395 432 401 q 213 374 286 389 m 478 439 q 472 474 476 457 q 460 503 468 490 q 438 524 451 517 q 406 532 425 532 q 322 499 350 532 q 285 414 294 465 q 381 426 333 421 q 478 439 429 431 z "},"":{"ha":713,"x_min":24,"x_max":701,"o":"m 164 785 q 232 906 196 847 q 299 1028 268 965 q 331 1024 315 1025 q 364 1024 347 1024 l 401 1025 l 421 1025 l 456 1011 q 517 890 482 949 q 583 769 553 831 q 548 773 565 771 q 513 775 531 775 l 492 775 l 451 772 l 431 772 l 396 786 q 387 808 392 797 q 376 829 382 818 q 373 822 374 826 q 369 815 372 818 l 357 788 q 353 781 354 785 q 350 774 353 776 q 326 770 339 771 q 301 769 313 769 l 275 769 l 225 771 l 199 771 l 164 785 m 224 813 l 253 811 l 267 811 q 281 811 274 811 q 296 813 289 811 q 326 872 308 844 q 358 931 343 900 q 387 872 374 901 q 414 814 400 843 q 458 816 436 814 q 501 815 479 818 q 451 906 478 863 q 403 997 424 949 q 358 996 381 997 q 314 997 336 994 q 261 906 288 951 q 210 813 235 860 l 224 813 m 364 736 q 451 728 414 736 q 532 700 488 719 q 624 632 590 676 q 675 533 658 588 q 696 417 692 478 q 700 303 700 357 l 700 279 q 497 248 599 260 q 294 218 396 236 q 325 161 308 182 q 382 140 342 140 q 435 147 413 140 q 474 167 457 154 q 504 200 490 181 q 531 244 518 219 l 565 231 q 589 210 576 219 q 614 190 601 200 q 638 175 622 183 q 667 156 653 167 q 691 134 681 146 q 701 108 701 122 l 697 93 q 683 69 694 85 q 664 46 671 53 q 558 -30 619 -4 q 429 -56 496 -56 q 360 -50 393 -56 q 294 -31 328 -44 l 260 -17 q 156 51 200 8 q 82 147 111 93 q 38 261 53 200 q 24 385 24 322 q 46 531 24 465 q 111 642 68 596 q 218 712 154 688 q 364 736 282 736 m 638 317 q 628 463 636 392 q 594 588 621 533 q 513 676 567 643 q 364 708 458 708 q 131 622 211 708 q 51 385 51 535 q 74 235 51 307 q 139 108 96 164 q 247 19 182 53 q 394 -14 311 -14 q 513 10 458 -14 q 610 82 568 33 q 615 89 611 83 q 624 101 619 94 q 633 113 629 107 q 638 119 638 118 q 625 139 638 128 q 596 162 613 150 q 563 183 579 174 q 539 200 546 193 q 474 134 517 156 q 382 113 431 113 q 276 151 313 113 q 224 253 240 190 q 431 287 328 274 q 638 317 533 300 m 213 374 q 225 447 217 411 q 251 510 233 482 q 297 556 268 539 q 371 574 326 574 q 476 528 444 574 q 506 415 507 483 q 359 395 432 401 q 213 374 286 389 m 478 439 q 472 474 476 457 q 460 503 468 490 q 438 524 451 517 q 406 532 425 532 q 322 499 350 532 q 285 414 294 465 q 381 426 333 421 q 478 439 429 431 z "},"":{"ha":713,"x_min":24,"x_max":701,"o":"m 475 1026 l 525 1025 l 551 1025 l 586 1011 q 518 890 554 949 q 451 768 482 831 q 419 772 435 771 q 386 772 403 772 l 349 771 l 329 771 l 294 785 q 233 906 268 847 q 167 1026 197 965 q 202 1023 185 1025 q 238 1021 219 1021 l 258 1021 l 299 1024 l 319 1024 l 354 1010 q 363 988 358 999 q 374 967 368 978 q 377 974 376 969 q 381 981 378 978 l 393 1008 q 397 1015 396 1011 q 400 1022 397 1019 q 449 1026 425 1026 l 475 1026 m 492 997 l 463 999 l 449 999 q 434 999 442 999 q 419 997 426 999 q 390 938 407 965 q 357 879 372 910 q 328 938 342 908 q 301 996 315 967 q 258 994 279 996 q 214 994 236 992 q 265 904 238 947 q 313 813 292 861 q 357 814 335 813 q 401 813 379 815 q 454 904 428 858 q 506 997 481 950 l 492 997 m 364 736 q 451 728 414 736 q 532 700 488 719 q 624 632 590 676 q 675 533 658 588 q 696 417 692 478 q 700 303 700 357 l 700 279 q 497 248 599 260 q 294 218 396 236 q 325 161 308 182 q 382 140 342 140 q 435 147 413 140 q 474 167 457 154 q 504 200 490 181 q 531 244 518 219 l 565 231 q 589 210 576 219 q 614 190 601 200 q 638 175 622 183 q 667 156 653 167 q 691 134 681 146 q 701 108 701 122 l 697 93 q 683 69 694 85 q 664 46 671 53 q 558 -30 619 -4 q 429 -56 496 -56 q 360 -50 393 -56 q 294 -31 328 -44 l 260 -17 q 156 51 200 8 q 82 147 111 93 q 38 261 53 200 q 24 385 24 322 q 46 531 24 465 q 111 642 68 596 q 218 712 154 688 q 364 736 282 736 m 638 317 q 628 463 636 392 q 594 588 621 533 q 513 676 567 643 q 364 708 458 708 q 131 622 211 708 q 51 385 51 535 q 74 235 51 307 q 139 108 96 164 q 247 19 182 53 q 394 -14 311 -14 q 513 10 458 -14 q 610 82 568 33 q 615 89 611 83 q 624 101 619 94 q 633 113 629 107 q 638 119 638 118 q 625 139 638 128 q 596 162 613 150 q 563 183 579 174 q 539 200 546 193 q 474 134 517 156 q 382 113 431 113 q 276 151 313 113 q 224 253 240 190 q 431 287 328 274 q 638 317 533 300 m 213 374 q 225 447 217 411 q 251 510 233 482 q 297 556 268 539 q 371 574 326 574 q 476 528 444 574 q 506 415 507 483 q 359 395 432 401 q 213 374 286 389 m 478 439 q 472 474 476 457 q 460 503 468 490 q 438 524 451 517 q 406 532 425 532 q 322 499 350 532 q 285 414 294 465 q 381 426 333 421 q 478 439 429 431 z "},"":{"ha":713,"x_min":24,"x_max":701,"o":"m 285 975 q 342 956 317 976 q 376 906 368 936 q 402 963 381 938 q 458 989 424 989 l 493 975 q 528 968 511 975 q 560 949 546 961 q 581 919 574 936 q 589 882 589 901 q 581 843 589 863 q 560 808 574 824 q 528 781 546 792 q 490 771 511 771 q 444 786 467 771 q 400 811 417 790 q 376 858 383 832 q 343 798 368 825 q 282 771 318 771 q 236 786 258 771 q 183 821 200 790 q 167 883 167 851 q 188 955 167 921 q 250 989 208 989 l 285 975 m 318 896 q 298 942 318 922 q 250 961 278 961 q 208 935 221 961 q 194 883 194 908 q 207 836 194 860 q 247 813 219 813 q 274 820 261 813 q 297 840 288 828 q 313 867 307 853 q 318 896 318 882 m 526 896 q 506 942 526 922 q 458 961 486 961 q 416 935 429 961 q 403 883 403 908 q 415 836 403 860 q 456 813 428 813 q 483 820 469 813 q 506 840 496 828 q 521 867 515 853 q 526 896 526 882 m 364 736 q 451 728 414 736 q 532 700 488 719 q 624 632 590 676 q 675 533 658 588 q 696 417 692 478 q 700 303 700 357 l 700 279 q 497 248 599 260 q 294 218 396 236 q 325 161 308 182 q 382 140 342 140 q 435 147 413 140 q 474 167 457 154 q 504 200 490 181 q 531 244 518 219 l 565 231 q 589 210 576 219 q 614 190 601 200 q 638 175 622 183 q 667 156 653 167 q 691 134 681 146 q 701 108 701 122 l 697 93 q 683 69 694 85 q 664 46 671 53 q 558 -30 619 -4 q 429 -56 496 -56 q 360 -50 393 -56 q 294 -31 328 -44 l 260 -17 q 156 51 200 8 q 82 147 111 93 q 38 261 53 200 q 24 385 24 322 q 46 531 24 465 q 111 642 68 596 q 218 712 154 688 q 364 736 282 736 m 638 317 q 628 463 636 392 q 594 588 621 533 q 513 676 567 643 q 364 708 458 708 q 131 622 211 708 q 51 385 51 535 q 74 235 51 307 q 139 108 96 164 q 247 19 182 53 q 394 -14 311 -14 q 513 10 458 -14 q 610 82 568 33 q 615 89 611 83 q 624 101 619 94 q 633 113 629 107 q 638 119 638 118 q 625 139 638 128 q 596 162 613 150 q 563 183 579 174 q 539 200 546 193 q 474 134 517 156 q 382 113 431 113 q 276 151 313 113 q 224 253 240 190 q 431 287 328 274 q 638 317 533 300 m 213 374 q 225 447 217 411 q 251 510 233 482 q 297 556 268 539 q 371 574 326 574 q 476 528 444 574 q 506 415 507 483 q 359 395 432 401 q 213 374 286 389 m 478 439 q 472 474 476 457 q 460 503 468 490 q 438 524 451 517 q 406 532 425 532 q 322 499 350 532 q 285 414 294 465 q 381 426 333 421 q 478 439 429 431 z "},"":{"ha":713,"x_min":24,"x_max":701,"o":"m 392 976 q 427 969 410 976 q 458 950 444 963 q 480 920 472 938 q 488 883 488 903 q 480 844 488 864 q 458 809 472 825 q 427 783 444 793 q 389 772 410 772 q 343 788 365 772 q 290 822 307 792 q 274 885 274 853 q 294 956 274 922 q 357 990 315 990 l 392 976 m 425 897 q 405 943 425 924 q 357 963 385 963 q 315 936 328 963 q 301 885 301 910 q 314 838 301 861 q 354 814 326 814 q 381 822 368 814 q 404 842 394 829 q 419 869 414 854 q 425 897 425 883 m 364 736 q 451 728 414 736 q 532 700 488 719 q 624 632 590 676 q 675 533 658 588 q 696 417 692 478 q 700 303 700 357 l 700 279 q 497 248 599 260 q 294 218 396 236 q 325 161 308 182 q 382 140 342 140 q 435 147 413 140 q 474 167 457 154 q 504 200 490 181 q 531 244 518 219 l 565 231 q 589 210 576 219 q 614 190 601 200 q 638 175 622 183 q 667 156 653 167 q 691 134 681 146 q 701 108 701 122 l 697 93 q 683 69 694 85 q 664 46 671 53 q 558 -30 619 -4 q 429 -56 496 -56 q 360 -50 393 -56 q 294 -31 328 -44 l 260 -17 q 156 51 200 8 q 82 147 111 93 q 38 261 53 200 q 24 385 24 322 q 46 531 24 465 q 111 642 68 596 q 218 712 154 688 q 364 736 282 736 m 638 317 q 628 463 636 392 q 594 588 621 533 q 513 676 567 643 q 364 708 458 708 q 131 622 211 708 q 51 385 51 535 q 74 235 51 307 q 139 108 96 164 q 247 19 182 53 q 394 -14 311 -14 q 513 10 458 -14 q 610 82 568 33 q 615 89 611 83 q 624 101 619 94 q 633 113 629 107 q 638 119 638 118 q 625 139 638 128 q 596 162 613 150 q 563 183 579 174 q 539 200 546 193 q 474 134 517 156 q 382 113 431 113 q 276 151 313 113 q 224 253 240 190 q 431 287 328 274 q 638 317 533 300 m 213 374 q 225 447 217 411 q 251 510 233 482 q 297 556 268 539 q 371 574 326 574 q 476 528 444 574 q 506 415 507 483 q 359 395 432 401 q 213 374 286 389 m 478 439 q 472 474 476 457 q 460 503 468 490 q 438 524 451 517 q 406 532 425 532 q 322 499 350 532 q 285 414 294 465 q 381 426 333 421 q 478 439 429 431 z "},"":{"ha":713,"x_min":24,"x_max":701,"o":"m 144 933 q 360 934 253 933 q 575 949 468 935 l 610 935 q 606 890 607 911 q 606 844 606 868 l 607 799 l 607 776 l 515 776 l 333 772 l 242 772 l 175 772 l 140 786 l 140 863 q 144 933 140 897 m 169 906 q 168 884 168 894 q 168 863 168 874 l 168 814 l 207 814 l 292 814 l 460 818 l 544 818 q 543 867 544 843 q 544 917 542 892 q 358 906 451 906 q 169 906 264 907 m 364 736 q 451 728 414 736 q 532 700 488 719 q 624 632 590 676 q 675 533 658 588 q 696 417 692 478 q 700 303 700 357 l 700 279 q 497 248 599 260 q 294 218 396 236 q 325 161 308 182 q 382 140 342 140 q 435 147 413 140 q 474 167 457 154 q 504 200 490 181 q 531 244 518 219 l 565 231 q 589 210 576 219 q 614 190 601 200 q 638 175 622 183 q 667 156 653 167 q 691 134 681 146 q 701 108 701 122 l 697 93 q 683 69 694 85 q 664 46 671 53 q 558 -30 619 -4 q 429 -56 496 -56 q 360 -50 393 -56 q 294 -31 328 -44 l 260 -17 q 156 51 200 8 q 82 147 111 93 q 38 261 53 200 q 24 385 24 322 q 46 531 24 465 q 111 642 68 596 q 218 712 154 688 q 364 736 282 736 m 638 317 q 628 463 636 392 q 594 588 621 533 q 513 676 567 643 q 364 708 458 708 q 131 622 211 708 q 51 385 51 535 q 74 235 51 307 q 139 108 96 164 q 247 19 182 53 q 394 -14 311 -14 q 513 10 458 -14 q 610 82 568 33 q 615 89 611 83 q 624 101 619 94 q 633 113 629 107 q 638 119 638 118 q 625 139 638 128 q 596 162 613 150 q 563 183 579 174 q 539 200 546 193 q 474 134 517 156 q 382 113 431 113 q 276 151 313 113 q 224 253 240 190 q 431 287 328 274 q 638 317 533 300 m 213 374 q 225 447 217 411 q 251 510 233 482 q 297 556 268 539 q 371 574 326 574 q 476 528 444 574 q 506 415 507 483 q 359 395 432 401 q 213 374 286 389 m 478 439 q 472 474 476 457 q 460 503 468 490 q 438 524 451 517 q 406 532 425 532 q 322 499 350 532 q 285 414 294 465 q 381 426 333 421 q 478 439 429 431 z "},"":{"ha":713,"x_min":24,"x_max":701,"o":"m 258 1018 q 306 1015 283 1018 q 353 1000 329 1011 q 352 960 353 981 q 363 925 351 939 q 394 933 383 925 q 408 954 404 942 q 411 983 411 967 q 411 1015 411 999 q 439 1013 425 1014 q 467 1011 453 1011 l 486 1011 l 526 1013 l 546 1013 l 581 999 l 581 971 q 532 827 581 883 q 392 771 483 771 q 314 785 350 771 q 205 860 238 815 q 172 989 172 904 l 172 1017 l 194 1017 l 236 1018 l 258 1018 m 200 989 q 238 863 200 913 q 357 813 275 813 q 477 860 436 813 q 518 985 518 908 q 478 983 499 985 q 439 985 458 982 q 421 921 439 944 q 361 897 403 897 q 303 923 317 897 q 290 989 290 949 q 274 990 282 990 q 258 990 267 990 l 244 990 l 215 989 l 200 989 m 364 736 q 451 728 414 736 q 532 700 488 719 q 624 632 590 676 q 675 533 658 588 q 696 417 692 478 q 700 303 700 357 l 700 279 q 497 248 599 260 q 294 218 396 236 q 325 161 308 182 q 382 140 342 140 q 435 147 413 140 q 474 167 457 154 q 504 200 490 181 q 531 244 518 219 l 565 231 q 589 210 576 219 q 614 190 601 200 q 638 175 622 183 q 667 156 653 167 q 691 134 681 146 q 701 108 701 122 l 697 93 q 683 69 694 85 q 664 46 671 53 q 558 -30 619 -4 q 429 -56 496 -56 q 360 -50 393 -56 q 294 -31 328 -44 l 260 -17 q 156 51 200 8 q 82 147 111 93 q 38 261 53 200 q 24 385 24 322 q 46 531 24 465 q 111 642 68 596 q 218 712 154 688 q 364 736 282 736 m 638 317 q 628 463 636 392 q 594 588 621 533 q 513 676 567 643 q 364 708 458 708 q 131 622 211 708 q 51 385 51 535 q 74 235 51 307 q 139 108 96 164 q 247 19 182 53 q 394 -14 311 -14 q 513 10 458 -14 q 610 82 568 33 q 615 89 611 83 q 624 101 619 94 q 633 113 629 107 q 638 119 638 118 q 625 139 638 128 q 596 162 613 150 q 563 183 579 174 q 539 200 546 193 q 474 134 517 156 q 382 113 431 113 q 276 151 313 113 q 224 253 240 190 q 431 287 328 274 q 638 317 533 300 m 213 374 q 225 447 217 411 q 251 510 233 482 q 297 556 268 539 q 371 574 326 574 q 476 528 444 574 q 506 415 507 483 q 359 395 432 401 q 213 374 286 389 m 478 439 q 472 474 476 457 q 460 503 468 490 q 438 524 451 517 q 406 532 425 532 q 322 499 350 532 q 285 414 294 465 q 381 426 333 421 q 478 439 429 431 z "},"":{"ha":653,"x_min":-12,"x_max":703,"o":"m 478 792 q 499 838 492 815 q 515 886 507 861 q 533 880 522 883 q 550 872 543 876 q 592 838 572 858 q 631 799 611 817 q 665 771 647 783 q 703 746 683 758 q 641 665 672 699 q 558 607 610 631 q 606 522 590 569 q 622 426 622 475 q 567 266 622 332 q 422 176 513 200 q 513 157 471 171 q 585 117 554 143 q 634 53 617 92 q 651 -39 651 15 q 620 -173 651 -115 q 538 -270 589 -231 q 420 -330 486 -310 q 285 -350 354 -350 q 219 -345 251 -350 q 156 -328 188 -340 q 81 -291 113 -311 q 29 -244 50 -271 q -2 -181 8 -217 q -12 -97 -12 -146 q 9 6 -12 -37 q 69 93 31 50 q 49 176 49 131 q 56 231 49 207 q 83 278 64 254 q 25 373 46 319 q 4 483 4 426 q 25 589 4 542 q 83 669 46 636 q 169 719 119 701 q 275 736 218 736 q 414 707 349 736 q 440 735 429 719 q 463 767 451 751 q 431 769 447 769 q 400 769 415 769 l 360 767 l 339 767 l 304 781 q 295 802 300 792 q 285 824 290 813 q 281 817 282 821 q 278 810 281 813 l 265 782 q 262 775 263 779 q 258 768 261 771 q 234 765 247 765 q 210 764 221 764 l 183 764 l 133 765 l 107 765 l 72 779 q 140 901 104 842 q 207 1022 176 960 q 240 1019 224 1019 q 272 1018 256 1018 l 310 1019 l 329 1019 l 364 1006 q 419 897 388 949 q 478 792 450 846 m 132 807 l 161 806 l 175 806 q 190 806 182 806 q 204 807 197 806 q 234 867 217 839 q 267 925 251 894 q 295 867 282 896 q 322 808 308 838 q 366 810 344 808 q 410 810 388 813 q 359 900 386 857 q 311 992 332 943 q 267 990 289 992 q 222 992 244 989 q 169 900 196 946 q 118 807 143 854 l 132 807 m 275 708 q 181 693 225 708 q 103 649 136 678 q 51 578 69 619 q 32 483 32 536 q 56 372 32 425 q 121 279 79 318 q 87 232 97 256 q 76 176 76 208 q 83 131 76 153 q 106 92 90 110 q 40 6 65 49 q 15 -97 15 -36 q 81 -259 15 -210 q 250 -308 146 -308 q 374 -290 314 -308 q 483 -237 435 -272 q 560 -149 531 -201 q 589 -25 589 -96 q 567 72 589 36 q 510 125 546 107 q 428 148 475 143 q 333 153 382 153 q 294 151 318 153 q 246 153 269 150 q 205 166 222 157 q 188 196 188 175 q 191 213 188 206 q 200 228 194 221 q 252 213 225 217 q 307 208 279 208 q 404 224 358 208 q 485 271 450 240 q 540 344 519 301 q 560 440 560 386 q 538 545 560 494 q 476 632 517 596 q 525 653 504 642 q 563 678 546 664 q 597 710 581 692 q 629 751 613 728 q 578 793 600 771 q 529 838 556 815 q 512 796 524 819 q 484 749 500 772 q 451 705 468 725 q 417 675 433 685 q 275 708 351 708 m 386 783 l 397 783 l 386 783 m 304 588 q 392 554 357 588 q 428 468 428 521 q 415 415 428 440 q 383 369 403 389 q 336 339 363 350 q 283 328 310 328 q 199 363 233 328 q 164 447 164 397 q 176 500 164 475 q 207 544 188 525 q 251 576 226 564 q 304 588 276 588 m 400 468 q 385 521 400 496 q 339 546 369 546 q 297 536 317 546 q 260 511 276 526 q 235 475 244 496 q 226 432 226 454 q 249 375 226 394 q 294 356 271 356 q 330 365 311 356 q 365 390 349 374 q 390 426 381 406 q 400 468 400 446 m 207 51 q 282 47 240 47 q 360 37 324 46 q 421 3 396 28 q 446 -71 446 -21 q 432 -127 446 -104 q 397 -164 418 -150 q 347 -183 375 -178 q 290 -189 319 -189 q 235 -183 261 -189 q 188 -162 208 -176 q 155 -125 167 -147 q 143 -69 143 -103 q 161 -2 143 -32 q 207 51 179 28 m 418 -71 q 401 -19 418 -35 q 360 3 385 -3 q 306 7 335 8 q 251 8 276 6 q 219 -33 232 -11 q 206 -83 206 -56 q 227 -144 206 -128 q 290 -161 249 -161 q 335 -157 313 -161 q 376 -143 358 -153 q 406 -116 394 -133 q 418 -71 418 -99 z "},"":{"ha":653,"x_min":-12,"x_max":703,"o":"m 300 971 q 335 964 318 971 q 367 944 353 957 q 388 915 381 932 q 396 878 396 897 q 388 839 396 858 q 367 803 381 819 q 335 777 353 788 q 297 767 318 767 q 251 782 274 767 q 199 817 215 786 q 182 879 182 847 q 203 951 182 917 q 265 985 224 985 l 300 971 m 333 892 q 313 938 333 918 q 265 957 293 957 q 223 931 236 957 q 210 879 210 904 q 222 832 210 856 q 263 808 235 808 q 290 816 276 808 q 313 836 303 824 q 328 863 322 849 q 333 892 333 878 m 414 707 q 476 790 453 742 q 515 886 500 838 q 533 880 522 883 q 550 872 543 876 q 592 838 572 858 q 631 799 611 817 q 665 771 647 783 q 703 746 683 758 q 641 665 672 699 q 558 607 610 631 q 606 522 590 569 q 622 426 622 475 q 567 266 622 332 q 422 176 513 200 q 513 157 471 171 q 585 117 554 143 q 634 53 617 92 q 651 -39 651 15 q 620 -173 651 -115 q 538 -270 589 -231 q 420 -330 486 -310 q 285 -350 354 -350 q 219 -345 251 -350 q 156 -328 188 -340 q 81 -291 113 -311 q 29 -244 50 -271 q -2 -181 8 -217 q -12 -97 -12 -146 q 9 6 -12 -37 q 69 93 31 50 q 49 176 49 131 q 56 231 49 207 q 83 278 64 254 q 25 373 46 319 q 4 483 4 426 q 25 589 4 542 q 83 669 46 636 q 169 719 119 701 q 275 736 218 736 q 414 707 349 736 m 275 708 q 181 693 225 708 q 103 649 136 678 q 51 578 69 619 q 32 483 32 536 q 56 372 32 425 q 121 279 79 318 q 87 232 97 256 q 76 176 76 208 q 83 131 76 153 q 106 92 90 110 q 40 6 65 49 q 15 -97 15 -36 q 81 -259 15 -210 q 250 -308 146 -308 q 374 -290 314 -308 q 483 -237 435 -272 q 560 -149 531 -201 q 589 -25 589 -96 q 567 72 589 36 q 510 125 546 107 q 428 148 475 143 q 333 153 382 153 q 294 151 318 153 q 246 153 269 150 q 205 166 222 157 q 188 196 188 175 q 191 213 188 206 q 200 228 194 221 q 252 213 225 217 q 307 208 279 208 q 404 224 358 208 q 485 271 450 240 q 540 344 519 301 q 560 440 560 386 q 538 545 560 494 q 476 632 517 596 q 525 653 504 642 q 563 678 546 664 q 597 710 581 692 q 629 751 613 728 q 578 793 600 771 q 529 838 556 815 q 512 796 524 819 q 484 749 500 772 q 451 705 468 725 q 417 675 433 685 q 275 708 351 708 m 304 588 q 392 554 357 588 q 428 468 428 521 q 415 415 428 440 q 383 369 403 389 q 336 339 363 350 q 283 328 310 328 q 199 363 233 328 q 164 447 164 397 q 176 500 164 475 q 207 544 188 525 q 251 576 226 564 q 304 588 276 588 m 400 468 q 385 521 400 496 q 339 546 369 546 q 297 536 317 546 q 260 511 276 526 q 235 475 244 496 q 226 432 226 454 q 249 375 226 394 q 296 356 271 356 q 332 365 314 356 q 365 390 350 374 q 390 426 381 406 q 400 468 400 446 m 207 51 q 282 47 240 47 q 360 37 324 46 q 421 3 396 28 q 446 -71 446 -21 q 432 -127 446 -104 q 397 -164 418 -150 q 347 -183 375 -178 q 290 -189 319 -189 q 235 -183 261 -189 q 188 -162 208 -176 q 155 -125 167 -147 q 143 -69 143 -103 q 161 -2 143 -32 q 207 51 179 28 m 418 -71 q 401 -19 418 -35 q 360 3 385 -3 q 306 7 335 8 q 251 8 276 6 q 219 -33 232 -11 q 206 -83 206 -56 q 227 -144 206 -128 q 290 -161 249 -161 q 335 -157 313 -161 q 376 -143 358 -153 q 406 -116 394 -133 q 418 -71 418 -99 z "}}}
